ISO-10303-21;
HEADER;
/* Generated by software containing ST-Developer
 * from STEP Tools, Inc. (www.steptools.com) 
 */

FILE_DESCRIPTION(
/* description */ ('KiCad electronic assembly'),
/* implementation_level */ '2;1');

FILE_NAME(
/* name */ 'Stardance hackpad case bottom.step',
/* time_stamp */ '2026-08-09T10:52:07+10:00',
/* author */ (''),
/* organization */ (''),
/* preprocessor_version */ 'ST-DEVELOPER v20.1',
/* originating_system */ 'Autodesk Translation Framework v15.8.0.0',
/* authorisation */ '');

FILE_SCHEMA (('AUTOMOTIVE_DESIGN { 1 0 10303 214 3 1 1 }'));
ENDSEC;

DATA;
#10=MECHANICAL_DESIGN_GEOMETRIC_PRESENTATION_REPRESENTATION('',(#13),#1461);
#11=SHAPE_REPRESENTATION_RELATIONSHIP('SRR','None',#1467,#12);
#12=ADVANCED_BREP_SHAPE_REPRESENTATION('',(#14),#1460);
#13=STYLED_ITEM('',(#1476),#14);
#14=MANIFOLD_SOLID_BREP('Body1',#529);
#15=FACE_BOUND('',#106,.T.);
#16=FACE_BOUND('',#108,.T.);
#17=FACE_BOUND('',#109,.T.);
#18=FACE_BOUND('',#110,.T.);
#19=FACE_BOUND('',#111,.T.);
#20=FACE_BOUND('',#112,.T.);
#21=FACE_BOUND('',#118,.T.);
#22=FACE_BOUND('',#119,.T.);
#23=FACE_BOUND('',#120,.T.);
#24=FACE_BOUND('',#121,.T.);
#25=FACE_BOUND('',#124,.T.);
#26=PLANE('',#543);
#27=PLANE('',#544);
#28=PLANE('',#545);
#29=PLANE('',#546);
#30=PLANE('',#547);
#31=PLANE('',#548);
#32=PLANE('',#549);
#33=PLANE('',#550);
#34=PLANE('',#551);
#35=PLANE('',#552);
#36=PLANE('',#553);
#37=PLANE('',#554);
#38=PLANE('',#555);
#39=PLANE('',#556);
#40=PLANE('',#557);
#41=B_SPLINE_CURVE_WITH_KNOTS('',3,(#729,#730,#731,#732,#733,#734,#735,
#736,#737,#738,#739,#740,#741,#742,#743,#744,#745,#746,#747,#748,#749,#750),
 .UNSPECIFIED.,.F.,.F.,(4,3,3,3,3,3,3,4),(0.,0.019427662345147,0.0388553246902939,
0.0582829870354409,0.0777106493805878,0.0971383117257348,0.116565974070882,
0.135993636416029),.UNSPECIFIED.);
#42=B_SPLINE_CURVE_WITH_KNOTS('',3,(#754,#755,#756,#757,#758,#759,#760,
#761,#762,#763,#764,#765,#766,#767,#768,#769,#770,#771,#772,#773,#774,#775),
 .UNSPECIFIED.,.F.,.F.,(4,3,3,3,3,3,3,4),(0.,0.0194276623452558,0.0388553246905116,
0.0582829870357673,0.0777106493810231,0.0971383117262789,0.116565974071535,
0.13599363641679),.UNSPECIFIED.);
#43=B_SPLINE_CURVE_WITH_KNOTS('',3,(#824,#825,#826,#827,#828,#829,#830,
#831,#832,#833,#834,#835,#836,#837,#838,#839,#840,#841,#842,#843,#844,#845),
 .UNSPECIFIED.,.F.,.F.,(4,3,3,3,3,3,3,4),(0.,0.019427662345147,0.0388553246902939,
0.0582829870354409,0.0777106493805878,0.0971383117257348,0.116565974070882,
0.135993636416029),.UNSPECIFIED.);
#44=B_SPLINE_CURVE_WITH_KNOTS('',3,(#847,#848,#849,#850,#851,#852,#853,
#854,#855,#856,#857,#858,#859,#860,#861,#862,#863,#864,#865,#866,#867,#868),
 .UNSPECIFIED.,.F.,.F.,(4,3,3,3,3,3,3,4),(0.,0.0194276623452558,0.0388553246905116,
0.0582829870357673,0.0777106493810231,0.0971383117262789,0.116565974071535,
0.13599363641679),.UNSPECIFIED.);
#45=B_SPLINE_CURVE_WITH_KNOTS('',3,(#912,#913,#914,#915,#916,#917,#918,
#919,#920,#921,#922,#923,#924,#925,#926,#927,#928,#929,#930,#931,#932,#933),
 .UNSPECIFIED.,.F.,.F.,(4,3,3,3,3,3,3,4),(0.,0.0194276623451589,0.0388553246903178,
0.0582829870354767,0.0777106493806355,0.0971383117257944,0.116565974070953,
0.135993636416112),.UNSPECIFIED.);
#46=B_SPLINE_CURVE_WITH_KNOTS('',3,(#937,#938,#939,#940,#941,#942,#943,
#944,#945,#946,#947,#948,#949,#950,#951,#952,#953,#954,#955,#956,#957,#958),
 .UNSPECIFIED.,.F.,.F.,(4,3,3,3,3,3,3,4),(0.,0.0194276623452546,0.0388553246905092,
0.0582829870357638,0.0777106493810184,0.097138311726273,0.116565974071528,
0.135993636416782),.UNSPECIFIED.);
#47=B_SPLINE_CURVE_WITH_KNOTS('',3,(#1007,#1008,#1009,#1010,#1011,#1012,
#1013,#1014,#1015,#1016,#1017,#1018,#1019,#1020,#1021,#1022,#1023,#1024,
#1025,#1026,#1027,#1028),.UNSPECIFIED.,.F.,.F.,(4,3,3,3,3,3,3,4),(0.,0.0194276623452095,
0.038855324690419,0.0582829870356285,0.077710649380838,0.0971383117260474,
0.116565974071257,0.135993636416466),.UNSPECIFIED.);
#48=B_SPLINE_CURVE_WITH_KNOTS('',3,(#1031,#1032,#1033,#1034,#1035,#1036,
#1037,#1038,#1039,#1040,#1041,#1042,#1043,#1044,#1045,#1046,#1047,#1048,
#1049,#1050,#1051,#1052),.UNSPECIFIED.,.F.,.F.,(4,3,3,3,3,3,3,4),(0.,0.0194276623451353,
0.0388553246902705,0.0582829870354058,0.077710649380541,0.0971383117256763,
0.116565974070812,0.135993636415947),.UNSPECIFIED.);
#49=B_SPLINE_CURVE_WITH_KNOTS('',3,(#1101,#1102,#1103,#1104,#1105,#1106,
#1107,#1108,#1109,#1110,#1111,#1112,#1113,#1114,#1115,#1116,#1117,#1118,
#1119,#1120,#1121,#1122),.UNSPECIFIED.,.F.,.F.,(4,3,3,3,3,3,3,4),(0.,0.0971383117258249,
0.19427662345165,0.291414935177475,0.3885532469033,0.485691558629124,0.582829870354949,
0.679968182080774),.UNSPECIFIED.);
#50=B_SPLINE_CURVE_WITH_KNOTS('',3,(#1126,#1127,#1128,#1129,#1130,#1131,
#1132,#1133,#1134,#1135,#1136,#1137,#1138,#1139,#1140,#1141,#1142,#1143,
#1144,#1145,#1146,#1147),.UNSPECIFIED.,.F.,.F.,(4,3,3,3,3,3,3,4),(0.,0.0971383117258713,
0.194276623451743,0.291414935177614,0.388553246903485,0.485691558629356,
0.582829870355227,0.679968182081099),.UNSPECIFIED.);
#51=B_SPLINE_CURVE_WITH_KNOTS('',3,(#1159,#1160,#1161,#1162,#1163,#1164,
#1165,#1166,#1167,#1168,#1169,#1170,#1171,#1172,#1173,#1174,#1175,#1176,
#1177,#1178,#1179,#1180),.UNSPECIFIED.,.F.,.F.,(4,3,3,3,3,3,3,4),(0.,0.0971383117259405,
0.194276623451881,0.291414935177821,0.388553246903762,0.485691558629702,
0.582829870355643,0.679968182081583),.UNSPECIFIED.);
#52=B_SPLINE_CURVE_WITH_KNOTS('',3,(#1184,#1185,#1186,#1187,#1188,#1189,
#1190,#1191,#1192,#1193,#1194,#1195,#1196,#1197,#1198,#1199,#1200,#1201,
#1202,#1203,#1204,#1205),.UNSPECIFIED.,.F.,.F.,(4,3,3,3,3,3,3,4),(0.,0.0971383117261052,
0.19427662345221,0.291414935178316,0.388553246904421,0.485691558630526,
0.582829870356631,0.679968182082736),.UNSPECIFIED.);
#53=B_SPLINE_CURVE_WITH_KNOTS('',3,(#1208,#1209,#1210,#1211,#1212,#1213,
#1214,#1215,#1216,#1217,#1218,#1219,#1220,#1221,#1222,#1223,#1224,#1225,
#1226,#1227,#1228,#1229),.UNSPECIFIED.,.F.,.F.,(4,3,3,3,3,3,3,4),(0.,0.0971383117259558,
0.194276623451912,0.291414935177867,0.388553246903823,0.485691558629779,
0.582829870355735,0.679968182081691),.UNSPECIFIED.);
#54=B_SPLINE_CURVE_WITH_KNOTS('',3,(#1281,#1282,#1283,#1284,#1285,#1286,
#1287,#1288,#1289,#1290,#1291,#1292,#1293,#1294,#1295,#1296,#1297,#1298,
#1299,#1300,#1301,#1302),.UNSPECIFIED.,.F.,.F.,(4,3,3,3,3,3,3,4),(0.,0.0971383117260131,
0.194276623452026,0.291414935178039,0.388553246904052,0.485691558630065,
0.582829870356079,0.679968182082092),.UNSPECIFIED.);
#55=B_SPLINE_CURVE_WITH_KNOTS('',3,(#1349,#1350,#1351,#1352,#1353,#1354,
#1355,#1356,#1357,#1358,#1359,#1360,#1361,#1362,#1363,#1364,#1365,#1366,
#1367,#1368,#1369,#1370),.UNSPECIFIED.,.F.,.F.,(4,3,3,3,3,3,3,4),(0.,0.0971383117258178,
0.194276623451636,0.291414935177454,0.388553246903271,0.485691558629089,
0.582829870354907,0.679968182080725),.UNSPECIFIED.);
#56=B_SPLINE_CURVE_WITH_KNOTS('',3,(#1414,#1415,#1416,#1417,#1418,#1419,
#1420,#1421,#1422,#1423,#1424,#1425,#1426,#1427,#1428,#1429,#1430,#1431,
#1432,#1433,#1434,#1435),.UNSPECIFIED.,.F.,.F.,(4,3,3,3,3,3,3,4),(0.,0.0971383117258557,
0.194276623451711,0.291414935177567,0.388553246903423,0.485691558629278,
0.582829870355134,0.67996818208099),.UNSPECIFIED.);
#57=B_SPLINE_SURFACE_WITH_KNOTS('',3,3,((#687,#688,#689,#690),(#691,#692,
#693,#694),(#695,#696,#697,#698),(#699,#700,#701,#702),(#703,#704,#705,
#706),(#707,#708,#709,#710),(#711,#712,#713,#714),(#715,#716,#717,#718),
(#719,#720,#721,#722),(#723,#724,#725,#726)),.UNSPECIFIED.,.F.,.F.,.F.,
(4,1,1,1,1,1,1,4),(4,4),(0.,0.142857142857143,0.285714285714286,0.428571428571429,
0.571428571428571,0.714285714285714,0.857142857142857,1.),(-0.5,5.55111512312578E-17),
 .UNSPECIFIED.);
#58=B_SPLINE_SURFACE_WITH_KNOTS('',3,3,((#783,#784,#785,#786),(#787,#788,
#789,#790),(#791,#792,#793,#794),(#795,#796,#797,#798),(#799,#800,#801,
#802),(#803,#804,#805,#806),(#807,#808,#809,#810),(#811,#812,#813,#814),
(#815,#816,#817,#818),(#819,#820,#821,#822)),.UNSPECIFIED.,.F.,.F.,.F.,
(4,1,1,1,1,1,1,4),(4,4),(0.,0.142857142857143,0.285714285714286,0.428571428571429,
0.571428571428571,0.714285714285714,0.857142857142857,1.),(-5.55111512312578E-17,
0.5),.UNSPECIFIED.);
#59=B_SPLINE_SURFACE_WITH_KNOTS('',3,3,((#870,#871,#872,#873),(#874,#875,
#876,#877),(#878,#879,#880,#881),(#882,#883,#884,#885),(#886,#887,#888,
#889),(#890,#891,#892,#893),(#894,#895,#896,#897),(#898,#899,#900,#901),
(#902,#903,#904,#905),(#906,#907,#908,#909)),.UNSPECIFIED.,.F.,.F.,.F.,
(4,1,1,1,1,1,1,4),(4,4),(0.,0.142857142857143,0.285714285714286,0.428571428571429,
0.571428571428571,0.714285714285714,0.857142857142857,1.),(-0.5,5.55111512312578E-17),
 .UNSPECIFIED.);
#60=B_SPLINE_SURFACE_WITH_KNOTS('',3,3,((#966,#967,#968,#969),(#970,#971,
#972,#973),(#974,#975,#976,#977),(#978,#979,#980,#981),(#982,#983,#984,
#985),(#986,#987,#988,#989),(#990,#991,#992,#993),(#994,#995,#996,#997),
(#998,#999,#1000,#1001),(#1002,#1003,#1004,#1005)),.UNSPECIFIED.,.F.,.F.,
 .F.,(4,1,1,1,1,1,1,4),(4,4),(0.,0.142857142857143,0.285714285714286,0.428571428571429,
0.571428571428571,0.714285714285714,0.857142857142857,1.),(-0.5,5.55111512312578E-17),
 .UNSPECIFIED.);
#61=B_SPLINE_SURFACE_WITH_KNOTS('',3,3,((#1059,#1060,#1061,#1062),(#1063,
#1064,#1065,#1066),(#1067,#1068,#1069,#1070),(#1071,#1072,#1073,#1074),
(#1075,#1076,#1077,#1078),(#1079,#1080,#1081,#1082),(#1083,#1084,#1085,
#1086),(#1087,#1088,#1089,#1090),(#1091,#1092,#1093,#1094),(#1095,#1096,
#1097,#1098)),.UNSPECIFIED.,.F.,.F.,.F.,(4,1,1,1,1,1,1,4),(4,4),(0.,0.142857142857143,
0.285714285714286,0.428571428571429,0.571428571428571,0.714285714285714,
0.857142857142857,1.),(-0.9,1.2),.UNSPECIFIED.);
#62=B_SPLINE_SURFACE_WITH_KNOTS('',3,3,((#1238,#1239,#1240,#1241),(#1242,
#1243,#1244,#1245),(#1246,#1247,#1248,#1249),(#1250,#1251,#1252,#1253),
(#1254,#1255,#1256,#1257),(#1258,#1259,#1260,#1261),(#1262,#1263,#1264,
#1265),(#1266,#1267,#1268,#1269),(#1270,#1271,#1272,#1273),(#1274,#1275,
#1276,#1277)),.UNSPECIFIED.,.F.,.F.,.F.,(4,1,1,1,1,1,1,4),(4,4),(0.,0.142857142857143,
0.285714285714286,0.428571428571429,0.571428571428571,0.714285714285714,
0.857142857142857,1.),(-0.9,1.2),.UNSPECIFIED.);
#63=B_SPLINE_SURFACE_WITH_KNOTS('',3,3,((#1308,#1309,#1310,#1311),(#1312,
#1313,#1314,#1315),(#1316,#1317,#1318,#1319),(#1320,#1321,#1322,#1323),
(#1324,#1325,#1326,#1327),(#1328,#1329,#1330,#1331),(#1332,#1333,#1334,
#1335),(#1336,#1337,#1338,#1339),(#1340,#1341,#1342,#1343),(#1344,#1345,
#1346,#1347)),.UNSPECIFIED.,.F.,.F.,.F.,(4,1,1,1,1,1,1,4),(4,4),(0.,0.142857142857143,
0.285714285714286,0.428571428571429,0.571428571428571,0.714285714285714,
0.857142857142857,1.),(-1.2,0.9),.UNSPECIFIED.);
#64=B_SPLINE_SURFACE_WITH_KNOTS('',3,3,((#1372,#1373,#1374,#1375),(#1376,
#1377,#1378,#1379),(#1380,#1381,#1382,#1383),(#1384,#1385,#1386,#1387),
(#1388,#1389,#1390,#1391),(#1392,#1393,#1394,#1395),(#1396,#1397,#1398,
#1399),(#1400,#1401,#1402,#1403),(#1404,#1405,#1406,#1407),(#1408,#1409,
#1410,#1411)),.UNSPECIFIED.,.F.,.F.,.F.,(4,1,1,1,1,1,1,4),(4,4),(0.,0.142857142857143,
0.285714285714286,0.428571428571429,0.571428571428571,0.714285714285714,
0.857142857142857,1.),(-0.9,1.2),.UNSPECIFIED.);
#65=FACE_OUTER_BOUND('',#92,.T.);
#66=FACE_OUTER_BOUND('',#93,.T.);
#67=FACE_OUTER_BOUND('',#94,.T.);
#68=FACE_OUTER_BOUND('',#95,.T.);
#69=FACE_OUTER_BOUND('',#96,.T.);
#70=FACE_OUTER_BOUND('',#97,.T.);
#71=FACE_OUTER_BOUND('',#98,.T.);
#72=FACE_OUTER_BOUND('',#99,.T.);
#73=FACE_OUTER_BOUND('',#100,.T.);
#74=FACE_OUTER_BOUND('',#101,.T.);
#75=FACE_OUTER_BOUND('',#102,.T.);
#76=FACE_OUTER_BOUND('',#103,.T.);
#77=FACE_OUTER_BOUND('',#104,.T.);
#78=FACE_OUTER_BOUND('',#105,.T.);
#79=FACE_OUTER_BOUND('',#107,.T.);
#80=FACE_OUTER_BOUND('',#113,.T.);
#81=FACE_OUTER_BOUND('',#114,.T.);
#82=FACE_OUTER_BOUND('',#115,.T.);
#83=FACE_OUTER_BOUND('',#116,.T.);
#84=FACE_OUTER_BOUND('',#117,.T.);
#85=FACE_OUTER_BOUND('',#122,.T.);
#86=FACE_OUTER_BOUND('',#123,.T.);
#87=FACE_OUTER_BOUND('',#125,.T.);
#88=FACE_OUTER_BOUND('',#126,.T.);
#89=FACE_OUTER_BOUND('',#127,.T.);
#90=FACE_OUTER_BOUND('',#128,.T.);
#91=FACE_OUTER_BOUND('',#129,.T.);
#92=EDGE_LOOP('',(#354,#355,#356,#357));
#93=EDGE_LOOP('',(#358,#359,#360,#361));
#94=EDGE_LOOP('',(#362,#363,#364,#365));
#95=EDGE_LOOP('',(#366,#367,#368,#369));
#96=EDGE_LOOP('',(#370,#371,#372,#373));
#97=EDGE_LOOP('',(#374,#375,#376,#377));
#98=EDGE_LOOP('',(#378,#379,#380,#381));
#99=EDGE_LOOP('',(#382,#383,#384,#385));
#100=EDGE_LOOP('',(#386,#387,#388,#389));
#101=EDGE_LOOP('',(#390,#391,#392,#393));
#102=EDGE_LOOP('',(#394,#395,#396,#397));
#103=EDGE_LOOP('',(#398,#399,#400,#401));
#104=EDGE_LOOP('',(#402,#403,#404,#405));
#105=EDGE_LOOP('',(#406,#407,#408,#409));
#106=EDGE_LOOP('',(#410,#411,#412,#413,#414,#415,#416,#417));
#107=EDGE_LOOP('',(#418,#419,#420,#421,#422,#423,#424,#425));
#108=EDGE_LOOP('',(#426,#427,#428,#429));
#109=EDGE_LOOP('',(#430));
#110=EDGE_LOOP('',(#431));
#111=EDGE_LOOP('',(#432));
#112=EDGE_LOOP('',(#433));
#113=EDGE_LOOP('',(#434,#435,#436,#437));
#114=EDGE_LOOP('',(#438,#439,#440,#441));
#115=EDGE_LOOP('',(#442,#443,#444,#445));
#116=EDGE_LOOP('',(#446,#447,#448,#449));
#117=EDGE_LOOP('',(#450,#451,#452,#453,#454,#455,#456,#457));
#118=EDGE_LOOP('',(#458));
#119=EDGE_LOOP('',(#459));
#120=EDGE_LOOP('',(#460));
#121=EDGE_LOOP('',(#461));
#122=EDGE_LOOP('',(#462,#463,#464,#465));
#123=EDGE_LOOP('',(#466,#467,#468,#469));
#124=EDGE_LOOP('',(#470,#471,#472,#473,#474,#475,#476,#477));
#125=EDGE_LOOP('',(#478,#479,#480,#481));
#126=EDGE_LOOP('',(#482,#483,#484,#485));
#127=EDGE_LOOP('',(#486,#487,#488,#489));
#128=EDGE_LOOP('',(#490,#491,#492,#493));
#129=EDGE_LOOP('',(#494,#495,#496,#497));
#130=LINE('',#667,#178);
#131=LINE('',#673,#179);
#132=LINE('',#679,#180);
#133=LINE('',#685,#181);
#134=LINE('',#752,#182);
#135=LINE('',#776,#183);
#136=LINE('',#779,#184);
#137=LINE('',#781,#185);
#138=LINE('',#782,#186);
#139=LINE('',#869,#187);
#140=LINE('',#935,#188);
#141=LINE('',#959,#189);
#142=LINE('',#962,#190);
#143=LINE('',#964,#191);
#144=LINE('',#965,#192);
#145=LINE('',#1030,#193);
#146=LINE('',#1054,#194);
#147=LINE('',#1055,#195);
#148=LINE('',#1057,#196);
#149=LINE('',#1058,#197);
#150=LINE('',#1124,#198);
#151=LINE('',#1148,#199);
#152=LINE('',#1151,#200);
#153=LINE('',#1153,#201);
#154=LINE('',#1154,#202);
#155=LINE('',#1157,#203);
#156=LINE('',#1182,#204);
#157=LINE('',#1207,#205);
#158=LINE('',#1232,#206);
#159=LINE('',#1234,#207);
#160=LINE('',#1236,#208);
#161=LINE('',#1237,#209);
#162=LINE('',#1279,#210);
#163=LINE('',#1303,#211);
#164=LINE('',#1306,#212);
#165=LINE('',#1307,#213);
#166=LINE('',#1371,#214);
#167=LINE('',#1413,#215);
#168=LINE('',#1437,#216);
#169=LINE('',#1438,#217);
#170=LINE('',#1442,#218);
#171=LINE('',#1444,#219);
#172=LINE('',#1446,#220);
#173=LINE('',#1447,#221);
#174=LINE('',#1449,#222);
#175=LINE('',#1450,#223);
#176=LINE('',#1452,#224);
#177=LINE('',#1455,#225);
#178=VECTOR('',#564,1.45);
#179=VECTOR('',#571,1.45);
#180=VECTOR('',#578,1.45);
#181=VECTOR('',#585,1.45);
#182=VECTOR('',#588,10.);
#183=VECTOR('',#589,10.);
#184=VECTOR('',#592,10.);
#185=VECTOR('',#593,10.);
#186=VECTOR('',#594,10.);
#187=VECTOR('',#595,10.);
#188=VECTOR('',#596,10.);
#189=VECTOR('',#597,10.);
#190=VECTOR('',#600,10.);
#191=VECTOR('',#601,10.);
#192=VECTOR('',#602,10.);
#193=VECTOR('',#603,10.);
#194=VECTOR('',#606,10.);
#195=VECTOR('',#607,10.);
#196=VECTOR('',#610,10.);
#197=VECTOR('',#611,10.);
#198=VECTOR('',#612,10.);
#199=VECTOR('',#613,10.);
#200=VECTOR('',#616,10.);
#201=VECTOR('',#617,10.);
#202=VECTOR('',#618,10.);
#203=VECTOR('',#621,10.);
#204=VECTOR('',#622,10.);
#205=VECTOR('',#623,10.);
#206=VECTOR('',#624,10.);
#207=VECTOR('',#625,10.);
#208=VECTOR('',#626,10.);
#209=VECTOR('',#627,10.);
#210=VECTOR('',#628,10.);
#211=VECTOR('',#629,10.);
#212=VECTOR('',#632,10.);
#213=VECTOR('',#633,10.);
#214=VECTOR('',#634,10.);
#215=VECTOR('',#635,10.);
#216=VECTOR('',#638,10.);
#217=VECTOR('',#639,10.);
#218=VECTOR('',#642,10.);
#219=VECTOR('',#643,10.);
#220=VECTOR('',#644,10.);
#221=VECTOR('',#645,10.);
#222=VECTOR('',#648,10.);
#223=VECTOR('',#649,10.);
#224=VECTOR('',#652,10.);
#225=VECTOR('',#657,10.);
#226=CIRCLE('',#532,1.45);
#227=CIRCLE('',#533,1.45);
#228=CIRCLE('',#535,1.45);
#229=CIRCLE('',#536,1.45);
#230=CIRCLE('',#538,1.45);
#231=CIRCLE('',#539,1.45);
#232=CIRCLE('',#541,1.45);
#233=CIRCLE('',#542,1.45);
#234=VERTEX_POINT('',#664);
#235=VERTEX_POINT('',#666);
#236=VERTEX_POINT('',#670);
#237=VERTEX_POINT('',#672);
#238=VERTEX_POINT('',#676);
#239=VERTEX_POINT('',#678);
#240=VERTEX_POINT('',#682);
#241=VERTEX_POINT('',#684);
#242=VERTEX_POINT('',#727);
#243=VERTEX_POINT('',#728);
#244=VERTEX_POINT('',#751);
#245=VERTEX_POINT('',#753);
#246=VERTEX_POINT('',#778);
#247=VERTEX_POINT('',#780);
#248=VERTEX_POINT('',#823);
#249=VERTEX_POINT('',#846);
#250=VERTEX_POINT('',#910);
#251=VERTEX_POINT('',#911);
#252=VERTEX_POINT('',#934);
#253=VERTEX_POINT('',#936);
#254=VERTEX_POINT('',#961);
#255=VERTEX_POINT('',#963);
#256=VERTEX_POINT('',#1006);
#257=VERTEX_POINT('',#1029);
#258=VERTEX_POINT('',#1099);
#259=VERTEX_POINT('',#1100);
#260=VERTEX_POINT('',#1123);
#261=VERTEX_POINT('',#1125);
#262=VERTEX_POINT('',#1150);
#263=VERTEX_POINT('',#1152);
#264=VERTEX_POINT('',#1156);
#265=VERTEX_POINT('',#1158);
#266=VERTEX_POINT('',#1181);
#267=VERTEX_POINT('',#1183);
#268=VERTEX_POINT('',#1206);
#269=VERTEX_POINT('',#1230);
#270=VERTEX_POINT('',#1231);
#271=VERTEX_POINT('',#1233);
#272=VERTEX_POINT('',#1235);
#273=VERTEX_POINT('',#1278);
#274=VERTEX_POINT('',#1280);
#275=VERTEX_POINT('',#1305);
#276=VERTEX_POINT('',#1348);
#277=VERTEX_POINT('',#1412);
#278=VERTEX_POINT('',#1440);
#279=VERTEX_POINT('',#1441);
#280=VERTEX_POINT('',#1443);
#281=VERTEX_POINT('',#1445);
#282=EDGE_CURVE('',#234,#234,#226,.T.);
#283=EDGE_CURVE('',#234,#235,#130,.T.);
#284=EDGE_CURVE('',#235,#235,#227,.T.);
#285=EDGE_CURVE('',#236,#236,#228,.T.);
#286=EDGE_CURVE('',#236,#237,#131,.T.);
#287=EDGE_CURVE('',#237,#237,#229,.T.);
#288=EDGE_CURVE('',#238,#238,#230,.T.);
#289=EDGE_CURVE('',#238,#239,#132,.T.);
#290=EDGE_CURVE('',#239,#239,#231,.T.);
#291=EDGE_CURVE('',#240,#240,#232,.T.);
#292=EDGE_CURVE('',#240,#241,#133,.T.);
#293=EDGE_CURVE('',#241,#241,#233,.T.);
#294=EDGE_CURVE('',#242,#243,#41,.T.);
#295=EDGE_CURVE('',#243,#244,#134,.T.);
#296=EDGE_CURVE('',#244,#245,#42,.T.);
#297=EDGE_CURVE('',#245,#242,#135,.T.);
#298=EDGE_CURVE('',#246,#243,#136,.T.);
#299=EDGE_CURVE('',#247,#246,#137,.T.);
#300=EDGE_CURVE('',#244,#247,#138,.T.);
#301=EDGE_CURVE('',#248,#247,#43,.T.);
#302=EDGE_CURVE('',#246,#249,#44,.T.);
#303=EDGE_CURVE('',#249,#248,#139,.T.);
#304=EDGE_CURVE('',#250,#251,#45,.T.);
#305=EDGE_CURVE('',#251,#252,#140,.T.);
#306=EDGE_CURVE('',#252,#253,#46,.T.);
#307=EDGE_CURVE('',#253,#250,#141,.T.);
#308=EDGE_CURVE('',#254,#251,#142,.T.);
#309=EDGE_CURVE('',#255,#254,#143,.T.);
#310=EDGE_CURVE('',#252,#255,#144,.T.);
#311=EDGE_CURVE('',#254,#256,#47,.T.);
#312=EDGE_CURVE('',#256,#257,#145,.T.);
#313=EDGE_CURVE('',#257,#255,#48,.T.);
#314=EDGE_CURVE('',#257,#245,#146,.T.);
#315=EDGE_CURVE('',#242,#256,#147,.T.);
#316=EDGE_CURVE('',#250,#249,#148,.T.);
#317=EDGE_CURVE('',#248,#253,#149,.T.);
#318=EDGE_CURVE('',#258,#259,#49,.T.);
#319=EDGE_CURVE('',#259,#260,#150,.T.);
#320=EDGE_CURVE('',#260,#261,#50,.T.);
#321=EDGE_CURVE('',#261,#258,#151,.T.);
#322=EDGE_CURVE('',#262,#259,#152,.T.);
#323=EDGE_CURVE('',#263,#262,#153,.T.);
#324=EDGE_CURVE('',#260,#263,#154,.T.);
#325=EDGE_CURVE('',#258,#264,#155,.T.);
#326=EDGE_CURVE('',#265,#264,#51,.T.);
#327=EDGE_CURVE('',#265,#266,#156,.T.);
#328=EDGE_CURVE('',#267,#266,#52,.T.);
#329=EDGE_CURVE('',#267,#268,#157,.T.);
#330=EDGE_CURVE('',#262,#268,#53,.T.);
#331=EDGE_CURVE('',#269,#270,#158,.T.);
#332=EDGE_CURVE('',#270,#271,#159,.T.);
#333=EDGE_CURVE('',#271,#272,#160,.T.);
#334=EDGE_CURVE('',#272,#269,#161,.T.);
#335=EDGE_CURVE('',#264,#273,#162,.T.);
#336=EDGE_CURVE('',#273,#274,#54,.T.);
#337=EDGE_CURVE('',#274,#265,#163,.T.);
#338=EDGE_CURVE('',#275,#274,#164,.T.);
#339=EDGE_CURVE('',#266,#275,#165,.T.);
#340=EDGE_CURVE('',#275,#276,#55,.T.);
#341=EDGE_CURVE('',#276,#267,#166,.T.);
#342=EDGE_CURVE('',#268,#277,#167,.T.);
#343=EDGE_CURVE('',#277,#263,#56,.T.);
#344=EDGE_CURVE('',#277,#276,#168,.T.);
#345=EDGE_CURVE('',#273,#261,#169,.T.);
#346=EDGE_CURVE('',#278,#279,#170,.T.);
#347=EDGE_CURVE('',#280,#278,#171,.T.);
#348=EDGE_CURVE('',#281,#280,#172,.T.);
#349=EDGE_CURVE('',#279,#281,#173,.T.);
#350=EDGE_CURVE('',#269,#280,#174,.T.);
#351=EDGE_CURVE('',#281,#272,#175,.T.);
#352=EDGE_CURVE('',#278,#270,#176,.T.);
#353=EDGE_CURVE('',#279,#271,#177,.T.);
#354=ORIENTED_EDGE('',*,*,#282,.F.);
#355=ORIENTED_EDGE('',*,*,#283,.T.);
#356=ORIENTED_EDGE('',*,*,#284,.F.);
#357=ORIENTED_EDGE('',*,*,#283,.F.);
#358=ORIENTED_EDGE('',*,*,#285,.F.);
#359=ORIENTED_EDGE('',*,*,#286,.T.);
#360=ORIENTED_EDGE('',*,*,#287,.F.);
#361=ORIENTED_EDGE('',*,*,#286,.F.);
#362=ORIENTED_EDGE('',*,*,#288,.F.);
#363=ORIENTED_EDGE('',*,*,#289,.T.);
#364=ORIENTED_EDGE('',*,*,#290,.F.);
#365=ORIENTED_EDGE('',*,*,#289,.F.);
#366=ORIENTED_EDGE('',*,*,#291,.F.);
#367=ORIENTED_EDGE('',*,*,#292,.T.);
#368=ORIENTED_EDGE('',*,*,#293,.F.);
#369=ORIENTED_EDGE('',*,*,#292,.F.);
#370=ORIENTED_EDGE('',*,*,#294,.T.);
#371=ORIENTED_EDGE('',*,*,#295,.T.);
#372=ORIENTED_EDGE('',*,*,#296,.T.);
#373=ORIENTED_EDGE('',*,*,#297,.T.);
#374=ORIENTED_EDGE('',*,*,#295,.F.);
#375=ORIENTED_EDGE('',*,*,#298,.F.);
#376=ORIENTED_EDGE('',*,*,#299,.F.);
#377=ORIENTED_EDGE('',*,*,#300,.F.);
#378=ORIENTED_EDGE('',*,*,#301,.T.);
#379=ORIENTED_EDGE('',*,*,#299,.T.);
#380=ORIENTED_EDGE('',*,*,#302,.T.);
#381=ORIENTED_EDGE('',*,*,#303,.T.);
#382=ORIENTED_EDGE('',*,*,#304,.T.);
#383=ORIENTED_EDGE('',*,*,#305,.T.);
#384=ORIENTED_EDGE('',*,*,#306,.T.);
#385=ORIENTED_EDGE('',*,*,#307,.T.);
#386=ORIENTED_EDGE('',*,*,#305,.F.);
#387=ORIENTED_EDGE('',*,*,#308,.F.);
#388=ORIENTED_EDGE('',*,*,#309,.F.);
#389=ORIENTED_EDGE('',*,*,#310,.F.);
#390=ORIENTED_EDGE('',*,*,#311,.T.);
#391=ORIENTED_EDGE('',*,*,#312,.T.);
#392=ORIENTED_EDGE('',*,*,#313,.T.);
#393=ORIENTED_EDGE('',*,*,#309,.T.);
#394=ORIENTED_EDGE('',*,*,#297,.F.);
#395=ORIENTED_EDGE('',*,*,#314,.F.);
#396=ORIENTED_EDGE('',*,*,#312,.F.);
#397=ORIENTED_EDGE('',*,*,#315,.F.);
#398=ORIENTED_EDGE('',*,*,#303,.F.);
#399=ORIENTED_EDGE('',*,*,#316,.F.);
#400=ORIENTED_EDGE('',*,*,#307,.F.);
#401=ORIENTED_EDGE('',*,*,#317,.F.);
#402=ORIENTED_EDGE('',*,*,#318,.T.);
#403=ORIENTED_EDGE('',*,*,#319,.T.);
#404=ORIENTED_EDGE('',*,*,#320,.T.);
#405=ORIENTED_EDGE('',*,*,#321,.T.);
#406=ORIENTED_EDGE('',*,*,#319,.F.);
#407=ORIENTED_EDGE('',*,*,#322,.F.);
#408=ORIENTED_EDGE('',*,*,#323,.F.);
#409=ORIENTED_EDGE('',*,*,#324,.F.);
#410=ORIENTED_EDGE('',*,*,#314,.T.);
#411=ORIENTED_EDGE('',*,*,#296,.F.);
#412=ORIENTED_EDGE('',*,*,#300,.T.);
#413=ORIENTED_EDGE('',*,*,#301,.F.);
#414=ORIENTED_EDGE('',*,*,#317,.T.);
#415=ORIENTED_EDGE('',*,*,#306,.F.);
#416=ORIENTED_EDGE('',*,*,#310,.T.);
#417=ORIENTED_EDGE('',*,*,#313,.F.);
#418=ORIENTED_EDGE('',*,*,#318,.F.);
#419=ORIENTED_EDGE('',*,*,#325,.T.);
#420=ORIENTED_EDGE('',*,*,#326,.F.);
#421=ORIENTED_EDGE('',*,*,#327,.T.);
#422=ORIENTED_EDGE('',*,*,#328,.F.);
#423=ORIENTED_EDGE('',*,*,#329,.T.);
#424=ORIENTED_EDGE('',*,*,#330,.F.);
#425=ORIENTED_EDGE('',*,*,#322,.T.);
#426=ORIENTED_EDGE('',*,*,#331,.T.);
#427=ORIENTED_EDGE('',*,*,#332,.T.);
#428=ORIENTED_EDGE('',*,*,#333,.T.);
#429=ORIENTED_EDGE('',*,*,#334,.T.);
#430=ORIENTED_EDGE('',*,*,#291,.T.);
#431=ORIENTED_EDGE('',*,*,#288,.T.);
#432=ORIENTED_EDGE('',*,*,#285,.T.);
#433=ORIENTED_EDGE('',*,*,#282,.T.);
#434=ORIENTED_EDGE('',*,*,#326,.T.);
#435=ORIENTED_EDGE('',*,*,#335,.T.);
#436=ORIENTED_EDGE('',*,*,#336,.T.);
#437=ORIENTED_EDGE('',*,*,#337,.T.);
#438=ORIENTED_EDGE('',*,*,#337,.F.);
#439=ORIENTED_EDGE('',*,*,#338,.F.);
#440=ORIENTED_EDGE('',*,*,#339,.F.);
#441=ORIENTED_EDGE('',*,*,#327,.F.);
#442=ORIENTED_EDGE('',*,*,#340,.T.);
#443=ORIENTED_EDGE('',*,*,#341,.T.);
#444=ORIENTED_EDGE('',*,*,#328,.T.);
#445=ORIENTED_EDGE('',*,*,#339,.T.);
#446=ORIENTED_EDGE('',*,*,#330,.T.);
#447=ORIENTED_EDGE('',*,*,#342,.T.);
#448=ORIENTED_EDGE('',*,*,#343,.T.);
#449=ORIENTED_EDGE('',*,*,#323,.T.);
#450=ORIENTED_EDGE('',*,*,#320,.F.);
#451=ORIENTED_EDGE('',*,*,#324,.T.);
#452=ORIENTED_EDGE('',*,*,#343,.F.);
#453=ORIENTED_EDGE('',*,*,#344,.T.);
#454=ORIENTED_EDGE('',*,*,#340,.F.);
#455=ORIENTED_EDGE('',*,*,#338,.T.);
#456=ORIENTED_EDGE('',*,*,#336,.F.);
#457=ORIENTED_EDGE('',*,*,#345,.T.);
#458=ORIENTED_EDGE('',*,*,#284,.T.);
#459=ORIENTED_EDGE('',*,*,#287,.T.);
#460=ORIENTED_EDGE('',*,*,#290,.T.);
#461=ORIENTED_EDGE('',*,*,#293,.T.);
#462=ORIENTED_EDGE('',*,*,#346,.F.);
#463=ORIENTED_EDGE('',*,*,#347,.F.);
#464=ORIENTED_EDGE('',*,*,#348,.F.);
#465=ORIENTED_EDGE('',*,*,#349,.F.);
#466=ORIENTED_EDGE('',*,*,#348,.T.);
#467=ORIENTED_EDGE('',*,*,#350,.F.);
#468=ORIENTED_EDGE('',*,*,#334,.F.);
#469=ORIENTED_EDGE('',*,*,#351,.F.);
#470=ORIENTED_EDGE('',*,*,#315,.T.);
#471=ORIENTED_EDGE('',*,*,#311,.F.);
#472=ORIENTED_EDGE('',*,*,#308,.T.);
#473=ORIENTED_EDGE('',*,*,#304,.F.);
#474=ORIENTED_EDGE('',*,*,#316,.T.);
#475=ORIENTED_EDGE('',*,*,#302,.F.);
#476=ORIENTED_EDGE('',*,*,#298,.T.);
#477=ORIENTED_EDGE('',*,*,#294,.F.);
#478=ORIENTED_EDGE('',*,*,#347,.T.);
#479=ORIENTED_EDGE('',*,*,#352,.T.);
#480=ORIENTED_EDGE('',*,*,#331,.F.);
#481=ORIENTED_EDGE('',*,*,#350,.T.);
#482=ORIENTED_EDGE('',*,*,#341,.F.);
#483=ORIENTED_EDGE('',*,*,#344,.F.);
#484=ORIENTED_EDGE('',*,*,#342,.F.);
#485=ORIENTED_EDGE('',*,*,#329,.F.);
#486=ORIENTED_EDGE('',*,*,#346,.T.);
#487=ORIENTED_EDGE('',*,*,#353,.T.);
#488=ORIENTED_EDGE('',*,*,#332,.F.);
#489=ORIENTED_EDGE('',*,*,#352,.F.);
#490=ORIENTED_EDGE('',*,*,#349,.T.);
#491=ORIENTED_EDGE('',*,*,#351,.T.);
#492=ORIENTED_EDGE('',*,*,#333,.F.);
#493=ORIENTED_EDGE('',*,*,#353,.F.);
#494=ORIENTED_EDGE('',*,*,#321,.F.);
#495=ORIENTED_EDGE('',*,*,#345,.F.);
#496=ORIENTED_EDGE('',*,*,#335,.F.);
#497=ORIENTED_EDGE('',*,*,#325,.F.);
#498=CYLINDRICAL_SURFACE('',#531,1.45);
#499=CYLINDRICAL_SURFACE('',#534,1.45);
#500=CYLINDRICAL_SURFACE('',#537,1.45);
#501=CYLINDRICAL_SURFACE('',#540,1.45);
#502=ADVANCED_FACE('',(#65),#498,.F.);
#503=ADVANCED_FACE('',(#66),#499,.F.);
#504=ADVANCED_FACE('',(#67),#500,.F.);
#505=ADVANCED_FACE('',(#68),#501,.F.);
#506=ADVANCED_FACE('',(#69),#57,.T.);
#507=ADVANCED_FACE('',(#70),#26,.F.);
#508=ADVANCED_FACE('',(#71),#58,.T.);
#509=ADVANCED_FACE('',(#72),#59,.T.);
#510=ADVANCED_FACE('',(#73),#27,.F.);
#511=ADVANCED_FACE('',(#74),#60,.T.);
#512=ADVANCED_FACE('',(#75),#28,.F.);
#513=ADVANCED_FACE('',(#76),#29,.F.);
#514=ADVANCED_FACE('',(#77),#61,.F.);
#515=ADVANCED_FACE('',(#78,#15),#30,.T.);
#516=ADVANCED_FACE('',(#79,#16,#17,#18,#19,#20),#31,.T.);
#517=ADVANCED_FACE('',(#80),#62,.F.);
#518=ADVANCED_FACE('',(#81),#32,.T.);
#519=ADVANCED_FACE('',(#82),#63,.F.);
#520=ADVANCED_FACE('',(#83),#64,.F.);
#521=ADVANCED_FACE('',(#84,#21,#22,#23,#24),#33,.T.);
#522=ADVANCED_FACE('',(#85),#34,.T.);
#523=ADVANCED_FACE('',(#86,#25),#35,.T.);
#524=ADVANCED_FACE('',(#87),#36,.T.);
#525=ADVANCED_FACE('',(#88),#37,.T.);
#526=ADVANCED_FACE('',(#89),#38,.T.);
#527=ADVANCED_FACE('',(#90),#39,.T.);
#528=ADVANCED_FACE('',(#91),#40,.T.);
#529=CLOSED_SHELL('',(#502,#503,#504,#505,#506,#507,#508,#509,#510,#511,
#512,#513,#514,#515,#516,#517,#518,#519,#520,#521,#522,#523,#524,#525,#526,
#527,#528));
#530=AXIS2_PLACEMENT_3D('',#662,#558,#559);
#531=AXIS2_PLACEMENT_3D('',#663,#560,#561);
#532=AXIS2_PLACEMENT_3D('',#665,#562,#563);
#533=AXIS2_PLACEMENT_3D('',#668,#565,#566);
#534=AXIS2_PLACEMENT_3D('',#669,#567,#568);
#535=AXIS2_PLACEMENT_3D('',#671,#569,#570);
#536=AXIS2_PLACEMENT_3D('',#674,#572,#573);
#537=AXIS2_PLACEMENT_3D('',#675,#574,#575);
#538=AXIS2_PLACEMENT_3D('',#677,#576,#577);
#539=AXIS2_PLACEMENT_3D('',#680,#579,#580);
#540=AXIS2_PLACEMENT_3D('',#681,#581,#582);
#541=AXIS2_PLACEMENT_3D('',#683,#583,#584);
#542=AXIS2_PLACEMENT_3D('',#686,#586,#587);
#543=AXIS2_PLACEMENT_3D('',#777,#590,#591);
#544=AXIS2_PLACEMENT_3D('',#960,#598,#599);
#545=AXIS2_PLACEMENT_3D('',#1053,#604,#605);
#546=AXIS2_PLACEMENT_3D('',#1056,#608,#609);
#547=AXIS2_PLACEMENT_3D('',#1149,#614,#615);
#548=AXIS2_PLACEMENT_3D('',#1155,#619,#620);
#549=AXIS2_PLACEMENT_3D('',#1304,#630,#631);
#550=AXIS2_PLACEMENT_3D('',#1436,#636,#637);
#551=AXIS2_PLACEMENT_3D('',#1439,#640,#641);
#552=AXIS2_PLACEMENT_3D('',#1448,#646,#647);
#553=AXIS2_PLACEMENT_3D('',#1451,#650,#651);
#554=AXIS2_PLACEMENT_3D('',#1453,#653,#654);
#555=AXIS2_PLACEMENT_3D('',#1454,#655,#656);
#556=AXIS2_PLACEMENT_3D('',#1456,#658,#659);
#557=AXIS2_PLACEMENT_3D('',#1457,#660,#661);
#558=DIRECTION('axis',(0.,0.,1.));
#559=DIRECTION('refdir',(1.,0.,0.));
#560=DIRECTION('center_axis',(0.,0.,-1.));
#561=DIRECTION('ref_axis',(-1.,0.,0.));
#562=DIRECTION('center_axis',(0.,0.,-1.));
#563=DIRECTION('ref_axis',(-1.,0.,0.));
#564=DIRECTION('',(0.,0.,-1.));
#565=DIRECTION('center_axis',(0.,0.,1.));
#566=DIRECTION('ref_axis',(-1.,0.,0.));
#567=DIRECTION('center_axis',(0.,0.,-1.));
#568=DIRECTION('ref_axis',(-1.,0.,0.));
#569=DIRECTION('center_axis',(0.,0.,-1.));
#570=DIRECTION('ref_axis',(-1.,0.,0.));
#571=DIRECTION('',(0.,0.,-1.));
#572=DIRECTION('center_axis',(0.,0.,1.));
#573=DIRECTION('ref_axis',(-1.,0.,0.));
#574=DIRECTION('center_axis',(0.,0.,-1.));
#575=DIRECTION('ref_axis',(-1.,0.,0.));
#576=DIRECTION('center_axis',(0.,0.,-1.));
#577=DIRECTION('ref_axis',(-1.,0.,0.));
#578=DIRECTION('',(0.,0.,-1.));
#579=DIRECTION('center_axis',(0.,0.,1.));
#580=DIRECTION('ref_axis',(-1.,0.,0.));
#581=DIRECTION('center_axis',(0.,0.,-1.));
#582=DIRECTION('ref_axis',(-1.,0.,0.));
#583=DIRECTION('center_axis',(0.,0.,-1.));
#584=DIRECTION('ref_axis',(-1.,0.,0.));
#585=DIRECTION('',(0.,0.,-1.));
#586=DIRECTION('center_axis',(0.,0.,1.));
#587=DIRECTION('ref_axis',(-1.,0.,0.));
#588=DIRECTION('',(1.,0.,0.));
#589=DIRECTION('',(-1.,0.,0.));
#590=DIRECTION('center_axis',(0.,0.,-1.));
#591=DIRECTION('ref_axis',(0.,-1.,0.));
#592=DIRECTION('',(0.,1.,0.));
#593=DIRECTION('',(-1.,0.,0.));
#594=DIRECTION('',(0.,-1.,0.));
#595=DIRECTION('',(1.,0.,0.));
#596=DIRECTION('',(1.,0.,0.));
#597=DIRECTION('',(-1.,0.,0.));
#598=DIRECTION('center_axis',(0.,0.,1.));
#599=DIRECTION('ref_axis',(0.,1.,0.));
#600=DIRECTION('',(0.,-1.,0.));
#601=DIRECTION('',(-1.,0.,0.));
#602=DIRECTION('',(0.,1.,0.));
#603=DIRECTION('',(1.,0.,0.));
#604=DIRECTION('center_axis',(0.,1.,0.));
#605=DIRECTION('ref_axis',(0.,0.,-1.));
#606=DIRECTION('',(0.,0.,-1.));
#607=DIRECTION('',(0.,0.,1.));
#608=DIRECTION('center_axis',(0.,-1.,0.));
#609=DIRECTION('ref_axis',(0.,0.,1.));
#610=DIRECTION('',(0.,0.,-1.));
#611=DIRECTION('',(0.,0.,1.));
#612=DIRECTION('',(0.,0.,-1.));
#613=DIRECTION('',(0.,0.,1.));
#614=DIRECTION('center_axis',(1.,0.,0.));
#615=DIRECTION('ref_axis',(0.,-1.,0.));
#616=DIRECTION('',(0.,1.,0.));
#617=DIRECTION('',(0.,0.,1.));
#618=DIRECTION('',(0.,-1.,0.));
#619=DIRECTION('center_axis',(0.,0.,1.));
#620=DIRECTION('ref_axis',(1.,0.,0.));
#621=DIRECTION('',(-1.,0.,0.));
#622=DIRECTION('',(0.,-1.,0.));
#623=DIRECTION('',(1.,0.,0.));
#624=DIRECTION('',(-1.,0.,0.));
#625=DIRECTION('',(0.,1.,0.));
#626=DIRECTION('',(1.,0.,0.));
#627=DIRECTION('',(0.,-1.,0.));
#628=DIRECTION('',(0.,0.,-1.));
#629=DIRECTION('',(0.,0.,1.));
#630=DIRECTION('center_axis',(-1.,0.,0.));
#631=DIRECTION('ref_axis',(0.,1.,0.));
#632=DIRECTION('',(0.,1.,0.));
#633=DIRECTION('',(0.,0.,-1.));
#634=DIRECTION('',(0.,0.,1.));
#635=DIRECTION('',(0.,0.,-1.));
#636=DIRECTION('center_axis',(0.,0.,-1.));
#637=DIRECTION('ref_axis',(-1.,0.,0.));
#638=DIRECTION('',(-1.,0.,0.));
#639=DIRECTION('',(1.,0.,0.));
#640=DIRECTION('center_axis',(0.,0.,1.));
#641=DIRECTION('ref_axis',(1.,0.,0.));
#642=DIRECTION('',(0.,1.,0.));
#643=DIRECTION('',(-1.,0.,0.));
#644=DIRECTION('',(0.,-1.,0.));
#645=DIRECTION('',(1.,0.,0.));
#646=DIRECTION('center_axis',(-1.,0.,0.));
#647=DIRECTION('ref_axis',(0.,1.,0.));
#648=DIRECTION('',(0.,0.,-1.));
#649=DIRECTION('',(0.,0.,1.));
#650=DIRECTION('center_axis',(0.,1.,0.));
#651=DIRECTION('ref_axis',(1.,0.,0.));
#652=DIRECTION('',(0.,0.,1.));
#653=DIRECTION('center_axis',(0.,-1.,0.));
#654=DIRECTION('ref_axis',(-1.,0.,0.));
#655=DIRECTION('center_axis',(1.,0.,0.));
#656=DIRECTION('ref_axis',(0.,-1.,0.));
#657=DIRECTION('',(0.,0.,1.));
#658=DIRECTION('center_axis',(0.,-1.,0.));
#659=DIRECTION('ref_axis',(-1.,0.,0.));
#660=DIRECTION('center_axis',(0.,1.,0.));
#661=DIRECTION('ref_axis',(1.,0.,0.));
#662=CARTESIAN_POINT('',(0.,0.,0.));
#663=CARTESIAN_POINT('Origin',(154.904795779305,-153.728597054853,15.));
#664=CARTESIAN_POINT('',(156.354795779305,-153.728597054853,12.));
#665=CARTESIAN_POINT('Origin',(154.904795779305,-153.728597054853,12.));
#666=CARTESIAN_POINT('',(156.354795779305,-153.728597054853,-9.));
#667=CARTESIAN_POINT('',(156.354795779305,-153.728597054853,15.));
#668=CARTESIAN_POINT('Origin',(154.904795779305,-153.728597054853,-9.));
#669=CARTESIAN_POINT('Origin',(154.904795779305,-48.1473547300369,15.));
#670=CARTESIAN_POINT('',(156.354795779305,-48.1473547300369,12.));
#671=CARTESIAN_POINT('Origin',(154.904795779305,-48.1473547300369,12.));
#672=CARTESIAN_POINT('',(156.354795779305,-48.1473547300369,-9.));
#673=CARTESIAN_POINT('',(156.354795779305,-48.1473547300369,15.));
#674=CARTESIAN_POINT('Origin',(154.904795779305,-48.1473547300369,-9.));
#675=CARTESIAN_POINT('Origin',(238.826566600152,-153.728597054853,15.));
#676=CARTESIAN_POINT('',(240.276566600152,-153.728597054853,12.));
#677=CARTESIAN_POINT('Origin',(238.826566600152,-153.728597054853,12.));
#678=CARTESIAN_POINT('',(240.276566600152,-153.728597054853,-9.));
#679=CARTESIAN_POINT('',(240.276566600152,-153.728597054853,15.));
#680=CARTESIAN_POINT('Origin',(238.826566600152,-153.728597054853,-9.));
#681=CARTESIAN_POINT('Origin',(238.826566600152,-48.1473547300369,15.));
#682=CARTESIAN_POINT('',(240.276566600152,-48.1473547300369,12.));
#683=CARTESIAN_POINT('Origin',(238.826566600152,-48.1473547300369,12.));
#684=CARTESIAN_POINT('',(240.276566600152,-48.1473547300369,-9.));
#685=CARTESIAN_POINT('',(240.276566600152,-48.1473547300369,15.));
#686=CARTESIAN_POINT('Origin',(238.826566600152,-48.1473547300369,-9.));
#687=CARTESIAN_POINT('Ctrl Pts',(236.826566600152,-57.0511597547171,3.65901525104934));
#688=CARTESIAN_POINT('Ctrl Pts',(238.493233266819,-57.0511597547171,3.65901525104934));
#689=CARTESIAN_POINT('Ctrl Pts',(240.159899933486,-57.0511597547171,3.65901525104934));
#690=CARTESIAN_POINT('Ctrl Pts',(241.826566600152,-57.0511597547171,3.65901525104934));
#691=CARTESIAN_POINT('Ctrl Pts',(236.826566600152,-57.0511597547171,3.58421542596387));
#692=CARTESIAN_POINT('Ctrl Pts',(238.493233266819,-57.0511597547171,3.58421542596387));
#693=CARTESIAN_POINT('Ctrl Pts',(240.159899933486,-57.0511597547171,3.58421542596387));
#694=CARTESIAN_POINT('Ctrl Pts',(241.826566600152,-57.0511597547171,3.58421542596387));
#695=CARTESIAN_POINT('Ctrl Pts',(236.826566600152,-57.0519214609931,3.43619853861154));
#696=CARTESIAN_POINT('Ctrl Pts',(238.493233266819,-57.0519214609931,3.43619853861154));
#697=CARTESIAN_POINT('Ctrl Pts',(240.159899933486,-57.0519214609931,3.43619853861154));
#698=CARTESIAN_POINT('Ctrl Pts',(241.826566600152,-57.0519214609931,3.43619853861154));
#699=CARTESIAN_POINT('Ctrl Pts',(236.826566600152,-57.1010942709448,3.2158563853978));
#700=CARTESIAN_POINT('Ctrl Pts',(238.493233266819,-57.1010942709448,3.2158563853978));
#701=CARTESIAN_POINT('Ctrl Pts',(240.159899933486,-57.1010942709448,3.2158563853978));
#702=CARTESIAN_POINT('Ctrl Pts',(241.826566600152,-57.1010942709448,3.2158563853978));
#703=CARTESIAN_POINT('Ctrl Pts',(236.826566600152,-57.2187593437693,3.00560737007839));
#704=CARTESIAN_POINT('Ctrl Pts',(238.493233266819,-57.2187593437693,3.00560737007839));
#705=CARTESIAN_POINT('Ctrl Pts',(240.159899933486,-57.2187593437693,3.00560737007839));
#706=CARTESIAN_POINT('Ctrl Pts',(241.826566600152,-57.2187593437693,3.00560737007839));
#707=CARTESIAN_POINT('Ctrl Pts',(236.826566600152,-57.3977509969796,2.82651853855052));
#708=CARTESIAN_POINT('Ctrl Pts',(238.493233266819,-57.3977509969796,2.82651853855052));
#709=CARTESIAN_POINT('Ctrl Pts',(240.159899933486,-57.3977509969796,2.82651853855052));
#710=CARTESIAN_POINT('Ctrl Pts',(241.826566600152,-57.3977509969796,2.82651853855052));
#711=CARTESIAN_POINT('Ctrl Pts',(236.826566600152,-57.607921970543,2.70913512767925));
#712=CARTESIAN_POINT('Ctrl Pts',(238.493233266819,-57.607921970543,2.70913512767925));
#713=CARTESIAN_POINT('Ctrl Pts',(240.159899933486,-57.607921970543,2.70913512767925));
#714=CARTESIAN_POINT('Ctrl Pts',(241.826566600152,-57.607921970543,2.70913512767925));
#715=CARTESIAN_POINT('Ctrl Pts',(236.826566600152,-57.8283629792644,2.65969460416767));
#716=CARTESIAN_POINT('Ctrl Pts',(238.493233266819,-57.8283629792644,2.65969460416767));
#717=CARTESIAN_POINT('Ctrl Pts',(240.159899933486,-57.8283629792644,2.65969460416767));
#718=CARTESIAN_POINT('Ctrl Pts',(241.826566600152,-57.8283629792644,2.65969460416767));
#719=CARTESIAN_POINT('Ctrl Pts',(236.826566600152,-57.9763599296316,2.65901525104934));
#720=CARTESIAN_POINT('Ctrl Pts',(238.493233266819,-57.9763599296316,2.65901525104934));
#721=CARTESIAN_POINT('Ctrl Pts',(240.159899933486,-57.9763599296316,2.65901525104934));
#722=CARTESIAN_POINT('Ctrl Pts',(241.826566600152,-57.9763599296316,2.65901525104934));
#723=CARTESIAN_POINT('Ctrl Pts',(236.826566600152,-58.0511597547171,2.65901525104934));
#724=CARTESIAN_POINT('Ctrl Pts',(238.493233266819,-58.0511597547171,2.65901525104934));
#725=CARTESIAN_POINT('Ctrl Pts',(240.159899933486,-58.0511597547171,2.65901525104934));
#726=CARTESIAN_POINT('Ctrl Pts',(241.826566600152,-58.0511597547171,2.65901525104934));
#727=CARTESIAN_POINT('',(236.826566600152,-57.0511597547171,3.65901525104934));
#728=CARTESIAN_POINT('',(236.826566600152,-58.0511597547171,2.65901525104934));
#729=CARTESIAN_POINT('Ctrl Pts',(236.826566600152,-57.0511597547171,3.65901525104934));
#730=CARTESIAN_POINT('Ctrl Pts',(236.826566600152,-57.0511597547171,3.58421542596387));
#731=CARTESIAN_POINT('Ctrl Pts',(236.826566600152,-57.0515406078551,3.5102069822877));
#732=CARTESIAN_POINT('Ctrl Pts',(236.826566600152,-57.0599265027494,3.43647906824733));
#733=CARTESIAN_POINT('Ctrl Pts',(236.826566600152,-57.0683123976437,3.36275115420696));
#734=CARTESIAN_POINT('Ctrl Pts',(236.826566600152,-57.0847033342942,3.28930376980238));
#735=CARTESIAN_POINT('Ctrl Pts',(236.826566600152,-57.1125096480903,3.21753857504686));
#736=CARTESIAN_POINT('Ctrl Pts',(236.826566600152,-57.1403159618863,3.14577338029133));
#737=CARTESIAN_POINT('Ctrl Pts',(236.826566600152,-57.1795376528278,3.07569037518486));
#738=CARTESIAN_POINT('Ctrl Pts',(236.826566600152,-57.2289804405003,3.01080073404365));
#739=CARTESIAN_POINT('Ctrl Pts',(236.826566600152,-57.2784232281727,2.94591109290243));
#740=CARTESIAN_POINT('Ctrl Pts',(236.826566600152,-57.3380871125761,2.88621481572648));
#741=CARTESIAN_POINT('Ctrl Pts',(236.826566600152,-57.4029475503718,2.83680277532662));
#742=CARTESIAN_POINT('Ctrl Pts',(236.826566600152,-57.4678079881674,2.78739073492676));
#743=CARTESIAN_POINT('Ctrl Pts',(236.826566600152,-57.5378649793552,2.748262931303));
#744=CARTESIAN_POINT('Ctrl Pts',(236.826566600152,-57.6096336430694,2.72045894223919));
#745=CARTESIAN_POINT('Ctrl Pts',(236.826566600152,-57.6814023067835,2.69265495317539));
#746=CARTESIAN_POINT('Ctrl Pts',(236.826566600152,-57.7548826430239,2.67617477867153));
#747=CARTESIAN_POINT('Ctrl Pts',(236.826566600152,-57.828622048736,2.66776485314002));
#748=CARTESIAN_POINT('Ctrl Pts',(236.826566600152,-57.902361454448,2.65935492760851));
#749=CARTESIAN_POINT('Ctrl Pts',(236.826566600152,-57.9763599296316,2.65901525104934));
#750=CARTESIAN_POINT('Ctrl Pts',(236.826566600152,-58.0511597547171,2.65901525104934));
#751=CARTESIAN_POINT('',(241.826566600152,-58.0511597547171,2.65901525104934));
#752=CARTESIAN_POINT('',(241.826566600152,-58.0511597547171,2.65901525104934));
#753=CARTESIAN_POINT('',(241.826566600152,-57.0511597547171,3.65901525104934));
#754=CARTESIAN_POINT('Ctrl Pts',(241.826566600152,-58.0511597547171,2.65901525104934));
#755=CARTESIAN_POINT('Ctrl Pts',(241.826566600152,-57.9763599296316,2.65901525104934));
#756=CARTESIAN_POINT('Ctrl Pts',(241.826566600152,-57.902361454448,2.65935492760851));
#757=CARTESIAN_POINT('Ctrl Pts',(241.826566600152,-57.828622048736,2.66776485314002));
#758=CARTESIAN_POINT('Ctrl Pts',(241.826566600152,-57.7548826430239,2.67617477867153));
#759=CARTESIAN_POINT('Ctrl Pts',(241.826566600152,-57.6814023067835,2.69265495317539));
#760=CARTESIAN_POINT('Ctrl Pts',(241.826566600152,-57.6096336430694,2.72045894223919));
#761=CARTESIAN_POINT('Ctrl Pts',(241.826566600152,-57.5378649793552,2.748262931303));
#762=CARTESIAN_POINT('Ctrl Pts',(241.826566600152,-57.4678079881674,2.78739073492676));
#763=CARTESIAN_POINT('Ctrl Pts',(241.826566600152,-57.4029475503718,2.83680277532662));
#764=CARTESIAN_POINT('Ctrl Pts',(241.826566600152,-57.3380871125761,2.88621481572648));
#765=CARTESIAN_POINT('Ctrl Pts',(241.826566600152,-57.2784232281727,2.94591109290243));
#766=CARTESIAN_POINT('Ctrl Pts',(241.826566600152,-57.2289804405003,3.01080073404365));
#767=CARTESIAN_POINT('Ctrl Pts',(241.826566600152,-57.1795376528278,3.07569037518486));
#768=CARTESIAN_POINT('Ctrl Pts',(241.826566600152,-57.1403159618863,3.14577338029133));
#769=CARTESIAN_POINT('Ctrl Pts',(241.826566600152,-57.1125096480903,3.21753857504686));
#770=CARTESIAN_POINT('Ctrl Pts',(241.826566600152,-57.0847033342942,3.28930376980238));
#771=CARTESIAN_POINT('Ctrl Pts',(241.826566600152,-57.0683123976437,3.36275115420696));
#772=CARTESIAN_POINT('Ctrl Pts',(241.826566600152,-57.0599265027494,3.43647906824733));
#773=CARTESIAN_POINT('Ctrl Pts',(241.826566600152,-57.0515406078551,3.5102069822877));
#774=CARTESIAN_POINT('Ctrl Pts',(241.826566600152,-57.0511597547171,3.58421542596387));
#775=CARTESIAN_POINT('Ctrl Pts',(241.826566600152,-57.0511597547171,3.65901525104934));
#776=CARTESIAN_POINT('',(241.826566600152,-57.0511597547171,3.65901525104934));
#777=CARTESIAN_POINT('Origin',(241.826566600152,-57.0511597547171,2.65901525104934));
#778=CARTESIAN_POINT('',(236.826566600152,-66.8463520690315,2.65901525104934));
#779=CARTESIAN_POINT('',(236.826566600152,-104.389878404785,2.65901525104934));
#780=CARTESIAN_POINT('',(241.826566600152,-66.8463520690315,2.65901525104934));
#781=CARTESIAN_POINT('',(241.826566600152,-66.8463520690315,2.65901525104934));
#782=CARTESIAN_POINT('',(241.826566600152,-51.099257242377,2.65901525104934));
#783=CARTESIAN_POINT('Ctrl Pts',(241.826566600152,-67.8463520690315,3.65901525104934));
#784=CARTESIAN_POINT('Ctrl Pts',(240.159899933486,-67.8463520690315,3.65901525104934));
#785=CARTESIAN_POINT('Ctrl Pts',(238.493233266819,-67.8463520690315,3.65901525104934));
#786=CARTESIAN_POINT('Ctrl Pts',(236.826566600152,-67.8463520690315,3.65901525104934));
#787=CARTESIAN_POINT('Ctrl Pts',(241.826566600152,-67.8463520690315,3.58421542596387));
#788=CARTESIAN_POINT('Ctrl Pts',(240.159899933486,-67.8463520690315,3.58421542596387));
#789=CARTESIAN_POINT('Ctrl Pts',(238.493233266819,-67.8463520690315,3.58421542596387));
#790=CARTESIAN_POINT('Ctrl Pts',(236.826566600152,-67.8463520690315,3.58421542596387));
#791=CARTESIAN_POINT('Ctrl Pts',(241.826566600152,-67.8455903512293,3.43619855446821));
#792=CARTESIAN_POINT('Ctrl Pts',(240.159899933486,-67.8455903512293,3.43619855446821));
#793=CARTESIAN_POINT('Ctrl Pts',(238.493233266819,-67.8455903512293,3.43619855446821));
#794=CARTESIAN_POINT('Ctrl Pts',(236.826566600152,-67.8455903512293,3.43619855446821));
#795=CARTESIAN_POINT('Ctrl Pts',(241.826566600152,-67.7964175536386,3.21585641441309));
#796=CARTESIAN_POINT('Ctrl Pts',(240.159899933486,-67.7964175536386,3.21585641441309));
#797=CARTESIAN_POINT('Ctrl Pts',(238.493233266819,-67.7964175536386,3.21585641441309));
#798=CARTESIAN_POINT('Ctrl Pts',(236.826566600152,-67.7964175536386,3.21585641441309));
#799=CARTESIAN_POINT('Ctrl Pts',(241.826566600152,-67.6787524715937,3.00560741035293));
#800=CARTESIAN_POINT('Ctrl Pts',(240.159899933486,-67.6787524715937,3.00560741035293));
#801=CARTESIAN_POINT('Ctrl Pts',(238.493233266819,-67.6787524715937,3.00560741035293));
#802=CARTESIAN_POINT('Ctrl Pts',(236.826566600152,-67.6787524715937,3.00560741035293));
#803=CARTESIAN_POINT('Ctrl Pts',(241.826566600152,-67.4997608339391,2.82651858723862));
#804=CARTESIAN_POINT('Ctrl Pts',(240.159899933486,-67.4997608339391,2.82651858723862));
#805=CARTESIAN_POINT('Ctrl Pts',(238.493233266819,-67.4997608339391,2.82651858723862));
#806=CARTESIAN_POINT('Ctrl Pts',(236.826566600152,-67.4997608339391,2.82651858723862));
#807=CARTESIAN_POINT('Ctrl Pts',(241.826566600152,-67.2895898750509,2.70913519527916));
#808=CARTESIAN_POINT('Ctrl Pts',(240.159899933486,-67.2895898750509,2.70913519527916));
#809=CARTESIAN_POINT('Ctrl Pts',(238.493233266819,-67.2895898750509,2.70913519527916));
#810=CARTESIAN_POINT('Ctrl Pts',(236.826566600152,-67.2895898750509,2.70913519527916));
#811=CARTESIAN_POINT('Ctrl Pts',(241.826566600152,-67.0691488582729,2.65969464857761));
#812=CARTESIAN_POINT('Ctrl Pts',(240.159899933486,-67.0691488582729,2.65969464857761));
#813=CARTESIAN_POINT('Ctrl Pts',(238.493233266819,-67.0691488582729,2.65969464857761));
#814=CARTESIAN_POINT('Ctrl Pts',(236.826566600152,-67.0691488582729,2.65969464857761));
#815=CARTESIAN_POINT('Ctrl Pts',(241.826566600152,-66.9211518941169,2.65901525104934));
#816=CARTESIAN_POINT('Ctrl Pts',(240.159899933486,-66.9211518941169,2.65901525104934));
#817=CARTESIAN_POINT('Ctrl Pts',(238.493233266819,-66.9211518941169,2.65901525104934));
#818=CARTESIAN_POINT('Ctrl Pts',(236.826566600152,-66.9211518941169,2.65901525104934));
#819=CARTESIAN_POINT('Ctrl Pts',(241.826566600152,-66.8463520690315,2.65901525104934));
#820=CARTESIAN_POINT('Ctrl Pts',(240.159899933486,-66.8463520690315,2.65901525104934));
#821=CARTESIAN_POINT('Ctrl Pts',(238.493233266819,-66.8463520690315,2.65901525104934));
#822=CARTESIAN_POINT('Ctrl Pts',(236.826566600152,-66.8463520690315,2.65901525104934));
#823=CARTESIAN_POINT('',(241.826566600152,-67.8463520690315,3.65901525104934));
#824=CARTESIAN_POINT('Ctrl Pts',(241.826566600152,-67.8463520690315,3.65901525104934));
#825=CARTESIAN_POINT('Ctrl Pts',(241.826566600152,-67.8463520690315,3.58421542596387));
#826=CARTESIAN_POINT('Ctrl Pts',(241.826566600152,-67.8459712101304,3.51020699021604));
#827=CARTESIAN_POINT('Ctrl Pts',(241.826566600152,-67.8375853144147,3.43647908233294));
#828=CARTESIAN_POINT('Ctrl Pts',(241.826566600152,-67.829199418699,3.36275117444984));
#829=CARTESIAN_POINT('Ctrl Pts',(241.826566600152,-67.8128084861688,3.28930379443146));
#830=CARTESIAN_POINT('Ctrl Pts',(241.826566600152,-67.7850021728962,3.21753860374559));
#831=CARTESIAN_POINT('Ctrl Pts',(241.826566600152,-67.7571958596236,3.14577341305971));
#832=CARTESIAN_POINT('Ctrl Pts',(241.826566600152,-67.7179741656087,3.07569041170632));
#833=CARTESIAN_POINT('Ctrl Pts',(241.826566600152,-67.6685313789921,3.01080077384391));
#834=CARTESIAN_POINT('Ctrl Pts',(241.826566600152,-67.6190885923755,2.94591113598149));
#835=CARTESIAN_POINT('Ctrl Pts',(241.826566600152,-67.5594247131573,2.88621486161006));
#836=CARTESIAN_POINT('Ctrl Pts',(241.826566600152,-67.4945642804002,2.83680282576443));
#837=CARTESIAN_POINT('Ctrl Pts',(241.826566600152,-67.4297038476431,2.7873907899188));
#838=CARTESIAN_POINT('Ctrl Pts',(241.826566600152,-67.359646861347,2.74826299259898));
#839=CARTESIAN_POINT('Ctrl Pts',(241.826566600152,-67.287878198736,2.72045900282214));
#840=CARTESIAN_POINT('Ctrl Pts',(241.826566600152,-67.2161095361249,2.69265501304531));
#841=CARTESIAN_POINT('Ctrl Pts',(241.826566600152,-67.1426291971989,2.67617483081146));
#842=CARTESIAN_POINT('Ctrl Pts',(241.826566600152,-67.0688897866969,2.66776489031247));
#843=CARTESIAN_POINT('Ctrl Pts',(241.826566600152,-66.9951503761949,2.65935494981348));
#844=CARTESIAN_POINT('Ctrl Pts',(241.826566600152,-66.9211518941169,2.65901525104934));
#845=CARTESIAN_POINT('Ctrl Pts',(241.826566600152,-66.8463520690315,2.65901525104934));
#846=CARTESIAN_POINT('',(236.826566600152,-67.8463520690314,3.65901525104934));
#847=CARTESIAN_POINT('Ctrl Pts',(236.826566600152,-66.8463520690315,2.65901525104934));
#848=CARTESIAN_POINT('Ctrl Pts',(236.826566600152,-66.9211518941169,2.65901525104934));
#849=CARTESIAN_POINT('Ctrl Pts',(236.826566600152,-66.9951503761949,2.65935494981348));
#850=CARTESIAN_POINT('Ctrl Pts',(236.826566600152,-67.0688897866969,2.66776489031247));
#851=CARTESIAN_POINT('Ctrl Pts',(236.826566600152,-67.1426291971989,2.67617483081146));
#852=CARTESIAN_POINT('Ctrl Pts',(236.826566600152,-67.2161095361249,2.69265501304531));
#853=CARTESIAN_POINT('Ctrl Pts',(236.826566600152,-67.287878198736,2.72045900282214));
#854=CARTESIAN_POINT('Ctrl Pts',(236.826566600152,-67.359646861347,2.74826299259898));
#855=CARTESIAN_POINT('Ctrl Pts',(236.826566600152,-67.4297038476431,2.7873907899188));
#856=CARTESIAN_POINT('Ctrl Pts',(236.826566600152,-67.4945642804002,2.83680282576443));
#857=CARTESIAN_POINT('Ctrl Pts',(236.826566600152,-67.5594247131573,2.88621486161006));
#858=CARTESIAN_POINT('Ctrl Pts',(236.826566600152,-67.6190885923755,2.94591113598149));
#859=CARTESIAN_POINT('Ctrl Pts',(236.826566600152,-67.6685313789921,3.01080077384391));
#860=CARTESIAN_POINT('Ctrl Pts',(236.826566600152,-67.7179741656087,3.07569041170632));
#861=CARTESIAN_POINT('Ctrl Pts',(236.826566600152,-67.7571958596236,3.14577341305971));
#862=CARTESIAN_POINT('Ctrl Pts',(236.826566600152,-67.7850021728962,3.21753860374559));
#863=CARTESIAN_POINT('Ctrl Pts',(236.826566600152,-67.8128084861688,3.28930379443146));
#864=CARTESIAN_POINT('Ctrl Pts',(236.826566600152,-67.829199418699,3.36275117444984));
#865=CARTESIAN_POINT('Ctrl Pts',(236.826566600152,-67.8375853144147,3.43647908233294));
#866=CARTESIAN_POINT('Ctrl Pts',(236.826566600152,-67.8459712101304,3.51020699021604));
#867=CARTESIAN_POINT('Ctrl Pts',(236.826566600152,-67.8463520690315,3.58421542596387));
#868=CARTESIAN_POINT('Ctrl Pts',(236.826566600152,-67.8463520690315,3.65901525104934));
#869=CARTESIAN_POINT('',(241.826566600152,-67.8463520690315,3.65901525104934));
#870=CARTESIAN_POINT('Ctrl Pts',(236.826566600152,-67.8463520690315,6.03544456766328));
#871=CARTESIAN_POINT('Ctrl Pts',(238.493233266819,-67.8463520690315,6.03544456766328));
#872=CARTESIAN_POINT('Ctrl Pts',(240.159899933486,-67.8463520690315,6.03544456766328));
#873=CARTESIAN_POINT('Ctrl Pts',(241.826566600152,-67.8463520690315,6.03544456766328));
#874=CARTESIAN_POINT('Ctrl Pts',(236.826566600152,-67.8463520690315,6.11024439274875));
#875=CARTESIAN_POINT('Ctrl Pts',(238.493233266819,-67.8463520690315,6.11024439274875));
#876=CARTESIAN_POINT('Ctrl Pts',(240.159899933486,-67.8463520690315,6.11024439274875));
#877=CARTESIAN_POINT('Ctrl Pts',(241.826566600152,-67.8463520690315,6.11024439274875));
#878=CARTESIAN_POINT('Ctrl Pts',(236.826566600152,-67.8455903483087,6.25826126020636));
#879=CARTESIAN_POINT('Ctrl Pts',(238.493233266819,-67.8455903483087,6.25826126020636));
#880=CARTESIAN_POINT('Ctrl Pts',(240.159899933486,-67.8455903483087,6.25826126020636));
#881=CARTESIAN_POINT('Ctrl Pts',(241.826566600152,-67.8455903483087,6.25826126020636));
#882=CARTESIAN_POINT('Ctrl Pts',(236.826566600152,-67.7964175538512,6.47860339692132));
#883=CARTESIAN_POINT('Ctrl Pts',(238.493233266819,-67.7964175538512,6.47860339692132));
#884=CARTESIAN_POINT('Ctrl Pts',(240.159899933486,-67.7964175538512,6.47860339692132));
#885=CARTESIAN_POINT('Ctrl Pts',(241.826566600152,-67.7964175538512,6.47860339692132));
#886=CARTESIAN_POINT('Ctrl Pts',(236.826566600152,-67.6787524694714,6.68885239811477));
#887=CARTESIAN_POINT('Ctrl Pts',(238.493233266819,-67.6787524694714,6.68885239811477));
#888=CARTESIAN_POINT('Ctrl Pts',(240.159899933485,-67.6787524694714,6.68885239811477));
#889=CARTESIAN_POINT('Ctrl Pts',(241.826566600152,-67.6787524694714,6.68885239811477));
#890=CARTESIAN_POINT('Ctrl Pts',(236.826566600152,-67.4997608357602,6.86794121909945));
#891=CARTESIAN_POINT('Ctrl Pts',(238.493233266819,-67.4997608357602,6.86794121909945));
#892=CARTESIAN_POINT('Ctrl Pts',(240.159899933486,-67.4997608357602,6.86794121909945));
#893=CARTESIAN_POINT('Ctrl Pts',(241.826566600152,-67.4997608357602,6.86794121909945));
#894=CARTESIAN_POINT('Ctrl Pts',(236.826566600152,-67.2895898805922,6.98532460626796));
#895=CARTESIAN_POINT('Ctrl Pts',(238.493233266819,-67.2895898805922,6.98532460626796));
#896=CARTESIAN_POINT('Ctrl Pts',(240.159899933486,-67.2895898805922,6.98532460626796));
#897=CARTESIAN_POINT('Ctrl Pts',(241.826566600152,-67.2895898805922,6.98532460626796));
#898=CARTESIAN_POINT('Ctrl Pts',(236.826566600152,-67.069148861771,7.03476515885555));
#899=CARTESIAN_POINT('Ctrl Pts',(238.493233266819,-67.069148861771,7.03476515885555));
#900=CARTESIAN_POINT('Ctrl Pts',(240.159899933485,-67.069148861771,7.03476515885555));
#901=CARTESIAN_POINT('Ctrl Pts',(241.826566600152,-67.069148861771,7.03476515885555));
#902=CARTESIAN_POINT('Ctrl Pts',(236.826566600152,-66.9211518941169,7.03544456766327));
#903=CARTESIAN_POINT('Ctrl Pts',(238.493233266819,-66.9211518941169,7.03544456766327));
#904=CARTESIAN_POINT('Ctrl Pts',(240.159899933486,-66.9211518941169,7.03544456766327));
#905=CARTESIAN_POINT('Ctrl Pts',(241.826566600152,-66.9211518941169,7.03544456766327));
#906=CARTESIAN_POINT('Ctrl Pts',(236.826566600152,-66.8463520690315,7.03544456766327));
#907=CARTESIAN_POINT('Ctrl Pts',(238.493233266819,-66.8463520690315,7.03544456766327));
#908=CARTESIAN_POINT('Ctrl Pts',(240.159899933486,-66.8463520690315,7.03544456766327));
#909=CARTESIAN_POINT('Ctrl Pts',(241.826566600152,-66.8463520690315,7.03544456766327));
#910=CARTESIAN_POINT('',(236.826566600152,-67.8463520690314,6.03544456766328));
#911=CARTESIAN_POINT('',(236.826566600152,-66.8463520690315,7.03544456766328));
#912=CARTESIAN_POINT('Ctrl Pts',(236.826566600152,-67.8463520690315,6.03544456766328));
#913=CARTESIAN_POINT('Ctrl Pts',(236.826566600152,-67.8463520690315,6.11024439274875));
#914=CARTESIAN_POINT('Ctrl Pts',(236.826566600152,-67.8459712086701,6.18425282647756));
#915=CARTESIAN_POINT('Ctrl Pts',(236.826566600152,-67.8375853127465,6.25798073279445));
#916=CARTESIAN_POINT('Ctrl Pts',(236.826566600152,-67.8291994168229,6.33170863911135));
#917=CARTESIAN_POINT('Ctrl Pts',(236.826566600152,-67.8128084853371,6.40515601801634));
#918=CARTESIAN_POINT('Ctrl Pts',(236.826566600152,-67.7850021721975,6.47692120766774));
#919=CARTESIAN_POINT('Ctrl Pts',(236.826566600152,-67.7571958590579,6.54868639731914));
#920=CARTESIAN_POINT('Ctrl Pts',(236.826566600152,-67.7179741642647,6.61876939771695));
#921=CARTESIAN_POINT('Ctrl Pts',(236.826566600152,-67.6685313779162,6.68365903474664));
#922=CARTESIAN_POINT('Ctrl Pts',(236.826566600152,-67.6190885915676,6.74854867177633));
#923=CARTESIAN_POINT('Ctrl Pts',(236.826566600152,-67.5594247136639,6.80824494543789));
#924=CARTESIAN_POINT('Ctrl Pts',(236.826566600152,-67.4945642821841,6.85765698013009));
#925=CARTESIAN_POINT('Ctrl Pts',(236.826566600152,-67.4297038507042,6.90706901482228));
#926=CARTESIAN_POINT('Ctrl Pts',(236.826566600152,-67.3596468656482,6.94619681054512));
#927=CARTESIAN_POINT('Ctrl Pts',(236.826566600152,-67.2878782033167,6.97400080050447));
#928=CARTESIAN_POINT('Ctrl Pts',(236.826566600152,-67.2161095409851,7.00180479046382));
#929=CARTESIAN_POINT('Ctrl Pts',(236.826566600152,-67.1426292013781,7.01828497465969));
#930=CARTESIAN_POINT('Ctrl Pts',(236.826566600152,-67.068889789661,7.02669491895955));
#931=CARTESIAN_POINT('Ctrl Pts',(236.826566600152,-66.995150377944,7.03510486325941));
#932=CARTESIAN_POINT('Ctrl Pts',(236.826566600152,-66.9211518941169,7.03544456766327));
#933=CARTESIAN_POINT('Ctrl Pts',(236.826566600152,-66.8463520690315,7.03544456766327));
#934=CARTESIAN_POINT('',(241.826566600152,-66.8463520690315,7.03544456766328));
#935=CARTESIAN_POINT('',(241.826566600152,-66.8463520690315,7.03544456766328));
#936=CARTESIAN_POINT('',(241.826566600152,-67.8463520690315,6.03544456766328));
#937=CARTESIAN_POINT('Ctrl Pts',(241.826566600152,-66.8463520690315,7.03544456766327));
#938=CARTESIAN_POINT('Ctrl Pts',(241.826566600152,-66.9211518941169,7.03544456766327));
#939=CARTESIAN_POINT('Ctrl Pts',(241.826566600152,-66.995150377944,7.03510486325941));
#940=CARTESIAN_POINT('Ctrl Pts',(241.826566600152,-67.068889789661,7.02669491895955));
#941=CARTESIAN_POINT('Ctrl Pts',(241.826566600152,-67.1426292013781,7.01828497465969));
#942=CARTESIAN_POINT('Ctrl Pts',(241.826566600152,-67.2161095409851,7.00180479046382));
#943=CARTESIAN_POINT('Ctrl Pts',(241.826566600152,-67.2878782033167,6.97400080050447));
#944=CARTESIAN_POINT('Ctrl Pts',(241.826566600152,-67.3596468656482,6.94619681054512));
#945=CARTESIAN_POINT('Ctrl Pts',(241.826566600152,-67.4297038507042,6.90706901482228));
#946=CARTESIAN_POINT('Ctrl Pts',(241.826566600152,-67.4945642821841,6.85765698013009));
#947=CARTESIAN_POINT('Ctrl Pts',(241.826566600152,-67.5594247136639,6.80824494543789));
#948=CARTESIAN_POINT('Ctrl Pts',(241.826566600152,-67.6190885915676,6.74854867177633));
#949=CARTESIAN_POINT('Ctrl Pts',(241.826566600152,-67.6685313779162,6.68365903474664));
#950=CARTESIAN_POINT('Ctrl Pts',(241.826566600152,-67.7179741642647,6.61876939771695));
#951=CARTESIAN_POINT('Ctrl Pts',(241.826566600152,-67.7571958590579,6.54868639731914));
#952=CARTESIAN_POINT('Ctrl Pts',(241.826566600152,-67.7850021721975,6.47692120766774));
#953=CARTESIAN_POINT('Ctrl Pts',(241.826566600152,-67.8128084853371,6.40515601801634));
#954=CARTESIAN_POINT('Ctrl Pts',(241.826566600152,-67.8291994168229,6.33170863911135));
#955=CARTESIAN_POINT('Ctrl Pts',(241.826566600152,-67.8375853127465,6.25798073279445));
#956=CARTESIAN_POINT('Ctrl Pts',(241.826566600152,-67.8459712086701,6.18425282647756));
#957=CARTESIAN_POINT('Ctrl Pts',(241.826566600152,-67.8463520690315,6.11024439274875));
#958=CARTESIAN_POINT('Ctrl Pts',(241.826566600152,-67.8463520690315,6.03544456766328));
#959=CARTESIAN_POINT('',(241.826566600152,-67.8463520690315,6.03544456766328));
#960=CARTESIAN_POINT('Origin',(241.826566600152,-67.8463520690315,7.03544456766328));
#961=CARTESIAN_POINT('',(236.826566600152,-58.0511597547171,7.03544456766328));
#962=CARTESIAN_POINT('',(236.826566600152,-109.787474561942,7.03544456766328));
#963=CARTESIAN_POINT('',(241.826566600152,-58.0511597547171,7.03544456766328));
#964=CARTESIAN_POINT('',(241.826566600152,-58.0511597547171,7.03544456766328));
#965=CARTESIAN_POINT('',(241.826566600152,-56.4968533995342,7.03544456766328));
#966=CARTESIAN_POINT('Ctrl Pts',(236.826566600152,-58.0511597547171,7.03544456766328));
#967=CARTESIAN_POINT('Ctrl Pts',(238.493233266819,-58.0511597547171,7.03544456766328));
#968=CARTESIAN_POINT('Ctrl Pts',(240.159899933486,-58.0511597547171,7.03544456766328));
#969=CARTESIAN_POINT('Ctrl Pts',(241.826566600152,-58.0511597547171,7.03544456766328));
#970=CARTESIAN_POINT('Ctrl Pts',(236.826566600152,-57.9763599296316,7.03544456766328));
#971=CARTESIAN_POINT('Ctrl Pts',(238.493233266819,-57.9763599296316,7.03544456766328));
#972=CARTESIAN_POINT('Ctrl Pts',(240.159899933486,-57.9763599296316,7.03544456766328));
#973=CARTESIAN_POINT('Ctrl Pts',(241.826566600152,-57.9763599296316,7.03544456766328));
#974=CARTESIAN_POINT('Ctrl Pts',(236.826566600152,-57.8283430488263,7.03468285661698));
#975=CARTESIAN_POINT('Ctrl Pts',(238.493233266819,-57.8283430488263,7.03468285661698));
#976=CARTESIAN_POINT('Ctrl Pts',(240.159899933486,-57.8283430488263,7.03468285661698));
#977=CARTESIAN_POINT('Ctrl Pts',(241.826566600152,-57.8283430488263,7.03468285661698));
#978=CARTESIAN_POINT('Ctrl Pts',(236.826566600152,-57.6080009010539,6.9855100517802));
#979=CARTESIAN_POINT('Ctrl Pts',(238.493233266819,-57.6080009010539,6.9855100517802));
#980=CARTESIAN_POINT('Ctrl Pts',(240.159899933486,-57.6080009010539,6.9855100517802));
#981=CARTESIAN_POINT('Ctrl Pts',(241.826566600152,-57.6080009010539,6.9855100517802));
#982=CARTESIAN_POINT('Ctrl Pts',(236.826566600152,-57.3977518903837,6.86784497513873));
#983=CARTESIAN_POINT('Ctrl Pts',(238.493233266819,-57.3977518903837,6.86784497513873));
#984=CARTESIAN_POINT('Ctrl Pts',(240.159899933486,-57.3977518903837,6.86784497513873));
#985=CARTESIAN_POINT('Ctrl Pts',(241.826566600152,-57.3977518903837,6.86784497513873));
#986=CARTESIAN_POINT('Ctrl Pts',(236.826566600152,-57.2186630623396,6.68885332836499));
#987=CARTESIAN_POINT('Ctrl Pts',(238.493233266819,-57.2186630623396,6.68885332836499));
#988=CARTESIAN_POINT('Ctrl Pts',(240.159899933486,-57.2186630623396,6.68885332836499));
#989=CARTESIAN_POINT('Ctrl Pts',(241.826566600152,-57.2186630623396,6.68885332836499));
#990=CARTESIAN_POINT('Ctrl Pts',(236.826566600152,-57.101279659296,6.47868236087372));
#991=CARTESIAN_POINT('Ctrl Pts',(238.493233266819,-57.101279659296,6.47868236087372));
#992=CARTESIAN_POINT('Ctrl Pts',(240.159899933486,-57.101279659296,6.47868236087372));
#993=CARTESIAN_POINT('Ctrl Pts',(241.826566600152,-57.101279659296,6.47868236087372));
#994=CARTESIAN_POINT('Ctrl Pts',(236.826566600152,-57.0518391261946,6.25824134881925));
#995=CARTESIAN_POINT('Ctrl Pts',(238.493233266819,-57.0518391261946,6.25824134881925));
#996=CARTESIAN_POINT('Ctrl Pts',(240.159899933486,-57.0518391261946,6.25824134881925));
#997=CARTESIAN_POINT('Ctrl Pts',(241.826566600152,-57.0518391261946,6.25824134881925));
#998=CARTESIAN_POINT('Ctrl Pts',(236.826566600152,-57.0511597547171,6.11024439274875));
#999=CARTESIAN_POINT('Ctrl Pts',(238.493233266819,-57.0511597547171,6.11024439274875));
#1000=CARTESIAN_POINT('Ctrl Pts',(240.159899933486,-57.0511597547171,6.11024439274875));
#1001=CARTESIAN_POINT('Ctrl Pts',(241.826566600152,-57.0511597547171,6.11024439274875));
#1002=CARTESIAN_POINT('Ctrl Pts',(236.826566600152,-57.0511597547171,6.03544456766327));
#1003=CARTESIAN_POINT('Ctrl Pts',(238.493233266819,-57.0511597547171,6.03544456766327));
#1004=CARTESIAN_POINT('Ctrl Pts',(240.159899933486,-57.0511597547171,6.03544456766327));
#1005=CARTESIAN_POINT('Ctrl Pts',(241.826566600152,-57.0511597547171,6.03544456766327));
#1006=CARTESIAN_POINT('',(236.826566600152,-57.0511597547171,6.03544456766327));
#1007=CARTESIAN_POINT('Ctrl Pts',(236.826566600152,-58.0511597547171,7.03544456766328));
#1008=CARTESIAN_POINT('Ctrl Pts',(236.826566600152,-57.9763599296316,7.03544456766328));
#1009=CARTESIAN_POINT('Ctrl Pts',(236.826566600152,-57.902351489229,7.03506371214013));
#1010=CARTESIAN_POINT('Ctrl Pts',(236.826566600152,-57.8286235777322,7.02667781690576));
#1011=CARTESIAN_POINT('Ctrl Pts',(236.826566600152,-57.7548956662355,7.01829192167139));
#1012=CARTESIAN_POINT('Ctrl Pts',(236.826566600152,-57.6814482836447,7.00190098672579));
#1013=CARTESIAN_POINT('Ctrl Pts',(236.826566600152,-57.6096830905709,6.97409467314609));
#1014=CARTESIAN_POINT('Ctrl Pts',(236.826566600152,-57.5379178974972,6.94628835956638));
#1015=CARTESIAN_POINT('Ctrl Pts',(236.826566600152,-57.4678348939405,6.90706666735256));
#1016=CARTESIAN_POINT('Ctrl Pts',(236.826566600152,-57.4029452541548,6.85762388011669));
#1017=CARTESIAN_POINT('Ctrl Pts',(236.826566600152,-57.338055614369,6.80818109288082));
#1018=CARTESIAN_POINT('Ctrl Pts',(236.826566600152,-57.2783593383543,6.7485172106229));
#1019=CARTESIAN_POINT('Ctrl Pts',(236.826566600152,-57.2289472998397,6.68365677491207));
#1020=CARTESIAN_POINT('Ctrl Pts',(236.826566600152,-57.1795352613251,6.61879633920123));
#1021=CARTESIAN_POINT('Ctrl Pts',(236.826566600152,-57.1404074603105,6.54873935003748));
#1022=CARTESIAN_POINT('Ctrl Pts',(236.826566600152,-57.112603470953,6.47697068677986));
#1023=CARTESIAN_POINT('Ctrl Pts',(236.826566600152,-57.0847994815955,6.40520202352223));
#1024=CARTESIAN_POINT('Ctrl Pts',(236.826566600152,-57.0683193038951,6.33172168617075));
#1025=CARTESIAN_POINT('Ctrl Pts',(236.826566600152,-57.0599093721755,6.25798227847737));
#1026=CARTESIAN_POINT('Ctrl Pts',(236.826566600152,-57.0514994404559,6.184242870784));
#1027=CARTESIAN_POINT('Ctrl Pts',(236.826566600152,-57.0511597547171,6.11024439274875));
#1028=CARTESIAN_POINT('Ctrl Pts',(236.826566600152,-57.0511597547171,6.03544456766327));
#1029=CARTESIAN_POINT('',(241.826566600152,-57.0511597547171,6.03544456766327));
#1030=CARTESIAN_POINT('',(241.826566600152,-57.0511597547171,6.03544456766327));
#1031=CARTESIAN_POINT('Ctrl Pts',(241.826566600152,-57.0511597547171,6.03544456766327));
#1032=CARTESIAN_POINT('Ctrl Pts',(241.826566600152,-57.0511597547171,6.11024439274875));
#1033=CARTESIAN_POINT('Ctrl Pts',(241.826566600152,-57.0514994404559,6.184242870784));
#1034=CARTESIAN_POINT('Ctrl Pts',(241.826566600152,-57.0599093721755,6.25798227847737));
#1035=CARTESIAN_POINT('Ctrl Pts',(241.826566600152,-57.0683193038951,6.33172168617075));
#1036=CARTESIAN_POINT('Ctrl Pts',(241.826566600152,-57.0847994815955,6.40520202352223));
#1037=CARTESIAN_POINT('Ctrl Pts',(241.826566600152,-57.112603470953,6.47697068677986));
#1038=CARTESIAN_POINT('Ctrl Pts',(241.826566600152,-57.1404074603105,6.54873935003748));
#1039=CARTESIAN_POINT('Ctrl Pts',(241.826566600152,-57.1795352613251,6.61879633920123));
#1040=CARTESIAN_POINT('Ctrl Pts',(241.826566600152,-57.2289472998397,6.68365677491207));
#1041=CARTESIAN_POINT('Ctrl Pts',(241.826566600152,-57.2783593383543,6.7485172106229));
#1042=CARTESIAN_POINT('Ctrl Pts',(241.826566600152,-57.338055614369,6.80818109288082));
#1043=CARTESIAN_POINT('Ctrl Pts',(241.826566600152,-57.4029452541548,6.85762388011669));
#1044=CARTESIAN_POINT('Ctrl Pts',(241.826566600152,-57.4678348939405,6.90706666735256));
#1045=CARTESIAN_POINT('Ctrl Pts',(241.826566600152,-57.5379178974972,6.94628835956638));
#1046=CARTESIAN_POINT('Ctrl Pts',(241.826566600152,-57.6096830905709,6.97409467314609));
#1047=CARTESIAN_POINT('Ctrl Pts',(241.826566600152,-57.6814482836447,7.00190098672579));
#1048=CARTESIAN_POINT('Ctrl Pts',(241.826566600152,-57.7548956662355,7.01829192167139));
#1049=CARTESIAN_POINT('Ctrl Pts',(241.826566600152,-57.8286235777322,7.02667781690576));
#1050=CARTESIAN_POINT('Ctrl Pts',(241.826566600152,-57.902351489229,7.03506371214013));
#1051=CARTESIAN_POINT('Ctrl Pts',(241.826566600152,-57.9763599296316,7.03544456766328));
#1052=CARTESIAN_POINT('Ctrl Pts',(241.826566600152,-58.0511597547171,7.03544456766328));
#1053=CARTESIAN_POINT('Origin',(241.826566600152,-57.0511597547171,7.03544456766328));
#1054=CARTESIAN_POINT('',(241.826566600152,-57.0511597547171,3.51772228383164));
#1055=CARTESIAN_POINT('',(236.826566600152,-57.0511597547171,3.51772228383164));
#1056=CARTESIAN_POINT('Origin',(241.826566600152,-67.8463520690315,2.65901525104934));
#1057=CARTESIAN_POINT('',(236.826566600152,-67.8463520690314,1.32950762552467));
#1058=CARTESIAN_POINT('',(241.826566600152,-67.8463520690315,1.32950762552467));
#1059=CARTESIAN_POINT('Ctrl Pts',(236.826566600152,-45.1473547300369,-9.));
#1060=CARTESIAN_POINT('Ctrl Pts',(236.826566600152,-45.1473547300369,-2.));
#1061=CARTESIAN_POINT('Ctrl Pts',(236.826566600152,-45.1473547300369,5.));
#1062=CARTESIAN_POINT('Ctrl Pts',(236.826566600152,-45.1473547300369,12.));
#1063=CARTESIAN_POINT('Ctrl Pts',(237.20056572558,-45.1473547300369,-9.));
#1064=CARTESIAN_POINT('Ctrl Pts',(237.20056572558,-45.1473547300369,-1.99999999999999));
#1065=CARTESIAN_POINT('Ctrl Pts',(237.20056572558,-45.1473547300369,4.99999999999999));
#1066=CARTESIAN_POINT('Ctrl Pts',(237.20056572558,-45.1473547300369,12.));
#1067=CARTESIAN_POINT('Ctrl Pts',(237.940638894189,-45.1511607873405,-9.));
#1068=CARTESIAN_POINT('Ctrl Pts',(237.940638894189,-45.1511607873405,-2.00000000000001));
#1069=CARTESIAN_POINT('Ctrl Pts',(237.940638894189,-45.1511607873405,5.00000000000001));
#1070=CARTESIAN_POINT('Ctrl Pts',(237.940638894189,-45.1511607873405,12.));
#1071=CARTESIAN_POINT('Ctrl Pts',(239.042332405652,-45.3970250098975,-9.));
#1072=CARTESIAN_POINT('Ctrl Pts',(239.042332405652,-45.3970250098975,-1.99999999999999));
#1073=CARTESIAN_POINT('Ctrl Pts',(239.042332405652,-45.3970250098975,4.99999999999999));
#1074=CARTESIAN_POINT('Ctrl Pts',(239.042332405652,-45.3970250098975,12.));
#1075=CARTESIAN_POINT('Ctrl Pts',(240.09358579287,-45.9853477477164,-9.));
#1076=CARTESIAN_POINT('Ctrl Pts',(240.09358579287,-45.9853477477164,-2.));
#1077=CARTESIAN_POINT('Ctrl Pts',(240.09358579287,-45.9853477477164,5.));
#1078=CARTESIAN_POINT('Ctrl Pts',(240.09358579287,-45.9853477477164,12.));
#1079=CARTESIAN_POINT('Ctrl Pts',(240.988976682804,-46.8803071474263,-9.));
#1080=CARTESIAN_POINT('Ctrl Pts',(240.988976682804,-46.8803071474263,-2.));
#1081=CARTESIAN_POINT('Ctrl Pts',(240.988976682804,-46.8803071474263,5.));
#1082=CARTESIAN_POINT('Ctrl Pts',(240.988976682804,-46.8803071474263,12.));
#1083=CARTESIAN_POINT('Ctrl Pts',(241.57599002791,-47.9311588294346,-9.));
#1084=CARTESIAN_POINT('Ctrl Pts',(241.57599002791,-47.9311588294346,-1.99999999999999));
#1085=CARTESIAN_POINT('Ctrl Pts',(241.57599002791,-47.9311588294346,4.99999999999999));
#1086=CARTESIAN_POINT('Ctrl Pts',(241.57599002791,-47.9311588294346,12.));
#1087=CARTESIAN_POINT('Ctrl Pts',(241.822793727181,-49.0332051156606,-9.));
#1088=CARTESIAN_POINT('Ctrl Pts',(241.822793727181,-49.0332051156606,-2.00000000000001));
#1089=CARTESIAN_POINT('Ctrl Pts',(241.822793727181,-49.0332051156606,5.00000000000001));
#1090=CARTESIAN_POINT('Ctrl Pts',(241.822793727181,-49.0332051156606,12.));
#1091=CARTESIAN_POINT('Ctrl Pts',(241.826566600152,-49.7733556046095,-9.));
#1092=CARTESIAN_POINT('Ctrl Pts',(241.826566600152,-49.7733556046095,-1.99999999999999));
#1093=CARTESIAN_POINT('Ctrl Pts',(241.826566600152,-49.7733556046095,4.99999999999999));
#1094=CARTESIAN_POINT('Ctrl Pts',(241.826566600152,-49.7733556046095,12.));
#1095=CARTESIAN_POINT('Ctrl Pts',(241.826566600152,-50.1473547300369,-9.));
#1096=CARTESIAN_POINT('Ctrl Pts',(241.826566600152,-50.1473547300369,-2.));
#1097=CARTESIAN_POINT('Ctrl Pts',(241.826566600152,-50.1473547300369,5.));
#1098=CARTESIAN_POINT('Ctrl Pts',(241.826566600152,-50.1473547300369,12.));
#1099=CARTESIAN_POINT('',(236.826566600152,-45.1473547300369,12.));
#1100=CARTESIAN_POINT('',(241.826566600152,-50.1473547300369,12.));
#1101=CARTESIAN_POINT('Ctrl Pts',(236.826566600152,-45.1473547300369,12.));
#1102=CARTESIAN_POINT('Ctrl Pts',(237.20056572558,-45.1473547300369,12.));
#1103=CARTESIAN_POINT('Ctrl Pts',(237.570602309884,-45.1492577586887,12.));
#1104=CARTESIAN_POINT('Ctrl Pts',(237.93923618728,-45.1911866434408,12.));
#1105=CARTESIAN_POINT('Ctrl Pts',(238.307870064676,-45.2331155281929,12.));
#1106=CARTESIAN_POINT('Ctrl Pts',(238.675101235164,-45.3150702690452,12.));
#1107=CARTESIAN_POINT('Ctrl Pts',(239.033925718278,-45.4541014291078,12.));
#1108=CARTESIAN_POINT('Ctrl Pts',(239.392750201391,-45.5931325891705,12.));
#1109=CARTESIAN_POINT('Ctrl Pts',(239.74316799713,-45.7892401684435,12.));
#1110=CARTESIAN_POINT('Ctrl Pts',(240.067608709989,-46.0364538580316,12.));
#1111=CARTESIAN_POINT('Ctrl Pts',(240.392049422848,-46.2836675476197,12.));
#1112=CARTESIAN_POINT('Ctrl Pts',(240.690513052826,-46.581987347523,12.));
#1113=CARTESIAN_POINT('Ctrl Pts',(240.937580425333,-46.906289194476,12.));
#1114=CARTESIAN_POINT('Ctrl Pts',(241.18464779784,-47.2305910414291,12.));
#1115=CARTESIAN_POINT('Ctrl Pts',(241.380318912875,-47.5808749354318,12.));
#1116=CARTESIAN_POINT('Ctrl Pts',(241.519288420271,-47.9396912634709,12.));
#1117=CARTESIAN_POINT('Ctrl Pts',(241.658257927667,-48.2985075915099,12.));
#1118=CARTESIAN_POINT('Ctrl Pts',(241.740525827424,-48.6658563535852,12.));
#1119=CARTESIAN_POINT('Ctrl Pts',(241.782602995546,-49.0345683568601,12.));
#1120=CARTESIAN_POINT('Ctrl Pts',(241.824680163667,-49.403280360135,12.));
#1121=CARTESIAN_POINT('Ctrl Pts',(241.826566600152,-49.7733556046095,12.));
#1122=CARTESIAN_POINT('Ctrl Pts',(241.826566600152,-50.1473547300369,12.));
#1123=CARTESIAN_POINT('',(241.826566600152,-50.1473547300369,-9.));
#1124=CARTESIAN_POINT('',(241.826566600152,-50.1473547300369,0.));
#1125=CARTESIAN_POINT('',(236.826566600152,-45.1473547300369,-9.));
#1126=CARTESIAN_POINT('Ctrl Pts',(241.826566600152,-50.1473547300369,-9.));
#1127=CARTESIAN_POINT('Ctrl Pts',(241.826566600152,-49.7733556046095,-9.));
#1128=CARTESIAN_POINT('Ctrl Pts',(241.824680163667,-49.403280360135,-9.));
#1129=CARTESIAN_POINT('Ctrl Pts',(241.782602995546,-49.0345683568601,-9.));
#1130=CARTESIAN_POINT('Ctrl Pts',(241.740525827424,-48.6658563535852,-9.));
#1131=CARTESIAN_POINT('Ctrl Pts',(241.658257927667,-48.2985075915099,-9.));
#1132=CARTESIAN_POINT('Ctrl Pts',(241.519288420271,-47.9396912634709,-9.));
#1133=CARTESIAN_POINT('Ctrl Pts',(241.380318912875,-47.5808749354318,-9.));
#1134=CARTESIAN_POINT('Ctrl Pts',(241.18464779784,-47.2305910414291,-9.));
#1135=CARTESIAN_POINT('Ctrl Pts',(240.937580425333,-46.906289194476,-9.));
#1136=CARTESIAN_POINT('Ctrl Pts',(240.690513052826,-46.581987347523,-9.));
#1137=CARTESIAN_POINT('Ctrl Pts',(240.392049422848,-46.2836675476197,-9.));
#1138=CARTESIAN_POINT('Ctrl Pts',(240.067608709989,-46.0364538580316,-9.));
#1139=CARTESIAN_POINT('Ctrl Pts',(239.74316799713,-45.7892401684435,-9.));
#1140=CARTESIAN_POINT('Ctrl Pts',(239.392750201391,-45.5931325891705,-9.));
#1141=CARTESIAN_POINT('Ctrl Pts',(239.033925718278,-45.4541014291078,-9.));
#1142=CARTESIAN_POINT('Ctrl Pts',(238.675101235164,-45.3150702690452,-9.));
#1143=CARTESIAN_POINT('Ctrl Pts',(238.307870064676,-45.2331155281929,-9.));
#1144=CARTESIAN_POINT('Ctrl Pts',(237.93923618728,-45.1911866434408,-9.));
#1145=CARTESIAN_POINT('Ctrl Pts',(237.570602309884,-45.1492577586887,-9.));
#1146=CARTESIAN_POINT('Ctrl Pts',(237.20056572558,-45.1473547300369,-9.));
#1147=CARTESIAN_POINT('Ctrl Pts',(236.826566600152,-45.1473547300369,-9.));
#1148=CARTESIAN_POINT('',(236.826566600152,-45.1473547300369,0.));
#1149=CARTESIAN_POINT('Origin',(241.826566600152,-45.1473547300369,0.));
#1150=CARTESIAN_POINT('',(241.826566600152,-151.728597054853,12.));
#1151=CARTESIAN_POINT('',(241.826566600152,-45.1473547300369,12.));
#1152=CARTESIAN_POINT('',(241.826566600152,-151.728597054853,-9.));
#1153=CARTESIAN_POINT('',(241.826566600152,-151.728597054853,0.));
#1154=CARTESIAN_POINT('',(241.826566600152,-45.1473547300369,-9.));
#1155=CARTESIAN_POINT('Origin',(196.865681189729,-100.937975892445,12.));
#1156=CARTESIAN_POINT('',(156.904795779305,-45.1473547300369,12.));
#1157=CARTESIAN_POINT('',(151.904795779305,-45.1473547300369,12.));
#1158=CARTESIAN_POINT('',(151.904795779305,-50.1473547300369,12.));
#1159=CARTESIAN_POINT('Ctrl Pts',(151.904795779305,-50.1473547300369,12.));
#1160=CARTESIAN_POINT('Ctrl Pts',(151.904795779305,-49.7733556046095,12.));
#1161=CARTESIAN_POINT('Ctrl Pts',(151.906698490296,-49.4033178685901,12.));
#1162=CARTESIAN_POINT('Ctrl Pts',(151.948627438957,-49.0346831551401,12.));
#1163=CARTESIAN_POINT('Ctrl Pts',(151.990556387619,-48.6660484416902,12.));
#1164=CARTESIAN_POINT('Ctrl Pts',(152.07251157395,-48.2988167508097,12.));
#1165=CARTESIAN_POINT('Ctrl Pts',(152.211542858142,-47.9399917500578,12.));
#1166=CARTESIAN_POINT('Ctrl Pts',(152.350574142334,-47.581166749306,12.));
#1167=CARTESIAN_POINT('Ctrl Pts',(152.546681524388,-47.2307484386829,12.));
#1168=CARTESIAN_POINT('Ctrl Pts',(152.793895409236,-46.9063072846081,12.));
#1169=CARTESIAN_POINT('Ctrl Pts',(153.041109294084,-46.5818661305334,12.));
#1170=CARTESIAN_POINT('Ctrl Pts',(153.339429681727,-46.283402133007,12.));
#1171=CARTESIAN_POINT('Ctrl Pts',(153.663732024835,-46.0363343695659,12.));
#1172=CARTESIAN_POINT('Ctrl Pts',(153.988034367943,-45.7892666061249,12.));
#1173=CARTESIAN_POINT('Ctrl Pts',(154.338318666515,-45.5935950767691,12.));
#1174=CARTESIAN_POINT('Ctrl Pts',(154.697135091133,-45.4546256253332,12.));
#1175=CARTESIAN_POINT('Ctrl Pts',(155.055951515751,-45.3156561738972,12.));
#1176=CARTESIAN_POINT('Ctrl Pts',(155.423300066414,-45.233388800381,12.));
#1177=CARTESIAN_POINT('Ctrl Pts',(155.792011350945,-45.1913134394159,12.));
#1178=CARTESIAN_POINT('Ctrl Pts',(156.160722635477,-45.1492380784508,12.));
#1179=CARTESIAN_POINT('Ctrl Pts',(156.530796653878,-45.1473547300369,12.));
#1180=CARTESIAN_POINT('Ctrl Pts',(156.904795779305,-45.1473547300369,12.));
#1181=CARTESIAN_POINT('',(151.904795779305,-151.728597054853,12.));
#1182=CARTESIAN_POINT('',(151.904795779305,-156.728597054853,12.));
#1183=CARTESIAN_POINT('',(156.904795779305,-156.728597054853,12.));
#1184=CARTESIAN_POINT('Ctrl Pts',(156.904795779305,-156.728597054853,12.));
#1185=CARTESIAN_POINT('Ctrl Pts',(156.530796653878,-156.728597054853,12.));
#1186=CARTESIAN_POINT('Ctrl Pts',(156.160721210315,-156.726710113335,12.));
#1187=CARTESIAN_POINT('Ctrl Pts',(155.792009090196,-156.684632649351,12.));
#1188=CARTESIAN_POINT('Ctrl Pts',(155.423296970078,-156.642555185367,12.));
#1189=CARTESIAN_POINT('Ctrl Pts',(155.055948173404,-156.560287198918,12.));
#1190=CARTESIAN_POINT('Ctrl Pts',(154.697131860284,-156.421317680474,12.));
#1191=CARTESIAN_POINT('Ctrl Pts',(154.338315547164,-156.28234816203,12.));
#1192=CARTESIAN_POINT('Ctrl Pts',(153.988031717597,-156.086677111591,12.));
#1193=CARTESIAN_POINT('Ctrl Pts',(153.663729949669,-155.839609799753,12.));
#1194=CARTESIAN_POINT('Ctrl Pts',(153.339428181742,-155.592542487914,12.));
#1195=CARTESIAN_POINT('Ctrl Pts',(153.041108475454,-155.294078914676,12.));
#1196=CARTESIAN_POINT('Ctrl Pts',(152.793894817693,-154.969638273784,12.));
#1197=CARTESIAN_POINT('Ctrl Pts',(152.546681159932,-154.645197632892,12.));
#1198=CARTESIAN_POINT('Ctrl Pts',(152.350573550698,-154.294779924347,12.));
#1199=CARTESIAN_POINT('Ctrl Pts',(152.211542411359,-153.935955527207,12.));
#1200=CARTESIAN_POINT('Ctrl Pts',(152.072511272019,-153.577131130068,12.));
#1201=CARTESIAN_POINT('Ctrl Pts',(151.990556602574,-153.209900044335,12.));
#1202=CARTESIAN_POINT('Ctrl Pts',(151.948627729396,-152.841266306888,12.));
#1203=CARTESIAN_POINT('Ctrl Pts',(151.906698856217,-152.472632569441,12.));
#1204=CARTESIAN_POINT('Ctrl Pts',(151.904795779305,-152.102596180281,12.));
#1205=CARTESIAN_POINT('Ctrl Pts',(151.904795779305,-151.728597054853,12.));
#1206=CARTESIAN_POINT('',(236.826566600152,-156.728597054853,12.));
#1207=CARTESIAN_POINT('',(241.826566600152,-156.728597054853,12.));
#1208=CARTESIAN_POINT('Ctrl Pts',(241.826566600152,-151.728597054853,12.));
#1209=CARTESIAN_POINT('Ctrl Pts',(241.826566600152,-152.102596180281,12.));
#1210=CARTESIAN_POINT('Ctrl Pts',(241.824663389879,-152.472631996429,12.));
#1211=CARTESIAN_POINT('Ctrl Pts',(241.782734551817,-152.841265325503,12.));
#1212=CARTESIAN_POINT('Ctrl Pts',(241.740805713756,-153.209898654576,12.));
#1213=CARTESIAN_POINT('Ctrl Pts',(241.658851247907,-153.577129496575,12.));
#1214=CARTESIAN_POINT('Ctrl Pts',(241.519820168945,-153.935953643887,12.));
#1215=CARTESIAN_POINT('Ctrl Pts',(241.380789089982,-154.2947777912,12.));
#1216=CARTESIAN_POINT('Ctrl Pts',(241.184681397906,-154.645195243828,12.));
#1217=CARTESIAN_POINT('Ctrl Pts',(240.937467831687,-154.969635677621,12.));
#1218=CARTESIAN_POINT('Ctrl Pts',(240.690254265469,-155.294076111414,12.));
#1219=CARTESIAN_POINT('Ctrl Pts',(240.391934825109,-155.592539526373,12.));
#1220=CARTESIAN_POINT('Ctrl Pts',(240.067633281661,-155.839606668433,12.));
#1221=CARTESIAN_POINT('Ctrl Pts',(239.743331738214,-156.086673810493,12.));
#1222=CARTESIAN_POINT('Ctrl Pts',(239.393048091679,-156.282344679654,12.));
#1223=CARTESIAN_POINT('Ctrl Pts',(239.034231820205,-156.421314232864,12.));
#1224=CARTESIAN_POINT('Ctrl Pts',(238.675415548731,-156.560283786074,12.));
#1225=CARTESIAN_POINT('Ctrl Pts',(238.308066652318,-156.642552023333,12.));
#1226=CARTESIAN_POINT('Ctrl Pts',(237.93935419653,-156.684630340528,12.));
#1227=CARTESIAN_POINT('Ctrl Pts',(237.570641740742,-156.726708657723,12.));
#1228=CARTESIAN_POINT('Ctrl Pts',(237.20056572558,-156.728597054853,12.));
#1229=CARTESIAN_POINT('Ctrl Pts',(236.826566600152,-156.728597054853,12.));
#1230=CARTESIAN_POINT('',(236.826566600152,-151.728597054853,12.));
#1231=CARTESIAN_POINT('',(156.904795779305,-151.728597054853,12.));
#1232=CARTESIAN_POINT('',(236.826566600152,-151.728597054853,12.));
#1233=CARTESIAN_POINT('',(156.904795779305,-50.1473547300369,12.));
#1234=CARTESIAN_POINT('',(156.904795779305,-151.728597054853,12.));
#1235=CARTESIAN_POINT('',(236.826566600152,-50.1473547300369,12.));
#1236=CARTESIAN_POINT('',(156.904795779305,-50.1473547300369,12.));
#1237=CARTESIAN_POINT('',(236.826566600152,-50.1473547300369,12.));
#1238=CARTESIAN_POINT('Ctrl Pts',(151.904795779305,-50.1473547300369,-9.));
#1239=CARTESIAN_POINT('Ctrl Pts',(151.904795779305,-50.1473547300369,-2.));
#1240=CARTESIAN_POINT('Ctrl Pts',(151.904795779305,-50.1473547300369,5.));
#1241=CARTESIAN_POINT('Ctrl Pts',(151.904795779305,-50.1473547300369,12.));
#1242=CARTESIAN_POINT('Ctrl Pts',(151.904795779305,-49.7733556046095,-9.));
#1243=CARTESIAN_POINT('Ctrl Pts',(151.904795779305,-49.7733556046095,-1.99999999999999));
#1244=CARTESIAN_POINT('Ctrl Pts',(151.904795779305,-49.7733556046095,4.99999999999999));
#1245=CARTESIAN_POINT('Ctrl Pts',(151.904795779305,-49.7733556046095,12.));
#1246=CARTESIAN_POINT('Ctrl Pts',(151.908601201288,-49.0332801325707,-9.));
#1247=CARTESIAN_POINT('Ctrl Pts',(151.908601201288,-49.0332801325707,-2.00000000000001));
#1248=CARTESIAN_POINT('Ctrl Pts',(151.908601201288,-49.0332801325707,5.00000000000001));
#1249=CARTESIAN_POINT('Ctrl Pts',(151.908601201288,-49.0332801325707,12.));
#1250=CARTESIAN_POINT('Ctrl Pts',(152.154466760281,-47.9315850599292,-9.));
#1251=CARTESIAN_POINT('Ctrl Pts',(152.154466760281,-47.9315850599292,-1.99999999999999));
#1252=CARTESIAN_POINT('Ctrl Pts',(152.154466760281,-47.9315850599292,4.99999999999999));
#1253=CARTESIAN_POINT('Ctrl Pts',(152.154466760281,-47.9315850599292,12.));
#1254=CARTESIAN_POINT('Ctrl Pts',(152.742788906441,-46.8803301280597,-9.));
#1255=CARTESIAN_POINT('Ctrl Pts',(152.742788906441,-46.8803301280597,-2.));
#1256=CARTESIAN_POINT('Ctrl Pts',(152.742788906441,-46.8803301280597,5.));
#1257=CARTESIAN_POINT('Ctrl Pts',(152.742788906441,-46.8803301280597,12.));
#1258=CARTESIAN_POINT('Ctrl Pts',(153.63775006937,-45.9849381354806,-9.));
#1259=CARTESIAN_POINT('Ctrl Pts',(153.63775006937,-45.9849381354806,-2.));
#1260=CARTESIAN_POINT('Ctrl Pts',(153.63775006937,-45.9849381354806,5.));
#1261=CARTESIAN_POINT('Ctrl Pts',(153.63775006937,-45.9849381354806,12.));
#1262=CARTESIAN_POINT('Ctrl Pts',(154.688602965087,-45.3979235474134,-9.00000000000001));
#1263=CARTESIAN_POINT('Ctrl Pts',(154.688602965087,-45.3979235474134,-2.));
#1264=CARTESIAN_POINT('Ctrl Pts',(154.688602965087,-45.3979235474134,5.));
#1265=CARTESIAN_POINT('Ctrl Pts',(154.688602965087,-45.3979235474134,12.));
#1266=CARTESIAN_POINT('Ctrl Pts',(155.790648617077,-45.1511214268647,-9.));
#1267=CARTESIAN_POINT('Ctrl Pts',(155.790648617077,-45.1511214268647,-2.00000000000002));
#1268=CARTESIAN_POINT('Ctrl Pts',(155.790648617077,-45.1511214268647,5.00000000000002));
#1269=CARTESIAN_POINT('Ctrl Pts',(155.790648617077,-45.1511214268647,12.));
#1270=CARTESIAN_POINT('Ctrl Pts',(156.530796653878,-45.1473547300369,-9.));
#1271=CARTESIAN_POINT('Ctrl Pts',(156.530796653878,-45.1473547300369,-1.99999999999999));
#1272=CARTESIAN_POINT('Ctrl Pts',(156.530796653878,-45.1473547300369,4.99999999999999));
#1273=CARTESIAN_POINT('Ctrl Pts',(156.530796653878,-45.1473547300369,12.));
#1274=CARTESIAN_POINT('Ctrl Pts',(156.904795779305,-45.1473547300369,-9.));
#1275=CARTESIAN_POINT('Ctrl Pts',(156.904795779305,-45.1473547300369,-2.));
#1276=CARTESIAN_POINT('Ctrl Pts',(156.904795779305,-45.1473547300369,5.));
#1277=CARTESIAN_POINT('Ctrl Pts',(156.904795779305,-45.1473547300369,12.));
#1278=CARTESIAN_POINT('',(156.904795779305,-45.1473547300369,-9.));
#1279=CARTESIAN_POINT('',(156.904795779305,-45.1473547300369,0.));
#1280=CARTESIAN_POINT('',(151.904795779305,-50.1473547300369,-9.));
#1281=CARTESIAN_POINT('Ctrl Pts',(156.904795779305,-45.1473547300369,-9.));
#1282=CARTESIAN_POINT('Ctrl Pts',(156.530796653878,-45.1473547300369,-9.));
#1283=CARTESIAN_POINT('Ctrl Pts',(156.160722635477,-45.1492380784508,-9.));
#1284=CARTESIAN_POINT('Ctrl Pts',(155.792011350945,-45.1913134394159,-9.));
#1285=CARTESIAN_POINT('Ctrl Pts',(155.423300066414,-45.233388800381,-9.));
#1286=CARTESIAN_POINT('Ctrl Pts',(155.055951515751,-45.3156561738972,-9.));
#1287=CARTESIAN_POINT('Ctrl Pts',(154.697135091133,-45.4546256253332,-9.));
#1288=CARTESIAN_POINT('Ctrl Pts',(154.338318666515,-45.5935950767691,-9.));
#1289=CARTESIAN_POINT('Ctrl Pts',(153.988034367943,-45.7892666061249,-9.));
#1290=CARTESIAN_POINT('Ctrl Pts',(153.663732024835,-46.0363343695659,-9.));
#1291=CARTESIAN_POINT('Ctrl Pts',(153.339429681727,-46.283402133007,-9.));
#1292=CARTESIAN_POINT('Ctrl Pts',(153.041109294084,-46.5818661305334,-9.));
#1293=CARTESIAN_POINT('Ctrl Pts',(152.793895409236,-46.9063072846081,-9.));
#1294=CARTESIAN_POINT('Ctrl Pts',(152.546681524388,-47.2307484386829,-9.));
#1295=CARTESIAN_POINT('Ctrl Pts',(152.350574142334,-47.581166749306,-9.));
#1296=CARTESIAN_POINT('Ctrl Pts',(152.211542858142,-47.9399917500578,-9.));
#1297=CARTESIAN_POINT('Ctrl Pts',(152.07251157395,-48.2988167508097,-9.));
#1298=CARTESIAN_POINT('Ctrl Pts',(151.990556387619,-48.6660484416902,-9.));
#1299=CARTESIAN_POINT('Ctrl Pts',(151.948627438957,-49.0346831551401,-9.));
#1300=CARTESIAN_POINT('Ctrl Pts',(151.906698490296,-49.4033178685901,-9.));
#1301=CARTESIAN_POINT('Ctrl Pts',(151.904795779305,-49.7733556046095,-9.));
#1302=CARTESIAN_POINT('Ctrl Pts',(151.904795779305,-50.1473547300369,-9.));
#1303=CARTESIAN_POINT('',(151.904795779305,-50.1473547300369,0.));
#1304=CARTESIAN_POINT('Origin',(151.904795779305,-156.728597054853,0.));
#1305=CARTESIAN_POINT('',(151.904795779305,-151.728597054853,-9.));
#1306=CARTESIAN_POINT('',(151.904795779305,-156.728597054853,-9.));
#1307=CARTESIAN_POINT('',(151.904795779305,-151.728597054853,0.));
#1308=CARTESIAN_POINT('Ctrl Pts',(151.904795779305,-151.728597054853,12.));
#1309=CARTESIAN_POINT('Ctrl Pts',(151.904795779305,-151.728597054853,5.));
#1310=CARTESIAN_POINT('Ctrl Pts',(151.904795779305,-151.728597054853,-2.));
#1311=CARTESIAN_POINT('Ctrl Pts',(151.904795779305,-151.728597054853,-9.));
#1312=CARTESIAN_POINT('Ctrl Pts',(151.904795779305,-152.102596180281,12.));
#1313=CARTESIAN_POINT('Ctrl Pts',(151.904795779305,-152.102596180281,4.99999999999999));
#1314=CARTESIAN_POINT('Ctrl Pts',(151.904795779305,-152.102596180281,-1.99999999999999));
#1315=CARTESIAN_POINT('Ctrl Pts',(151.904795779305,-152.102596180281,-9.));
#1316=CARTESIAN_POINT('Ctrl Pts',(151.90860193313,-152.842668958602,12.));
#1317=CARTESIAN_POINT('Ctrl Pts',(151.90860193313,-152.842668958602,5.00000000000001));
#1318=CARTESIAN_POINT('Ctrl Pts',(151.90860193313,-152.842668958602,-2.00000000000002));
#1319=CARTESIAN_POINT('Ctrl Pts',(151.90860193313,-152.842668958602,-9.00000000000001));
#1320=CARTESIAN_POINT('Ctrl Pts',(152.154465941464,-153.944362215801,12.));
#1321=CARTESIAN_POINT('Ctrl Pts',(152.154465941464,-153.944362215801,4.99999999999999));
#1322=CARTESIAN_POINT('Ctrl Pts',(152.154465941464,-153.944362215801,-1.99999999999999));
#1323=CARTESIAN_POINT('Ctrl Pts',(152.154465941464,-153.944362215801,-9.00000000000001));
#1324=CARTESIAN_POINT('Ctrl Pts',(152.742788769166,-154.995615341437,12.));
#1325=CARTESIAN_POINT('Ctrl Pts',(152.742788769166,-154.995615341437,5.00000000000001));
#1326=CARTESIAN_POINT('Ctrl Pts',(152.742788769166,-154.995615341437,-2.00000000000001));
#1327=CARTESIAN_POINT('Ctrl Pts',(152.742788769166,-154.995615341437,-9.00000000000001));
#1328=CARTESIAN_POINT('Ctrl Pts',(153.63774788803,-155.891006061152,12.));
#1329=CARTESIAN_POINT('Ctrl Pts',(153.63774788803,-155.891006061152,5.));
#1330=CARTESIAN_POINT('Ctrl Pts',(153.63774788803,-155.891006061152,-2.00000000000001));
#1331=CARTESIAN_POINT('Ctrl Pts',(153.63774788803,-155.891006061152,-9.00000000000001));
#1332=CARTESIAN_POINT('Ctrl Pts',(154.688599376731,-156.47801921247,12.));
#1333=CARTESIAN_POINT('Ctrl Pts',(154.688599376731,-156.47801921247,5.));
#1334=CARTESIAN_POINT('Ctrl Pts',(154.688599376731,-156.47801921247,-2.));
#1335=CARTESIAN_POINT('Ctrl Pts',(154.688599376731,-156.47801921247,-9.00000000000001));
#1336=CARTESIAN_POINT('Ctrl Pts',(155.790645766752,-156.724823171816,12.));
#1337=CARTESIAN_POINT('Ctrl Pts',(155.790645766752,-156.724823171816,5.00000000000002));
#1338=CARTESIAN_POINT('Ctrl Pts',(155.790645766752,-156.724823171816,-2.00000000000002));
#1339=CARTESIAN_POINT('Ctrl Pts',(155.790645766752,-156.724823171816,-9.));
#1340=CARTESIAN_POINT('Ctrl Pts',(156.530796653878,-156.728597054853,12.));
#1341=CARTESIAN_POINT('Ctrl Pts',(156.530796653878,-156.728597054853,4.99999999999998));
#1342=CARTESIAN_POINT('Ctrl Pts',(156.530796653878,-156.728597054853,-1.99999999999999));
#1343=CARTESIAN_POINT('Ctrl Pts',(156.530796653878,-156.728597054853,-9.));
#1344=CARTESIAN_POINT('Ctrl Pts',(156.904795779305,-156.728597054853,12.));
#1345=CARTESIAN_POINT('Ctrl Pts',(156.904795779305,-156.728597054853,5.));
#1346=CARTESIAN_POINT('Ctrl Pts',(156.904795779305,-156.728597054853,-2.));
#1347=CARTESIAN_POINT('Ctrl Pts',(156.904795779305,-156.728597054853,-9.));
#1348=CARTESIAN_POINT('',(156.904795779305,-156.728597054853,-9.));
#1349=CARTESIAN_POINT('Ctrl Pts',(151.904795779305,-151.728597054853,-9.));
#1350=CARTESIAN_POINT('Ctrl Pts',(151.904795779305,-152.102596180281,-9.));
#1351=CARTESIAN_POINT('Ctrl Pts',(151.906698856217,-152.472632569441,-9.));
#1352=CARTESIAN_POINT('Ctrl Pts',(151.948627729396,-152.841266306888,-9.00000000000001));
#1353=CARTESIAN_POINT('Ctrl Pts',(151.990556602574,-153.209900044335,-9.00000000000001));
#1354=CARTESIAN_POINT('Ctrl Pts',(152.072511272019,-153.577131130068,-9.00000000000001));
#1355=CARTESIAN_POINT('Ctrl Pts',(152.211542411359,-153.935955527207,-9.00000000000001));
#1356=CARTESIAN_POINT('Ctrl Pts',(152.350573550698,-154.294779924347,-9.00000000000001));
#1357=CARTESIAN_POINT('Ctrl Pts',(152.546681159932,-154.645197632892,-9.00000000000001));
#1358=CARTESIAN_POINT('Ctrl Pts',(152.793894817693,-154.969638273784,-9.00000000000001));
#1359=CARTESIAN_POINT('Ctrl Pts',(153.041108475454,-155.294078914676,-9.00000000000001));
#1360=CARTESIAN_POINT('Ctrl Pts',(153.339428181742,-155.592542487914,-9.00000000000001));
#1361=CARTESIAN_POINT('Ctrl Pts',(153.663729949669,-155.839609799753,-9.00000000000001));
#1362=CARTESIAN_POINT('Ctrl Pts',(153.988031717597,-156.086677111591,-9.00000000000001));
#1363=CARTESIAN_POINT('Ctrl Pts',(154.338315547164,-156.28234816203,-9.00000000000001));
#1364=CARTESIAN_POINT('Ctrl Pts',(154.697131860284,-156.421317680474,-9.00000000000001));
#1365=CARTESIAN_POINT('Ctrl Pts',(155.055948173404,-156.560287198918,-9.00000000000001));
#1366=CARTESIAN_POINT('Ctrl Pts',(155.423296970078,-156.642555185367,-9.00000000000001));
#1367=CARTESIAN_POINT('Ctrl Pts',(155.792009090196,-156.684632649351,-9.00000000000001));
#1368=CARTESIAN_POINT('Ctrl Pts',(156.160721210315,-156.726710113335,-9.));
#1369=CARTESIAN_POINT('Ctrl Pts',(156.530796653878,-156.728597054853,-9.));
#1370=CARTESIAN_POINT('Ctrl Pts',(156.904795779305,-156.728597054853,-9.));
#1371=CARTESIAN_POINT('',(156.904795779305,-156.728597054853,0.));
#1372=CARTESIAN_POINT('Ctrl Pts',(241.826566600152,-151.728597054853,-9.));
#1373=CARTESIAN_POINT('Ctrl Pts',(241.826566600152,-151.728597054853,-2.));
#1374=CARTESIAN_POINT('Ctrl Pts',(241.826566600152,-151.728597054853,5.));
#1375=CARTESIAN_POINT('Ctrl Pts',(241.826566600152,-151.728597054853,12.));
#1376=CARTESIAN_POINT('Ctrl Pts',(241.826566600152,-152.102596180281,-9.));
#1377=CARTESIAN_POINT('Ctrl Pts',(241.826566600152,-152.102596180281,-1.99999999999999));
#1378=CARTESIAN_POINT('Ctrl Pts',(241.826566600152,-152.102596180281,4.99999999999999));
#1379=CARTESIAN_POINT('Ctrl Pts',(241.826566600152,-152.102596180281,12.));
#1380=CARTESIAN_POINT('Ctrl Pts',(241.822760179605,-152.842667812578,-9.00000000000001));
#1381=CARTESIAN_POINT('Ctrl Pts',(241.822760179605,-152.842667812578,-2.00000000000001));
#1382=CARTESIAN_POINT('Ctrl Pts',(241.822760179605,-152.842667812578,5.00000000000002));
#1383=CARTESIAN_POINT('Ctrl Pts',(241.822760179605,-152.842667812578,12.));
#1384=CARTESIAN_POINT('Ctrl Pts',(241.576896782059,-153.944360338573,-9.));
#1385=CARTESIAN_POINT('Ctrl Pts',(241.576896782059,-153.944360338573,-1.99999999999999));
#1386=CARTESIAN_POINT('Ctrl Pts',(241.576896782059,-153.944360338573,4.99999999999999));
#1387=CARTESIAN_POINT('Ctrl Pts',(241.576896782059,-153.944360338573,12.));
#1388=CARTESIAN_POINT('Ctrl Pts',(240.988573705829,-154.995612696455,-9.00000000000001));
#1389=CARTESIAN_POINT('Ctrl Pts',(240.988573705829,-154.995612696455,-2.00000000000001));
#1390=CARTESIAN_POINT('Ctrl Pts',(240.988573705829,-154.995612696455,5.00000000000001));
#1391=CARTESIAN_POINT('Ctrl Pts',(240.988573705829,-154.995612696455,12.));
#1392=CARTESIAN_POINT('Ctrl Pts',(240.093615384749,-155.891002941332,-9.));
#1393=CARTESIAN_POINT('Ctrl Pts',(240.093615384749,-155.891002941332,-2.));
#1394=CARTESIAN_POINT('Ctrl Pts',(240.093615384749,-155.891002941332,5.));
#1395=CARTESIAN_POINT('Ctrl Pts',(240.093615384749,-155.891002941332,12.));
#1396=CARTESIAN_POINT('Ctrl Pts',(239.042764445144,-156.478015548814,-9.00000000000001));
#1397=CARTESIAN_POINT('Ctrl Pts',(239.042764445144,-156.478015548814,-2.));
#1398=CARTESIAN_POINT('Ctrl Pts',(239.042764445144,-156.478015548814,5.));
#1399=CARTESIAN_POINT('Ctrl Pts',(239.042764445144,-156.478015548814,12.));
#1400=CARTESIAN_POINT('Ctrl Pts',(237.940717755904,-156.724820260593,-9.));
#1401=CARTESIAN_POINT('Ctrl Pts',(237.940717755904,-156.724820260593,-2.00000000000002));
#1402=CARTESIAN_POINT('Ctrl Pts',(237.940717755904,-156.724820260593,5.00000000000002));
#1403=CARTESIAN_POINT('Ctrl Pts',(237.940717755904,-156.724820260593,12.));
#1404=CARTESIAN_POINT('Ctrl Pts',(237.20056572558,-156.728597054853,-9.));
#1405=CARTESIAN_POINT('Ctrl Pts',(237.20056572558,-156.728597054853,-1.99999999999999));
#1406=CARTESIAN_POINT('Ctrl Pts',(237.20056572558,-156.728597054853,4.99999999999999));
#1407=CARTESIAN_POINT('Ctrl Pts',(237.20056572558,-156.728597054853,12.));
#1408=CARTESIAN_POINT('Ctrl Pts',(236.826566600152,-156.728597054853,-9.));
#1409=CARTESIAN_POINT('Ctrl Pts',(236.826566600152,-156.728597054853,-2.));
#1410=CARTESIAN_POINT('Ctrl Pts',(236.826566600152,-156.728597054853,5.));
#1411=CARTESIAN_POINT('Ctrl Pts',(236.826566600152,-156.728597054853,12.));
#1412=CARTESIAN_POINT('',(236.826566600152,-156.728597054853,-9.));
#1413=CARTESIAN_POINT('',(236.826566600152,-156.728597054853,0.));
#1414=CARTESIAN_POINT('Ctrl Pts',(236.826566600152,-156.728597054853,-9.));
#1415=CARTESIAN_POINT('Ctrl Pts',(237.20056572558,-156.728597054853,-9.));
#1416=CARTESIAN_POINT('Ctrl Pts',(237.570641740742,-156.726708657723,-9.));
#1417=CARTESIAN_POINT('Ctrl Pts',(237.93935419653,-156.684630340528,-9.));
#1418=CARTESIAN_POINT('Ctrl Pts',(238.308066652318,-156.642552023333,-9.));
#1419=CARTESIAN_POINT('Ctrl Pts',(238.675415548731,-156.560283786074,-9.00000000000001));
#1420=CARTESIAN_POINT('Ctrl Pts',(239.034231820205,-156.421314232864,-9.00000000000001));
#1421=CARTESIAN_POINT('Ctrl Pts',(239.393048091679,-156.282344679654,-9.00000000000001));
#1422=CARTESIAN_POINT('Ctrl Pts',(239.743331738214,-156.086673810493,-9.));
#1423=CARTESIAN_POINT('Ctrl Pts',(240.067633281661,-155.839606668433,-9.));
#1424=CARTESIAN_POINT('Ctrl Pts',(240.391934825109,-155.592539526373,-9.));
#1425=CARTESIAN_POINT('Ctrl Pts',(240.690254265469,-155.294076111414,-9.));
#1426=CARTESIAN_POINT('Ctrl Pts',(240.937467831687,-154.969635677621,-9.));
#1427=CARTESIAN_POINT('Ctrl Pts',(241.184681397906,-154.645195243828,-9.));
#1428=CARTESIAN_POINT('Ctrl Pts',(241.380789089982,-154.2947777912,-9.));
#1429=CARTESIAN_POINT('Ctrl Pts',(241.519820168945,-153.935953643887,-9.));
#1430=CARTESIAN_POINT('Ctrl Pts',(241.658851247907,-153.577129496575,-9.));
#1431=CARTESIAN_POINT('Ctrl Pts',(241.740805713756,-153.209898654576,-9.));
#1432=CARTESIAN_POINT('Ctrl Pts',(241.782734551817,-152.841265325503,-9.));
#1433=CARTESIAN_POINT('Ctrl Pts',(241.824663389879,-152.472631996429,-9.));
#1434=CARTESIAN_POINT('Ctrl Pts',(241.826566600152,-152.102596180281,-9.));
#1435=CARTESIAN_POINT('Ctrl Pts',(241.826566600152,-151.728597054853,-9.));
#1436=CARTESIAN_POINT('Origin',(196.865681189729,-100.937975892445,-9.));
#1437=CARTESIAN_POINT('',(241.826566600152,-156.728597054853,-9.));
#1438=CARTESIAN_POINT('',(151.904795779305,-45.1473547300369,-9.));
#1439=CARTESIAN_POINT('Origin',(196.865681189729,-100.937975892445,-5.9));
#1440=CARTESIAN_POINT('',(156.904795779305,-151.728597054853,-5.9));
#1441=CARTESIAN_POINT('',(156.904795779305,-50.1473547300369,-5.9));
#1442=CARTESIAN_POINT('',(156.904795779305,-75.542665311241,-5.9));
#1443=CARTESIAN_POINT('',(236.826566600152,-151.728597054853,-5.9));
#1444=CARTESIAN_POINT('',(176.885238484517,-151.728597054853,-5.9));
#1445=CARTESIAN_POINT('',(236.826566600152,-50.1473547300369,-5.9));
#1446=CARTESIAN_POINT('',(236.826566600152,-126.333286473649,-5.9));
#1447=CARTESIAN_POINT('',(216.84612389494,-50.1473547300369,-5.9));
#1448=CARTESIAN_POINT('Origin',(236.826566600152,-151.728597054853,0.));
#1449=CARTESIAN_POINT('',(236.826566600152,-151.728597054853,0.));
#1450=CARTESIAN_POINT('',(236.826566600152,-50.1473547300369,0.));
#1451=CARTESIAN_POINT('Origin',(156.904795779305,-151.728597054853,0.));
#1452=CARTESIAN_POINT('',(156.904795779305,-151.728597054853,0.));
#1453=CARTESIAN_POINT('Origin',(241.826566600152,-156.728597054853,0.));
#1454=CARTESIAN_POINT('Origin',(156.904795779305,-50.1473547300369,0.));
#1455=CARTESIAN_POINT('',(156.904795779305,-50.1473547300369,0.));
#1456=CARTESIAN_POINT('Origin',(236.826566600152,-50.1473547300369,0.));
#1457=CARTESIAN_POINT('Origin',(151.904795779305,-45.1473547300369,0.));
#1458=UNCERTAINTY_MEASURE_WITH_UNIT(LENGTH_MEASURE(0.01),#1462,
'DISTANCE_ACCURACY_VALUE',
'Maximum model space distance between geometric entities at asserted c
onnectivities');
#1459=UNCERTAINTY_MEASURE_WITH_UNIT(LENGTH_MEASURE(0.01),#1462,
'DISTANCE_ACCURACY_VALUE',
'Maximum model space distance between geometric entities at asserted c
onnectivities');
#1460=(
GEOMETRIC_REPRESENTATION_CONTEXT(3)
GLOBAL_UNCERTAINTY_ASSIGNED_CONTEXT((#1458))
GLOBAL_UNIT_ASSIGNED_CONTEXT((#1462,#1463,#1464))
REPRESENTATION_CONTEXT('','3D')
);
#1461=(
GEOMETRIC_REPRESENTATION_CONTEXT(3)
GLOBAL_UNCERTAINTY_ASSIGNED_CONTEXT((#1459))
GLOBAL_UNIT_ASSIGNED_CONTEXT((#1462,#1463,#1464))
REPRESENTATION_CONTEXT('','3D')
);
#1462=(
LENGTH_UNIT()
NAMED_UNIT(*)
SI_UNIT(.MILLI.,.METRE.)
);
#1463=(
NAMED_UNIT(*)
PLANE_ANGLE_UNIT()
SI_UNIT($,.RADIAN.)
);
#1464=(
NAMED_UNIT(*)
SI_UNIT($,.STERADIAN.)
SOLID_ANGLE_UNIT()
);
#1465=SHAPE_DEFINITION_REPRESENTATION(#1466,#1467);
#1466=PRODUCT_DEFINITION_SHAPE('',$,#1469);
#1467=SHAPE_REPRESENTATION('',(#530),#1460);
#1468=PRODUCT_DEFINITION_CONTEXT('part definition',#1473,'design');
#1469=PRODUCT_DEFINITION('Stardance PCB 1','Stardance hackpad',#1470,#1468);
#1470=PRODUCT_DEFINITION_FORMATION('',$,#1475);
#1471=PRODUCT_RELATED_PRODUCT_CATEGORY('Stardance hackpad',
'Stardance hackpad',(#1475));
#1472=APPLICATION_PROTOCOL_DEFINITION('international standard',
'automotive_design',2009,#1473);
#1473=APPLICATION_CONTEXT(
'Core Data for Automotive Mechanical Design Process');
#1474=PRODUCT_CONTEXT('part definition',#1473,'mechanical');
#1475=PRODUCT('Stardance PCB 1','Stardance hackpad',
'KiCad electronic assembly',(#1474));
#1476=PRESENTATION_STYLE_ASSIGNMENT((#1477));
#1477=SURFACE_STYLE_USAGE(.BOTH.,#1478);
#1478=SURFACE_SIDE_STYLE('',(#1479));
#1479=SURFACE_STYLE_FILL_AREA(#1480);
#1480=FILL_AREA_STYLE('Steel - Satin',(#1481));
#1481=FILL_AREA_STYLE_COLOUR('Steel - Satin',#1482);
#1482=COLOUR_RGB('Steel - Satin',0.627450980392157,0.627450980392157,0.627450980392157);
ENDSEC;
END-ISO-10303-21;
