%TF.GenerationSoftware,KiCad,Pcbnew,10.0.1*%
%TF.CreationDate,2026-08-09T10:55:52+10:00*%
%TF.ProjectId,Hackpad for stardance,4861636b-7061-4642-9066-6f7220737461,rev?*%
%TF.SameCoordinates,Original*%
%TF.FileFunction,Copper,L1,Top*%
%TF.FilePolarity,Positive*%
%FSLAX46Y46*%
G04 Gerber Fmt 4.6, Leading zero omitted, Abs format (unit mm)*
G04 Created by KiCad (PCBNEW 10.0.1) date 2026-08-09 10:55:52*
%MOMM*%
%LPD*%
G01*
G04 APERTURE LIST*
G04 Aperture macros list*
%AMRoundRect*
0 Rectangle with rounded corners*
0 $1 Rounding radius*
0 $2 $3 $4 $5 $6 $7 $8 $9 X,Y pos of 4 corners*
0 Add a 4 corners polygon primitive as box body*
4,1,4,$2,$3,$4,$5,$6,$7,$8,$9,$2,$3,0*
0 Add four circle primitives for the rounded corners*
1,1,$1+$1,$2,$3*
1,1,$1+$1,$4,$5*
1,1,$1+$1,$6,$7*
1,1,$1+$1,$8,$9*
0 Add four rect primitives between the rounded corners*
20,1,$1+$1,$2,$3,$4,$5,0*
20,1,$1+$1,$4,$5,$6,$7,0*
20,1,$1+$1,$6,$7,$8,$9,0*
20,1,$1+$1,$8,$9,$2,$3,0*%
G04 Aperture macros list end*
%TA.AperFunction,ComponentPad*%
%ADD10RoundRect,0.250000X-0.550000X-0.550000X0.550000X-0.550000X0.550000X0.550000X-0.550000X0.550000X0*%
%TD*%
%TA.AperFunction,ComponentPad*%
%ADD11C,1.600000*%
%TD*%
%TA.AperFunction,ComponentPad*%
%ADD12C,2.200000*%
%TD*%
%TA.AperFunction,SMDPad,CuDef*%
%ADD13RoundRect,0.152400X0.609600X-1.063600X0.609600X1.063600X-0.609600X1.063600X-0.609600X-1.063600X0*%
%TD*%
%TA.AperFunction,ComponentPad*%
%ADD14C,1.524000*%
%TD*%
%TA.AperFunction,SMDPad,CuDef*%
%ADD15RoundRect,0.152400X-0.609600X1.063600X-0.609600X-1.063600X0.609600X-1.063600X0.609600X1.063600X0*%
%TD*%
%TA.AperFunction,ComponentPad*%
%ADD16R,2.000000X2.000000*%
%TD*%
%TA.AperFunction,ComponentPad*%
%ADD17C,2.000000*%
%TD*%
%TA.AperFunction,ComponentPad*%
%ADD18R,3.200000X2.000000*%
%TD*%
%TA.AperFunction,ComponentPad*%
%ADD19R,1.700000X1.700000*%
%TD*%
%TA.AperFunction,ComponentPad*%
%ADD20O,1.700000X1.700000*%
%TD*%
%TA.AperFunction,ViaPad*%
%ADD21C,0.600000*%
%TD*%
%TA.AperFunction,Conductor*%
%ADD22C,0.200000*%
%TD*%
G04 APERTURE END LIST*
D10*
%TO.P,D2,1,K_1*%
%TO.N,/COL3*%
X180960000Y-77940000D03*
D11*
%TO.P,D2,2,A_2*%
%TO.N,Net-(D2-A)*%
X188580000Y-77940000D03*
%TD*%
D12*
%TO.P,SW10,1,1_1*%
%TO.N,Net-(D9-A)*%
X209030000Y-135020000D03*
%TO.P,SW10,2,2_2*%
%TO.N,/ROW 4*%
X202680000Y-137560000D03*
%TD*%
%TO.P,SW3,1,1_1*%
%TO.N,Net-(D2-A)*%
X171000000Y-115970000D03*
%TO.P,SW3,2,2_2*%
%TO.N,/ROW 2*%
X164650000Y-118510000D03*
%TD*%
%TO.P,SW5,1,1_1*%
%TO.N,Net-(D4-A)*%
X190180000Y-96870000D03*
%TO.P,SW5,2,2_2*%
%TO.N,/ROW 3*%
X183830000Y-99410000D03*
%TD*%
%TO.P,SW7,1,1_1*%
%TO.N,Net-(D6-A)*%
X189920000Y-135030000D03*
%TO.P,SW7,2,2_2*%
%TO.N,/ROW 3*%
X183570000Y-137570000D03*
%TD*%
D10*
%TO.P,D6,1,K_1*%
%TO.N,/COL3*%
X197400000Y-82260000D03*
D11*
%TO.P,D6,2,A_2*%
%TO.N,Net-(D6-A)*%
X205020000Y-82260000D03*
%TD*%
D10*
%TO.P,D9,1,K_1*%
%TO.N,/COL3*%
X180980000Y-87290000D03*
D11*
%TO.P,D9,2,A_2*%
%TO.N,Net-(D9-A)*%
X188600000Y-87290000D03*
%TD*%
D10*
%TO.P,D4,1,K_1*%
%TO.N,/COL 1*%
X175070000Y-82480000D03*
D11*
%TO.P,D4,2,A_2*%
%TO.N,Net-(D4-A)*%
X182690000Y-82480000D03*
%TD*%
D12*
%TO.P,SW4,1,1_1*%
%TO.N,Net-(D3-A)*%
X170860000Y-135020000D03*
%TO.P,SW4,2,2_2*%
%TO.N,/ROW 2*%
X164510000Y-137560000D03*
%TD*%
D13*
%TO.P,U1,1,PA02_A0_D0_1*%
%TO.N,/GPIO 1*%
X232131500Y-53825000D03*
D14*
X232131500Y-54660000D03*
D13*
%TO.P,U1,2,PA4_A1_D1_2*%
%TO.N,/GPIO 2*%
X229591500Y-53825000D03*
D14*
X229591500Y-54660000D03*
D13*
%TO.P,U1,3,PA10_A2_D2_3*%
%TO.N,/ROW 1*%
X227051500Y-53825000D03*
D14*
X227051500Y-54660000D03*
D13*
%TO.P,U1,4,PA11_A3_D3_4*%
%TO.N,/ROW 2*%
X224511500Y-53825000D03*
D14*
X224511500Y-54660000D03*
D13*
%TO.P,U1,5,PA8_A4_D4_SDA_5*%
%TO.N,/SDA*%
X221971500Y-53825000D03*
D14*
X221971500Y-54660000D03*
D13*
%TO.P,U1,6,PA9_A5_D5_SCL_6*%
%TO.N,/SCL*%
X219431500Y-53825000D03*
D14*
X219431500Y-54660000D03*
D13*
%TO.P,U1,7,PB08_A6_D6_TX_7*%
%TO.N,/ROW 3*%
X216891500Y-53825000D03*
D14*
X216891500Y-54660000D03*
%TO.P,U1,8,PB09_A7_D7_RX_8*%
%TO.N,/ROW 4*%
X216891500Y-69900000D03*
D15*
X216891500Y-70735000D03*
D14*
%TO.P,U1,9,PA7_A8_D8_SCK_9*%
%TO.N,/COL3*%
X219431500Y-69900000D03*
D15*
X219431500Y-70735000D03*
D14*
%TO.P,U1,10,PA5_A9_D9_MISO_10*%
%TO.N,/COL2*%
X221971500Y-69900000D03*
D15*
X221971500Y-70735000D03*
D14*
%TO.P,U1,11,PA6_A10_D10_MOSI_11*%
%TO.N,/COL 1*%
X224511500Y-69900000D03*
D15*
X224511500Y-70735000D03*
D14*
%TO.P,U1,12,3V3_12*%
%TO.N,+3.3V*%
X227051500Y-69900000D03*
D15*
X227051500Y-70735000D03*
D14*
%TO.P,U1,13,GND_13*%
%TO.N,GND*%
X229591500Y-69900000D03*
D15*
X229591500Y-70735000D03*
D14*
%TO.P,U1,14,5V_14*%
%TO.N,+5V*%
X232131500Y-69900000D03*
D15*
X232131500Y-70735000D03*
%TD*%
D12*
%TO.P,SW11,1,1_1*%
%TO.N,Net-(D10-A)*%
X228380000Y-77730000D03*
%TO.P,SW11,2,2_2*%
%TO.N,/ROW 1*%
X222030000Y-80270000D03*
%TD*%
D10*
%TO.P,D10,1,K_1*%
%TO.N,/COL 1*%
X169810000Y-87290000D03*
D11*
%TO.P,D10,2,A_2*%
%TO.N,Net-(D10-A)*%
X177430000Y-87290000D03*
%TD*%
D10*
%TO.P,D8,1,K_1*%
%TO.N,/COL2*%
X192150000Y-87290000D03*
D11*
%TO.P,D8,2,A_2*%
%TO.N,Net-(D8-A)*%
X199770000Y-87290000D03*
%TD*%
D10*
%TO.P,D1,1,K_1*%
%TO.N,/COL2*%
X192130000Y-78160000D03*
D11*
%TO.P,D1,2,A_2*%
%TO.N,Net-(D1-A)*%
X199750000Y-78160000D03*
%TD*%
D12*
%TO.P,SW9,1,1_1*%
%TO.N,Net-(D8-A)*%
X209170000Y-115970000D03*
%TO.P,SW9,2,2_2*%
%TO.N,/ROW 4*%
X202820000Y-118510000D03*
%TD*%
D16*
%TO.P,SW2,A,A_A*%
%TO.N,/GPIO 1*%
X218950000Y-137950000D03*
D17*
%TO.P,SW2,B,B_B*%
%TO.N,/GPIO 2*%
X218950000Y-142950000D03*
%TO.P,SW2,C,C_C*%
%TO.N,GND*%
X218950000Y-140450000D03*
D18*
%TO.P,SW2,MP*%
%TO.N,N/C*%
X226450000Y-134850000D03*
X226450000Y-146050000D03*
D17*
%TO.P,SW2,S1*%
X233450000Y-142950000D03*
%TO.P,SW2,S2*%
X233450000Y-137950000D03*
%TD*%
D12*
%TO.P,SW13,1,1_1*%
%TO.N,Net-(D12-A)*%
X228120000Y-115890000D03*
%TO.P,SW13,2,2_2*%
%TO.N,/ROW 1*%
X221770000Y-118430000D03*
%TD*%
D10*
%TO.P,D3,1,K_1*%
%TO.N,/COL 1*%
X163640000Y-82480000D03*
D11*
%TO.P,D3,2,A_2*%
%TO.N,Net-(D3-A)*%
X171260000Y-82480000D03*
%TD*%
D10*
%TO.P,D5,1,K_1*%
%TO.N,/COL2*%
X186240000Y-82480000D03*
D11*
%TO.P,D5,2,A_2*%
%TO.N,Net-(D5-A)*%
X193860000Y-82480000D03*
%TD*%
D19*
%TO.P,J1,1,Pin_1_1*%
%TO.N,GND*%
X203930000Y-60410000D03*
D20*
%TO.P,J1,2,Pin_2_2*%
%TO.N,+3.3V*%
X203930000Y-62950000D03*
%TO.P,J1,3,Pin_3_3*%
%TO.N,/SCL*%
X203930000Y-65490000D03*
%TO.P,J1,4,Pin_4_4*%
%TO.N,/SDA*%
X203930000Y-68030000D03*
%TD*%
D10*
%TO.P,D7,1,K_1*%
%TO.N,/COL 1*%
X203970000Y-87290000D03*
D11*
%TO.P,D7,2,A_2*%
%TO.N,Net-(D7-A)*%
X211590000Y-87290000D03*
%TD*%
D10*
%TO.P,D12,1,K_1*%
%TO.N,/COL3*%
X203640000Y-78270000D03*
D11*
%TO.P,D12,2,A_2*%
%TO.N,Net-(D12-A)*%
X211260000Y-78270000D03*
%TD*%
D12*
%TO.P,SW6,1,1_1*%
%TO.N,Net-(D5-A)*%
X190060000Y-115980000D03*
%TO.P,SW6,2,2_2*%
%TO.N,/ROW 3*%
X183710000Y-118520000D03*
%TD*%
D10*
%TO.P,D11,1,K_1*%
%TO.N,/COL2*%
X169620000Y-78050000D03*
D11*
%TO.P,D11,2,A_2*%
%TO.N,Net-(D11-A)*%
X177240000Y-78050000D03*
%TD*%
D12*
%TO.P,SW12,1,1_1*%
%TO.N,Net-(D11-A)*%
X228260000Y-96840000D03*
%TO.P,SW12,2,2_2*%
%TO.N,/ROW 1*%
X221910000Y-99380000D03*
%TD*%
%TO.P,SW1,1,1_1*%
%TO.N,Net-(D1-A)*%
X171120000Y-96860000D03*
%TO.P,SW1,2,2_2*%
%TO.N,/ROW 2*%
X164770000Y-99400000D03*
%TD*%
%TO.P,SW8,1,1_1*%
%TO.N,Net-(D7-A)*%
X209290000Y-96860000D03*
%TO.P,SW8,2,2_2*%
%TO.N,/ROW 4*%
X202940000Y-99400000D03*
%TD*%
D21*
%TO.N,Net-(D9-A)*%
X193950600Y-111759500D03*
%TO.N,Net-(D11-A)*%
X179732800Y-88850300D03*
%TO.N,Net-(D12-A)*%
X214091500Y-115890000D03*
%TO.N,/ROW 3*%
X195455400Y-89069300D03*
%TD*%
%TO.N,/COL2*%
D22*
X221971500Y-70735000D02*
X221971500Y-69900000D01*
X192130000Y-78160000D02*
X192130000Y-87270000D01*
X192130000Y-87270000D02*
X192150000Y-87290000D01*
%TO.N,/COL3*%
X180960000Y-77940000D02*
X180960000Y-87270000D01*
X219431500Y-70735000D02*
X219431500Y-69900000D01*
X180960000Y-87270000D02*
X180980000Y-87290000D01*
%TO.N,Net-(D2-A)*%
X181532400Y-82074500D02*
X185666900Y-77940000D01*
X175061700Y-95089800D02*
X182082700Y-88068800D01*
X171000000Y-115970000D02*
X175061700Y-111908300D01*
X181532400Y-84577800D02*
X181532400Y-82074500D01*
X185666900Y-77940000D02*
X188580000Y-77940000D01*
X175061700Y-111908300D02*
X175061700Y-95089800D01*
X182082700Y-85128100D02*
X181532400Y-84577800D01*
X182082700Y-88068800D02*
X182082700Y-85128100D01*
%TO.N,/COL 1*%
X224511500Y-70735000D02*
X224511500Y-69900000D01*
%TO.N,Net-(D3-A)*%
X171933200Y-111790300D02*
X169556900Y-114166600D01*
X171024400Y-118637500D02*
X171024400Y-134855600D01*
X171933200Y-98586800D02*
X171933200Y-111790300D01*
X172541600Y-83761600D02*
X172541600Y-97978400D01*
X171260000Y-82480000D02*
X172541600Y-83761600D01*
X171024400Y-134855600D02*
X170860000Y-135020000D01*
X169556900Y-114166600D02*
X169556900Y-117170000D01*
X172541600Y-97978400D02*
X171933200Y-98586800D01*
X169556900Y-117170000D02*
X171024400Y-118637500D01*
%TO.N,Net-(D4-A)*%
X182690000Y-82480000D02*
X182690000Y-89380000D01*
X182690000Y-89380000D02*
X190180000Y-96870000D01*
%TO.N,Net-(D5-A)*%
X194566500Y-111994500D02*
X194566500Y-83186500D01*
X190581000Y-115980000D02*
X194566500Y-111994500D01*
X190060000Y-115980000D02*
X190581000Y-115980000D01*
X194566500Y-83186500D02*
X193860000Y-82480000D01*
%TO.N,Net-(D6-A)*%
X203239100Y-82260000D02*
X205020000Y-82260000D01*
X198501200Y-126448800D02*
X198501200Y-86997900D01*
X198501200Y-86997900D02*
X203239100Y-82260000D01*
X189920000Y-135030000D02*
X198501200Y-126448800D01*
%TO.N,Net-(D7-A)*%
X211590000Y-87290000D02*
X211590000Y-94560000D01*
X211590000Y-94560000D02*
X209290000Y-96860000D01*
%TO.N,Net-(D8-A)*%
X199770000Y-106570000D02*
X209170000Y-115970000D01*
X199770000Y-87290000D02*
X199770000Y-106570000D01*
%TO.N,Net-(D9-A)*%
X194164800Y-92854800D02*
X188600000Y-87290000D01*
X194164800Y-111545300D02*
X194164800Y-92854800D01*
X193950600Y-111759500D02*
X194164800Y-111545300D01*
%TO.N,Net-(D11-A)*%
X179732800Y-80542800D02*
X179732800Y-88850300D01*
X177240000Y-78050000D02*
X179732800Y-80542800D01*
%TO.N,Net-(D12-A)*%
X211260000Y-78270000D02*
X214091500Y-81101500D01*
X214091500Y-81101500D02*
X214091500Y-115890000D01*
%TO.N,GND*%
X222250000Y-132859000D02*
X222250000Y-137150000D01*
X232331800Y-73475300D02*
X232331800Y-122777200D01*
X229591500Y-70735000D02*
X229591500Y-69900000D01*
X232331800Y-122777200D02*
X222250000Y-132859000D01*
X229591500Y-70735000D02*
X232331800Y-73475300D01*
X222250000Y-137150000D02*
X218950000Y-140450000D01*
%TO.N,+3.3V*%
X227051500Y-70735000D02*
X227051500Y-69900000D01*
%TO.N,/SDA*%
X221971500Y-54660000D02*
X221971500Y-53825000D01*
%TO.N,/SCL*%
X219431500Y-54660000D02*
X219431500Y-53825000D01*
%TO.N,/ROW 2*%
X164941300Y-99571300D02*
X164941300Y-118218700D01*
X164821300Y-118681300D02*
X164821300Y-137248700D01*
X164941300Y-118218700D02*
X164650000Y-118510000D01*
X164650000Y-118510000D02*
X164821300Y-118681300D01*
X224511500Y-54660000D02*
X224511500Y-53825000D01*
X164770000Y-99400000D02*
X164941300Y-99571300D01*
X164821300Y-137248700D02*
X164510000Y-137560000D01*
%TO.N,/GPIO 2*%
X229591500Y-54660000D02*
X229591500Y-53825000D01*
X218950000Y-142950000D02*
X223600000Y-138300000D01*
X233199400Y-123950400D02*
X233199400Y-58267900D01*
X233199400Y-58267900D02*
X229591500Y-54660000D01*
X223600000Y-133549800D02*
X233199400Y-123950400D01*
X223600000Y-138300000D02*
X223600000Y-133549800D01*
%TO.N,/GPIO 1*%
X218950000Y-137950000D02*
X218950000Y-73595900D01*
X225781500Y-52717500D02*
X226249000Y-52250000D01*
X218950000Y-73595900D02*
X220546000Y-71999900D01*
X225781500Y-54928000D02*
X225781500Y-52717500D01*
X220546000Y-60163500D02*
X225781500Y-54928000D01*
X220546000Y-71999900D02*
X220546000Y-60163500D01*
X230556500Y-52250000D02*
X232131500Y-53825000D01*
X226249000Y-52250000D02*
X230556500Y-52250000D01*
X232131500Y-54660000D02*
X232131500Y-53825000D01*
%TO.N,/ROW 3*%
X183830000Y-99410000D02*
X184001300Y-99581300D01*
X183881300Y-137258700D02*
X183570000Y-137570000D01*
X195455400Y-89069300D02*
X216891500Y-67633200D01*
X184001300Y-99581300D02*
X184001300Y-118228700D01*
X184001300Y-118228700D02*
X183710000Y-118520000D01*
X183710000Y-118520000D02*
X183881300Y-118691300D01*
X216891500Y-67633200D02*
X216891500Y-54660000D01*
X216891500Y-54660000D02*
X216891500Y-53825000D01*
X183881300Y-118691300D02*
X183881300Y-137258700D01*
%TO.N,/ROW 4*%
X207859700Y-94480300D02*
X207859700Y-79766800D01*
X202991300Y-137248700D02*
X202680000Y-137560000D01*
X202991300Y-118681300D02*
X202991300Y-137248700D01*
X207859700Y-79766800D02*
X216891500Y-70735000D01*
X202820000Y-118510000D02*
X202991300Y-118681300D01*
X202940000Y-99400000D02*
X207859700Y-94480300D01*
X216891500Y-70735000D02*
X216891500Y-69900000D01*
%TO.N,/ROW 1*%
X222060100Y-99530100D02*
X221910000Y-99380000D01*
X225789400Y-76510600D02*
X225789400Y-55922100D01*
X222030000Y-80270000D02*
X225789400Y-76510600D01*
X222060100Y-118139900D02*
X222060100Y-99530100D01*
X222201300Y-99088700D02*
X221910000Y-99380000D01*
X222201300Y-80441300D02*
X222201300Y-99088700D01*
X227051500Y-54660000D02*
X227051500Y-53825000D01*
X221770000Y-118430000D02*
X222060100Y-118139900D01*
X222030000Y-80270000D02*
X222201300Y-80441300D01*
X225789400Y-55922100D02*
X227051500Y-54660000D01*
%TO.N,+5V*%
X232131500Y-70735000D02*
X232131500Y-69900000D01*
%TD*%
M02*
