M48
; DRILL file KiCad 10.0.1 date 2026-08-09T10:55:54
; FORMAT={-:-/ absolute / metric / decimal}
; #@! TF.CreationDate,2026-08-09T10:55:54+10:00
; #@! TF.GenerationSoftware,Kicad,Pcbnew,10.0.1
; #@! TF.FileFunction,NonPlated,1,2,NPTH
FMAT,2
METRIC
; #@! TA.AperFunction,NonPlated,NPTH,ComponentDrill
T1C1.700
; #@! TA.AperFunction,NonPlated,NPTH,ComponentDrill
T2C4.000
%
G90
G05
T1
X163.24Y-140.1
X163.38Y-121.05
X163.5Y-101.94
X173.4Y-140.1
X173.54Y-121.05
X173.66Y-101.94
X182.3Y-140.11
X182.44Y-121.06
X182.56Y-101.95
X192.46Y-140.11
X192.6Y-121.06
X192.72Y-101.95
X201.41Y-140.1
X201.55Y-121.05
X201.67Y-101.94
X211.57Y-140.1
X211.71Y-121.05
X211.83Y-101.94
X220.5Y-120.97
X220.64Y-101.92
X220.76Y-82.81
X230.66Y-120.97
X230.8Y-101.92
X230.92Y-82.81
T2
X168.32Y-140.1
X168.46Y-121.05
X168.58Y-101.94
X187.38Y-140.11
X187.52Y-121.06
X187.64Y-101.95
X206.49Y-140.1
X206.63Y-121.05
X206.75Y-101.94
X225.58Y-120.97
X225.72Y-101.92
X225.84Y-82.81
M30
