%TF.GenerationSoftware,KiCad,Pcbnew,10.0.1*%
%TF.CreationDate,2026-08-09T10:55:52+10:00*%
%TF.ProjectId,Hackpad for stardance,4861636b-7061-4642-9066-6f7220737461,rev?*%
%TF.SameCoordinates,Original*%
%TF.FileFunction,Legend,Top*%
%TF.FilePolarity,Positive*%
%FSLAX46Y46*%
G04 Gerber Fmt 4.6, Leading zero omitted, Abs format (unit mm)*
G04 Created by KiCad (PCBNEW 10.0.1) date 2026-08-09 10:55:52*
%MOMM*%
%LPD*%
G01*
G04 APERTURE LIST*
%ADD10C,0.150000*%
%ADD11C,0.101600*%
%ADD12C,0.120000*%
%ADD13C,0.127000*%
%ADD14C,0.100000*%
%ADD15C,0.504000*%
%ADD16C,0.040000*%
G04 APERTURE END LIST*
D10*
X184031905Y-76274819D02*
X184031905Y-75274819D01*
X184031905Y-75274819D02*
X184270000Y-75274819D01*
X184270000Y-75274819D02*
X184412857Y-75322438D01*
X184412857Y-75322438D02*
X184508095Y-75417676D01*
X184508095Y-75417676D02*
X184555714Y-75512914D01*
X184555714Y-75512914D02*
X184603333Y-75703390D01*
X184603333Y-75703390D02*
X184603333Y-75846247D01*
X184603333Y-75846247D02*
X184555714Y-76036723D01*
X184555714Y-76036723D02*
X184508095Y-76131961D01*
X184508095Y-76131961D02*
X184412857Y-76227200D01*
X184412857Y-76227200D02*
X184270000Y-76274819D01*
X184270000Y-76274819D02*
X184031905Y-76274819D01*
X184984286Y-75370057D02*
X185031905Y-75322438D01*
X185031905Y-75322438D02*
X185127143Y-75274819D01*
X185127143Y-75274819D02*
X185365238Y-75274819D01*
X185365238Y-75274819D02*
X185460476Y-75322438D01*
X185460476Y-75322438D02*
X185508095Y-75370057D01*
X185508095Y-75370057D02*
X185555714Y-75465295D01*
X185555714Y-75465295D02*
X185555714Y-75560533D01*
X185555714Y-75560533D02*
X185508095Y-75703390D01*
X185508095Y-75703390D02*
X184936667Y-76274819D01*
X184936667Y-76274819D02*
X185555714Y-76274819D01*
X180698095Y-76594819D02*
X180698095Y-75594819D01*
X181269523Y-76594819D02*
X180840952Y-76023390D01*
X181269523Y-75594819D02*
X180698095Y-76166247D01*
X204680476Y-132633200D02*
X204823333Y-132680819D01*
X204823333Y-132680819D02*
X205061428Y-132680819D01*
X205061428Y-132680819D02*
X205156666Y-132633200D01*
X205156666Y-132633200D02*
X205204285Y-132585580D01*
X205204285Y-132585580D02*
X205251904Y-132490342D01*
X205251904Y-132490342D02*
X205251904Y-132395104D01*
X205251904Y-132395104D02*
X205204285Y-132299866D01*
X205204285Y-132299866D02*
X205156666Y-132252247D01*
X205156666Y-132252247D02*
X205061428Y-132204628D01*
X205061428Y-132204628D02*
X204870952Y-132157009D01*
X204870952Y-132157009D02*
X204775714Y-132109390D01*
X204775714Y-132109390D02*
X204728095Y-132061771D01*
X204728095Y-132061771D02*
X204680476Y-131966533D01*
X204680476Y-131966533D02*
X204680476Y-131871295D01*
X204680476Y-131871295D02*
X204728095Y-131776057D01*
X204728095Y-131776057D02*
X204775714Y-131728438D01*
X204775714Y-131728438D02*
X204870952Y-131680819D01*
X204870952Y-131680819D02*
X205109047Y-131680819D01*
X205109047Y-131680819D02*
X205251904Y-131728438D01*
X205585238Y-131680819D02*
X205823333Y-132680819D01*
X205823333Y-132680819D02*
X206013809Y-131966533D01*
X206013809Y-131966533D02*
X206204285Y-132680819D01*
X206204285Y-132680819D02*
X206442381Y-131680819D01*
X207347142Y-132680819D02*
X206775714Y-132680819D01*
X207061428Y-132680819D02*
X207061428Y-131680819D01*
X207061428Y-131680819D02*
X206966190Y-131823676D01*
X206966190Y-131823676D02*
X206870952Y-131918914D01*
X206870952Y-131918914D02*
X206775714Y-131966533D01*
X207966190Y-131680819D02*
X208061428Y-131680819D01*
X208061428Y-131680819D02*
X208156666Y-131728438D01*
X208156666Y-131728438D02*
X208204285Y-131776057D01*
X208204285Y-131776057D02*
X208251904Y-131871295D01*
X208251904Y-131871295D02*
X208299523Y-132061771D01*
X208299523Y-132061771D02*
X208299523Y-132299866D01*
X208299523Y-132299866D02*
X208251904Y-132490342D01*
X208251904Y-132490342D02*
X208204285Y-132585580D01*
X208204285Y-132585580D02*
X208156666Y-132633200D01*
X208156666Y-132633200D02*
X208061428Y-132680819D01*
X208061428Y-132680819D02*
X207966190Y-132680819D01*
X207966190Y-132680819D02*
X207870952Y-132633200D01*
X207870952Y-132633200D02*
X207823333Y-132585580D01*
X207823333Y-132585580D02*
X207775714Y-132490342D01*
X207775714Y-132490342D02*
X207728095Y-132299866D01*
X207728095Y-132299866D02*
X207728095Y-132061771D01*
X207728095Y-132061771D02*
X207775714Y-131871295D01*
X207775714Y-131871295D02*
X207823333Y-131776057D01*
X207823333Y-131776057D02*
X207870952Y-131728438D01*
X207870952Y-131728438D02*
X207966190Y-131680819D01*
X167126667Y-113583200D02*
X167269524Y-113630819D01*
X167269524Y-113630819D02*
X167507619Y-113630819D01*
X167507619Y-113630819D02*
X167602857Y-113583200D01*
X167602857Y-113583200D02*
X167650476Y-113535580D01*
X167650476Y-113535580D02*
X167698095Y-113440342D01*
X167698095Y-113440342D02*
X167698095Y-113345104D01*
X167698095Y-113345104D02*
X167650476Y-113249866D01*
X167650476Y-113249866D02*
X167602857Y-113202247D01*
X167602857Y-113202247D02*
X167507619Y-113154628D01*
X167507619Y-113154628D02*
X167317143Y-113107009D01*
X167317143Y-113107009D02*
X167221905Y-113059390D01*
X167221905Y-113059390D02*
X167174286Y-113011771D01*
X167174286Y-113011771D02*
X167126667Y-112916533D01*
X167126667Y-112916533D02*
X167126667Y-112821295D01*
X167126667Y-112821295D02*
X167174286Y-112726057D01*
X167174286Y-112726057D02*
X167221905Y-112678438D01*
X167221905Y-112678438D02*
X167317143Y-112630819D01*
X167317143Y-112630819D02*
X167555238Y-112630819D01*
X167555238Y-112630819D02*
X167698095Y-112678438D01*
X168031429Y-112630819D02*
X168269524Y-113630819D01*
X168269524Y-113630819D02*
X168460000Y-112916533D01*
X168460000Y-112916533D02*
X168650476Y-113630819D01*
X168650476Y-113630819D02*
X168888572Y-112630819D01*
X169174286Y-112630819D02*
X169793333Y-112630819D01*
X169793333Y-112630819D02*
X169460000Y-113011771D01*
X169460000Y-113011771D02*
X169602857Y-113011771D01*
X169602857Y-113011771D02*
X169698095Y-113059390D01*
X169698095Y-113059390D02*
X169745714Y-113107009D01*
X169745714Y-113107009D02*
X169793333Y-113202247D01*
X169793333Y-113202247D02*
X169793333Y-113440342D01*
X169793333Y-113440342D02*
X169745714Y-113535580D01*
X169745714Y-113535580D02*
X169698095Y-113583200D01*
X169698095Y-113583200D02*
X169602857Y-113630819D01*
X169602857Y-113630819D02*
X169317143Y-113630819D01*
X169317143Y-113630819D02*
X169221905Y-113583200D01*
X169221905Y-113583200D02*
X169174286Y-113535580D01*
X186306667Y-94483200D02*
X186449524Y-94530819D01*
X186449524Y-94530819D02*
X186687619Y-94530819D01*
X186687619Y-94530819D02*
X186782857Y-94483200D01*
X186782857Y-94483200D02*
X186830476Y-94435580D01*
X186830476Y-94435580D02*
X186878095Y-94340342D01*
X186878095Y-94340342D02*
X186878095Y-94245104D01*
X186878095Y-94245104D02*
X186830476Y-94149866D01*
X186830476Y-94149866D02*
X186782857Y-94102247D01*
X186782857Y-94102247D02*
X186687619Y-94054628D01*
X186687619Y-94054628D02*
X186497143Y-94007009D01*
X186497143Y-94007009D02*
X186401905Y-93959390D01*
X186401905Y-93959390D02*
X186354286Y-93911771D01*
X186354286Y-93911771D02*
X186306667Y-93816533D01*
X186306667Y-93816533D02*
X186306667Y-93721295D01*
X186306667Y-93721295D02*
X186354286Y-93626057D01*
X186354286Y-93626057D02*
X186401905Y-93578438D01*
X186401905Y-93578438D02*
X186497143Y-93530819D01*
X186497143Y-93530819D02*
X186735238Y-93530819D01*
X186735238Y-93530819D02*
X186878095Y-93578438D01*
X187211429Y-93530819D02*
X187449524Y-94530819D01*
X187449524Y-94530819D02*
X187640000Y-93816533D01*
X187640000Y-93816533D02*
X187830476Y-94530819D01*
X187830476Y-94530819D02*
X188068572Y-93530819D01*
X188925714Y-93530819D02*
X188449524Y-93530819D01*
X188449524Y-93530819D02*
X188401905Y-94007009D01*
X188401905Y-94007009D02*
X188449524Y-93959390D01*
X188449524Y-93959390D02*
X188544762Y-93911771D01*
X188544762Y-93911771D02*
X188782857Y-93911771D01*
X188782857Y-93911771D02*
X188878095Y-93959390D01*
X188878095Y-93959390D02*
X188925714Y-94007009D01*
X188925714Y-94007009D02*
X188973333Y-94102247D01*
X188973333Y-94102247D02*
X188973333Y-94340342D01*
X188973333Y-94340342D02*
X188925714Y-94435580D01*
X188925714Y-94435580D02*
X188878095Y-94483200D01*
X188878095Y-94483200D02*
X188782857Y-94530819D01*
X188782857Y-94530819D02*
X188544762Y-94530819D01*
X188544762Y-94530819D02*
X188449524Y-94483200D01*
X188449524Y-94483200D02*
X188401905Y-94435580D01*
X186046667Y-132643200D02*
X186189524Y-132690819D01*
X186189524Y-132690819D02*
X186427619Y-132690819D01*
X186427619Y-132690819D02*
X186522857Y-132643200D01*
X186522857Y-132643200D02*
X186570476Y-132595580D01*
X186570476Y-132595580D02*
X186618095Y-132500342D01*
X186618095Y-132500342D02*
X186618095Y-132405104D01*
X186618095Y-132405104D02*
X186570476Y-132309866D01*
X186570476Y-132309866D02*
X186522857Y-132262247D01*
X186522857Y-132262247D02*
X186427619Y-132214628D01*
X186427619Y-132214628D02*
X186237143Y-132167009D01*
X186237143Y-132167009D02*
X186141905Y-132119390D01*
X186141905Y-132119390D02*
X186094286Y-132071771D01*
X186094286Y-132071771D02*
X186046667Y-131976533D01*
X186046667Y-131976533D02*
X186046667Y-131881295D01*
X186046667Y-131881295D02*
X186094286Y-131786057D01*
X186094286Y-131786057D02*
X186141905Y-131738438D01*
X186141905Y-131738438D02*
X186237143Y-131690819D01*
X186237143Y-131690819D02*
X186475238Y-131690819D01*
X186475238Y-131690819D02*
X186618095Y-131738438D01*
X186951429Y-131690819D02*
X187189524Y-132690819D01*
X187189524Y-132690819D02*
X187380000Y-131976533D01*
X187380000Y-131976533D02*
X187570476Y-132690819D01*
X187570476Y-132690819D02*
X187808572Y-131690819D01*
X188094286Y-131690819D02*
X188760952Y-131690819D01*
X188760952Y-131690819D02*
X188332381Y-132690819D01*
X200471905Y-80594819D02*
X200471905Y-79594819D01*
X200471905Y-79594819D02*
X200710000Y-79594819D01*
X200710000Y-79594819D02*
X200852857Y-79642438D01*
X200852857Y-79642438D02*
X200948095Y-79737676D01*
X200948095Y-79737676D02*
X200995714Y-79832914D01*
X200995714Y-79832914D02*
X201043333Y-80023390D01*
X201043333Y-80023390D02*
X201043333Y-80166247D01*
X201043333Y-80166247D02*
X200995714Y-80356723D01*
X200995714Y-80356723D02*
X200948095Y-80451961D01*
X200948095Y-80451961D02*
X200852857Y-80547200D01*
X200852857Y-80547200D02*
X200710000Y-80594819D01*
X200710000Y-80594819D02*
X200471905Y-80594819D01*
X201900476Y-79594819D02*
X201710000Y-79594819D01*
X201710000Y-79594819D02*
X201614762Y-79642438D01*
X201614762Y-79642438D02*
X201567143Y-79690057D01*
X201567143Y-79690057D02*
X201471905Y-79832914D01*
X201471905Y-79832914D02*
X201424286Y-80023390D01*
X201424286Y-80023390D02*
X201424286Y-80404342D01*
X201424286Y-80404342D02*
X201471905Y-80499580D01*
X201471905Y-80499580D02*
X201519524Y-80547200D01*
X201519524Y-80547200D02*
X201614762Y-80594819D01*
X201614762Y-80594819D02*
X201805238Y-80594819D01*
X201805238Y-80594819D02*
X201900476Y-80547200D01*
X201900476Y-80547200D02*
X201948095Y-80499580D01*
X201948095Y-80499580D02*
X201995714Y-80404342D01*
X201995714Y-80404342D02*
X201995714Y-80166247D01*
X201995714Y-80166247D02*
X201948095Y-80071009D01*
X201948095Y-80071009D02*
X201900476Y-80023390D01*
X201900476Y-80023390D02*
X201805238Y-79975771D01*
X201805238Y-79975771D02*
X201614762Y-79975771D01*
X201614762Y-79975771D02*
X201519524Y-80023390D01*
X201519524Y-80023390D02*
X201471905Y-80071009D01*
X201471905Y-80071009D02*
X201424286Y-80166247D01*
X197138095Y-80914819D02*
X197138095Y-79914819D01*
X197709523Y-80914819D02*
X197280952Y-80343390D01*
X197709523Y-79914819D02*
X197138095Y-80486247D01*
X184051905Y-85624819D02*
X184051905Y-84624819D01*
X184051905Y-84624819D02*
X184290000Y-84624819D01*
X184290000Y-84624819D02*
X184432857Y-84672438D01*
X184432857Y-84672438D02*
X184528095Y-84767676D01*
X184528095Y-84767676D02*
X184575714Y-84862914D01*
X184575714Y-84862914D02*
X184623333Y-85053390D01*
X184623333Y-85053390D02*
X184623333Y-85196247D01*
X184623333Y-85196247D02*
X184575714Y-85386723D01*
X184575714Y-85386723D02*
X184528095Y-85481961D01*
X184528095Y-85481961D02*
X184432857Y-85577200D01*
X184432857Y-85577200D02*
X184290000Y-85624819D01*
X184290000Y-85624819D02*
X184051905Y-85624819D01*
X185099524Y-85624819D02*
X185290000Y-85624819D01*
X185290000Y-85624819D02*
X185385238Y-85577200D01*
X185385238Y-85577200D02*
X185432857Y-85529580D01*
X185432857Y-85529580D02*
X185528095Y-85386723D01*
X185528095Y-85386723D02*
X185575714Y-85196247D01*
X185575714Y-85196247D02*
X185575714Y-84815295D01*
X185575714Y-84815295D02*
X185528095Y-84720057D01*
X185528095Y-84720057D02*
X185480476Y-84672438D01*
X185480476Y-84672438D02*
X185385238Y-84624819D01*
X185385238Y-84624819D02*
X185194762Y-84624819D01*
X185194762Y-84624819D02*
X185099524Y-84672438D01*
X185099524Y-84672438D02*
X185051905Y-84720057D01*
X185051905Y-84720057D02*
X185004286Y-84815295D01*
X185004286Y-84815295D02*
X185004286Y-85053390D01*
X185004286Y-85053390D02*
X185051905Y-85148628D01*
X185051905Y-85148628D02*
X185099524Y-85196247D01*
X185099524Y-85196247D02*
X185194762Y-85243866D01*
X185194762Y-85243866D02*
X185385238Y-85243866D01*
X185385238Y-85243866D02*
X185480476Y-85196247D01*
X185480476Y-85196247D02*
X185528095Y-85148628D01*
X185528095Y-85148628D02*
X185575714Y-85053390D01*
X180718095Y-85944819D02*
X180718095Y-84944819D01*
X181289523Y-85944819D02*
X180860952Y-85373390D01*
X181289523Y-84944819D02*
X180718095Y-85516247D01*
X178141905Y-80814819D02*
X178141905Y-79814819D01*
X178141905Y-79814819D02*
X178380000Y-79814819D01*
X178380000Y-79814819D02*
X178522857Y-79862438D01*
X178522857Y-79862438D02*
X178618095Y-79957676D01*
X178618095Y-79957676D02*
X178665714Y-80052914D01*
X178665714Y-80052914D02*
X178713333Y-80243390D01*
X178713333Y-80243390D02*
X178713333Y-80386247D01*
X178713333Y-80386247D02*
X178665714Y-80576723D01*
X178665714Y-80576723D02*
X178618095Y-80671961D01*
X178618095Y-80671961D02*
X178522857Y-80767200D01*
X178522857Y-80767200D02*
X178380000Y-80814819D01*
X178380000Y-80814819D02*
X178141905Y-80814819D01*
X179570476Y-80148152D02*
X179570476Y-80814819D01*
X179332381Y-79767200D02*
X179094286Y-80481485D01*
X179094286Y-80481485D02*
X179713333Y-80481485D01*
X174808095Y-81134819D02*
X174808095Y-80134819D01*
X175379523Y-81134819D02*
X174950952Y-80563390D01*
X175379523Y-80134819D02*
X174808095Y-80706247D01*
X166986667Y-132633200D02*
X167129524Y-132680819D01*
X167129524Y-132680819D02*
X167367619Y-132680819D01*
X167367619Y-132680819D02*
X167462857Y-132633200D01*
X167462857Y-132633200D02*
X167510476Y-132585580D01*
X167510476Y-132585580D02*
X167558095Y-132490342D01*
X167558095Y-132490342D02*
X167558095Y-132395104D01*
X167558095Y-132395104D02*
X167510476Y-132299866D01*
X167510476Y-132299866D02*
X167462857Y-132252247D01*
X167462857Y-132252247D02*
X167367619Y-132204628D01*
X167367619Y-132204628D02*
X167177143Y-132157009D01*
X167177143Y-132157009D02*
X167081905Y-132109390D01*
X167081905Y-132109390D02*
X167034286Y-132061771D01*
X167034286Y-132061771D02*
X166986667Y-131966533D01*
X166986667Y-131966533D02*
X166986667Y-131871295D01*
X166986667Y-131871295D02*
X167034286Y-131776057D01*
X167034286Y-131776057D02*
X167081905Y-131728438D01*
X167081905Y-131728438D02*
X167177143Y-131680819D01*
X167177143Y-131680819D02*
X167415238Y-131680819D01*
X167415238Y-131680819D02*
X167558095Y-131728438D01*
X167891429Y-131680819D02*
X168129524Y-132680819D01*
X168129524Y-132680819D02*
X168320000Y-131966533D01*
X168320000Y-131966533D02*
X168510476Y-132680819D01*
X168510476Y-132680819D02*
X168748572Y-131680819D01*
X169558095Y-132014152D02*
X169558095Y-132680819D01*
X169320000Y-131633200D02*
X169081905Y-132347485D01*
X169081905Y-132347485D02*
X169700952Y-132347485D01*
D11*
X223902690Y-51683479D02*
X223902690Y-52197526D01*
X223902690Y-52197526D02*
X223932928Y-52258002D01*
X223932928Y-52258002D02*
X223963166Y-52288241D01*
X223963166Y-52288241D02*
X224023642Y-52318479D01*
X224023642Y-52318479D02*
X224144595Y-52318479D01*
X224144595Y-52318479D02*
X224205071Y-52288241D01*
X224205071Y-52288241D02*
X224235309Y-52258002D01*
X224235309Y-52258002D02*
X224265547Y-52197526D01*
X224265547Y-52197526D02*
X224265547Y-51683479D01*
X224900547Y-52318479D02*
X224537690Y-52318479D01*
X224719118Y-52318479D02*
X224719118Y-51683479D01*
X224719118Y-51683479D02*
X224658642Y-51774193D01*
X224658642Y-51774193D02*
X224598166Y-51834669D01*
X224598166Y-51834669D02*
X224537690Y-51864907D01*
D10*
X224030476Y-75343200D02*
X224173333Y-75390819D01*
X224173333Y-75390819D02*
X224411428Y-75390819D01*
X224411428Y-75390819D02*
X224506666Y-75343200D01*
X224506666Y-75343200D02*
X224554285Y-75295580D01*
X224554285Y-75295580D02*
X224601904Y-75200342D01*
X224601904Y-75200342D02*
X224601904Y-75105104D01*
X224601904Y-75105104D02*
X224554285Y-75009866D01*
X224554285Y-75009866D02*
X224506666Y-74962247D01*
X224506666Y-74962247D02*
X224411428Y-74914628D01*
X224411428Y-74914628D02*
X224220952Y-74867009D01*
X224220952Y-74867009D02*
X224125714Y-74819390D01*
X224125714Y-74819390D02*
X224078095Y-74771771D01*
X224078095Y-74771771D02*
X224030476Y-74676533D01*
X224030476Y-74676533D02*
X224030476Y-74581295D01*
X224030476Y-74581295D02*
X224078095Y-74486057D01*
X224078095Y-74486057D02*
X224125714Y-74438438D01*
X224125714Y-74438438D02*
X224220952Y-74390819D01*
X224220952Y-74390819D02*
X224459047Y-74390819D01*
X224459047Y-74390819D02*
X224601904Y-74438438D01*
X224935238Y-74390819D02*
X225173333Y-75390819D01*
X225173333Y-75390819D02*
X225363809Y-74676533D01*
X225363809Y-74676533D02*
X225554285Y-75390819D01*
X225554285Y-75390819D02*
X225792381Y-74390819D01*
X226697142Y-75390819D02*
X226125714Y-75390819D01*
X226411428Y-75390819D02*
X226411428Y-74390819D01*
X226411428Y-74390819D02*
X226316190Y-74533676D01*
X226316190Y-74533676D02*
X226220952Y-74628914D01*
X226220952Y-74628914D02*
X226125714Y-74676533D01*
X227649523Y-75390819D02*
X227078095Y-75390819D01*
X227363809Y-75390819D02*
X227363809Y-74390819D01*
X227363809Y-74390819D02*
X227268571Y-74533676D01*
X227268571Y-74533676D02*
X227173333Y-74628914D01*
X227173333Y-74628914D02*
X227078095Y-74676533D01*
X172405714Y-85624819D02*
X172405714Y-84624819D01*
X172405714Y-84624819D02*
X172643809Y-84624819D01*
X172643809Y-84624819D02*
X172786666Y-84672438D01*
X172786666Y-84672438D02*
X172881904Y-84767676D01*
X172881904Y-84767676D02*
X172929523Y-84862914D01*
X172929523Y-84862914D02*
X172977142Y-85053390D01*
X172977142Y-85053390D02*
X172977142Y-85196247D01*
X172977142Y-85196247D02*
X172929523Y-85386723D01*
X172929523Y-85386723D02*
X172881904Y-85481961D01*
X172881904Y-85481961D02*
X172786666Y-85577200D01*
X172786666Y-85577200D02*
X172643809Y-85624819D01*
X172643809Y-85624819D02*
X172405714Y-85624819D01*
X173929523Y-85624819D02*
X173358095Y-85624819D01*
X173643809Y-85624819D02*
X173643809Y-84624819D01*
X173643809Y-84624819D02*
X173548571Y-84767676D01*
X173548571Y-84767676D02*
X173453333Y-84862914D01*
X173453333Y-84862914D02*
X173358095Y-84910533D01*
X174548571Y-84624819D02*
X174643809Y-84624819D01*
X174643809Y-84624819D02*
X174739047Y-84672438D01*
X174739047Y-84672438D02*
X174786666Y-84720057D01*
X174786666Y-84720057D02*
X174834285Y-84815295D01*
X174834285Y-84815295D02*
X174881904Y-85005771D01*
X174881904Y-85005771D02*
X174881904Y-85243866D01*
X174881904Y-85243866D02*
X174834285Y-85434342D01*
X174834285Y-85434342D02*
X174786666Y-85529580D01*
X174786666Y-85529580D02*
X174739047Y-85577200D01*
X174739047Y-85577200D02*
X174643809Y-85624819D01*
X174643809Y-85624819D02*
X174548571Y-85624819D01*
X174548571Y-85624819D02*
X174453333Y-85577200D01*
X174453333Y-85577200D02*
X174405714Y-85529580D01*
X174405714Y-85529580D02*
X174358095Y-85434342D01*
X174358095Y-85434342D02*
X174310476Y-85243866D01*
X174310476Y-85243866D02*
X174310476Y-85005771D01*
X174310476Y-85005771D02*
X174358095Y-84815295D01*
X174358095Y-84815295D02*
X174405714Y-84720057D01*
X174405714Y-84720057D02*
X174453333Y-84672438D01*
X174453333Y-84672438D02*
X174548571Y-84624819D01*
X169548095Y-85944819D02*
X169548095Y-84944819D01*
X170119523Y-85944819D02*
X169690952Y-85373390D01*
X170119523Y-84944819D02*
X169548095Y-85516247D01*
X195221905Y-85624819D02*
X195221905Y-84624819D01*
X195221905Y-84624819D02*
X195460000Y-84624819D01*
X195460000Y-84624819D02*
X195602857Y-84672438D01*
X195602857Y-84672438D02*
X195698095Y-84767676D01*
X195698095Y-84767676D02*
X195745714Y-84862914D01*
X195745714Y-84862914D02*
X195793333Y-85053390D01*
X195793333Y-85053390D02*
X195793333Y-85196247D01*
X195793333Y-85196247D02*
X195745714Y-85386723D01*
X195745714Y-85386723D02*
X195698095Y-85481961D01*
X195698095Y-85481961D02*
X195602857Y-85577200D01*
X195602857Y-85577200D02*
X195460000Y-85624819D01*
X195460000Y-85624819D02*
X195221905Y-85624819D01*
X196364762Y-85053390D02*
X196269524Y-85005771D01*
X196269524Y-85005771D02*
X196221905Y-84958152D01*
X196221905Y-84958152D02*
X196174286Y-84862914D01*
X196174286Y-84862914D02*
X196174286Y-84815295D01*
X196174286Y-84815295D02*
X196221905Y-84720057D01*
X196221905Y-84720057D02*
X196269524Y-84672438D01*
X196269524Y-84672438D02*
X196364762Y-84624819D01*
X196364762Y-84624819D02*
X196555238Y-84624819D01*
X196555238Y-84624819D02*
X196650476Y-84672438D01*
X196650476Y-84672438D02*
X196698095Y-84720057D01*
X196698095Y-84720057D02*
X196745714Y-84815295D01*
X196745714Y-84815295D02*
X196745714Y-84862914D01*
X196745714Y-84862914D02*
X196698095Y-84958152D01*
X196698095Y-84958152D02*
X196650476Y-85005771D01*
X196650476Y-85005771D02*
X196555238Y-85053390D01*
X196555238Y-85053390D02*
X196364762Y-85053390D01*
X196364762Y-85053390D02*
X196269524Y-85101009D01*
X196269524Y-85101009D02*
X196221905Y-85148628D01*
X196221905Y-85148628D02*
X196174286Y-85243866D01*
X196174286Y-85243866D02*
X196174286Y-85434342D01*
X196174286Y-85434342D02*
X196221905Y-85529580D01*
X196221905Y-85529580D02*
X196269524Y-85577200D01*
X196269524Y-85577200D02*
X196364762Y-85624819D01*
X196364762Y-85624819D02*
X196555238Y-85624819D01*
X196555238Y-85624819D02*
X196650476Y-85577200D01*
X196650476Y-85577200D02*
X196698095Y-85529580D01*
X196698095Y-85529580D02*
X196745714Y-85434342D01*
X196745714Y-85434342D02*
X196745714Y-85243866D01*
X196745714Y-85243866D02*
X196698095Y-85148628D01*
X196698095Y-85148628D02*
X196650476Y-85101009D01*
X196650476Y-85101009D02*
X196555238Y-85053390D01*
X191888095Y-85944819D02*
X191888095Y-84944819D01*
X192459523Y-85944819D02*
X192030952Y-85373390D01*
X192459523Y-84944819D02*
X191888095Y-85516247D01*
X195201905Y-76494819D02*
X195201905Y-75494819D01*
X195201905Y-75494819D02*
X195440000Y-75494819D01*
X195440000Y-75494819D02*
X195582857Y-75542438D01*
X195582857Y-75542438D02*
X195678095Y-75637676D01*
X195678095Y-75637676D02*
X195725714Y-75732914D01*
X195725714Y-75732914D02*
X195773333Y-75923390D01*
X195773333Y-75923390D02*
X195773333Y-76066247D01*
X195773333Y-76066247D02*
X195725714Y-76256723D01*
X195725714Y-76256723D02*
X195678095Y-76351961D01*
X195678095Y-76351961D02*
X195582857Y-76447200D01*
X195582857Y-76447200D02*
X195440000Y-76494819D01*
X195440000Y-76494819D02*
X195201905Y-76494819D01*
X196725714Y-76494819D02*
X196154286Y-76494819D01*
X196440000Y-76494819D02*
X196440000Y-75494819D01*
X196440000Y-75494819D02*
X196344762Y-75637676D01*
X196344762Y-75637676D02*
X196249524Y-75732914D01*
X196249524Y-75732914D02*
X196154286Y-75780533D01*
X191868095Y-76814819D02*
X191868095Y-75814819D01*
X192439523Y-76814819D02*
X192010952Y-76243390D01*
X192439523Y-75814819D02*
X191868095Y-76386247D01*
X205296667Y-113583200D02*
X205439524Y-113630819D01*
X205439524Y-113630819D02*
X205677619Y-113630819D01*
X205677619Y-113630819D02*
X205772857Y-113583200D01*
X205772857Y-113583200D02*
X205820476Y-113535580D01*
X205820476Y-113535580D02*
X205868095Y-113440342D01*
X205868095Y-113440342D02*
X205868095Y-113345104D01*
X205868095Y-113345104D02*
X205820476Y-113249866D01*
X205820476Y-113249866D02*
X205772857Y-113202247D01*
X205772857Y-113202247D02*
X205677619Y-113154628D01*
X205677619Y-113154628D02*
X205487143Y-113107009D01*
X205487143Y-113107009D02*
X205391905Y-113059390D01*
X205391905Y-113059390D02*
X205344286Y-113011771D01*
X205344286Y-113011771D02*
X205296667Y-112916533D01*
X205296667Y-112916533D02*
X205296667Y-112821295D01*
X205296667Y-112821295D02*
X205344286Y-112726057D01*
X205344286Y-112726057D02*
X205391905Y-112678438D01*
X205391905Y-112678438D02*
X205487143Y-112630819D01*
X205487143Y-112630819D02*
X205725238Y-112630819D01*
X205725238Y-112630819D02*
X205868095Y-112678438D01*
X206201429Y-112630819D02*
X206439524Y-113630819D01*
X206439524Y-113630819D02*
X206630000Y-112916533D01*
X206630000Y-112916533D02*
X206820476Y-113630819D01*
X206820476Y-113630819D02*
X207058572Y-112630819D01*
X207487143Y-113630819D02*
X207677619Y-113630819D01*
X207677619Y-113630819D02*
X207772857Y-113583200D01*
X207772857Y-113583200D02*
X207820476Y-113535580D01*
X207820476Y-113535580D02*
X207915714Y-113392723D01*
X207915714Y-113392723D02*
X207963333Y-113202247D01*
X207963333Y-113202247D02*
X207963333Y-112821295D01*
X207963333Y-112821295D02*
X207915714Y-112726057D01*
X207915714Y-112726057D02*
X207868095Y-112678438D01*
X207868095Y-112678438D02*
X207772857Y-112630819D01*
X207772857Y-112630819D02*
X207582381Y-112630819D01*
X207582381Y-112630819D02*
X207487143Y-112678438D01*
X207487143Y-112678438D02*
X207439524Y-112726057D01*
X207439524Y-112726057D02*
X207391905Y-112821295D01*
X207391905Y-112821295D02*
X207391905Y-113059390D01*
X207391905Y-113059390D02*
X207439524Y-113154628D01*
X207439524Y-113154628D02*
X207487143Y-113202247D01*
X207487143Y-113202247D02*
X207582381Y-113249866D01*
X207582381Y-113249866D02*
X207772857Y-113249866D01*
X207772857Y-113249866D02*
X207868095Y-113202247D01*
X207868095Y-113202247D02*
X207915714Y-113154628D01*
X207915714Y-113154628D02*
X207963333Y-113059390D01*
X220416667Y-133657200D02*
X220559524Y-133704819D01*
X220559524Y-133704819D02*
X220797619Y-133704819D01*
X220797619Y-133704819D02*
X220892857Y-133657200D01*
X220892857Y-133657200D02*
X220940476Y-133609580D01*
X220940476Y-133609580D02*
X220988095Y-133514342D01*
X220988095Y-133514342D02*
X220988095Y-133419104D01*
X220988095Y-133419104D02*
X220940476Y-133323866D01*
X220940476Y-133323866D02*
X220892857Y-133276247D01*
X220892857Y-133276247D02*
X220797619Y-133228628D01*
X220797619Y-133228628D02*
X220607143Y-133181009D01*
X220607143Y-133181009D02*
X220511905Y-133133390D01*
X220511905Y-133133390D02*
X220464286Y-133085771D01*
X220464286Y-133085771D02*
X220416667Y-132990533D01*
X220416667Y-132990533D02*
X220416667Y-132895295D01*
X220416667Y-132895295D02*
X220464286Y-132800057D01*
X220464286Y-132800057D02*
X220511905Y-132752438D01*
X220511905Y-132752438D02*
X220607143Y-132704819D01*
X220607143Y-132704819D02*
X220845238Y-132704819D01*
X220845238Y-132704819D02*
X220988095Y-132752438D01*
X221321429Y-132704819D02*
X221559524Y-133704819D01*
X221559524Y-133704819D02*
X221750000Y-132990533D01*
X221750000Y-132990533D02*
X221940476Y-133704819D01*
X221940476Y-133704819D02*
X222178572Y-132704819D01*
X222511905Y-132800057D02*
X222559524Y-132752438D01*
X222559524Y-132752438D02*
X222654762Y-132704819D01*
X222654762Y-132704819D02*
X222892857Y-132704819D01*
X222892857Y-132704819D02*
X222988095Y-132752438D01*
X222988095Y-132752438D02*
X223035714Y-132800057D01*
X223035714Y-132800057D02*
X223083333Y-132895295D01*
X223083333Y-132895295D02*
X223083333Y-132990533D01*
X223083333Y-132990533D02*
X223035714Y-133133390D01*
X223035714Y-133133390D02*
X222464286Y-133704819D01*
X222464286Y-133704819D02*
X223083333Y-133704819D01*
X223770476Y-113503200D02*
X223913333Y-113550819D01*
X223913333Y-113550819D02*
X224151428Y-113550819D01*
X224151428Y-113550819D02*
X224246666Y-113503200D01*
X224246666Y-113503200D02*
X224294285Y-113455580D01*
X224294285Y-113455580D02*
X224341904Y-113360342D01*
X224341904Y-113360342D02*
X224341904Y-113265104D01*
X224341904Y-113265104D02*
X224294285Y-113169866D01*
X224294285Y-113169866D02*
X224246666Y-113122247D01*
X224246666Y-113122247D02*
X224151428Y-113074628D01*
X224151428Y-113074628D02*
X223960952Y-113027009D01*
X223960952Y-113027009D02*
X223865714Y-112979390D01*
X223865714Y-112979390D02*
X223818095Y-112931771D01*
X223818095Y-112931771D02*
X223770476Y-112836533D01*
X223770476Y-112836533D02*
X223770476Y-112741295D01*
X223770476Y-112741295D02*
X223818095Y-112646057D01*
X223818095Y-112646057D02*
X223865714Y-112598438D01*
X223865714Y-112598438D02*
X223960952Y-112550819D01*
X223960952Y-112550819D02*
X224199047Y-112550819D01*
X224199047Y-112550819D02*
X224341904Y-112598438D01*
X224675238Y-112550819D02*
X224913333Y-113550819D01*
X224913333Y-113550819D02*
X225103809Y-112836533D01*
X225103809Y-112836533D02*
X225294285Y-113550819D01*
X225294285Y-113550819D02*
X225532381Y-112550819D01*
X226437142Y-113550819D02*
X225865714Y-113550819D01*
X226151428Y-113550819D02*
X226151428Y-112550819D01*
X226151428Y-112550819D02*
X226056190Y-112693676D01*
X226056190Y-112693676D02*
X225960952Y-112788914D01*
X225960952Y-112788914D02*
X225865714Y-112836533D01*
X226770476Y-112550819D02*
X227389523Y-112550819D01*
X227389523Y-112550819D02*
X227056190Y-112931771D01*
X227056190Y-112931771D02*
X227199047Y-112931771D01*
X227199047Y-112931771D02*
X227294285Y-112979390D01*
X227294285Y-112979390D02*
X227341904Y-113027009D01*
X227341904Y-113027009D02*
X227389523Y-113122247D01*
X227389523Y-113122247D02*
X227389523Y-113360342D01*
X227389523Y-113360342D02*
X227341904Y-113455580D01*
X227341904Y-113455580D02*
X227294285Y-113503200D01*
X227294285Y-113503200D02*
X227199047Y-113550819D01*
X227199047Y-113550819D02*
X226913333Y-113550819D01*
X226913333Y-113550819D02*
X226818095Y-113503200D01*
X226818095Y-113503200D02*
X226770476Y-113455580D01*
X166711905Y-80814819D02*
X166711905Y-79814819D01*
X166711905Y-79814819D02*
X166950000Y-79814819D01*
X166950000Y-79814819D02*
X167092857Y-79862438D01*
X167092857Y-79862438D02*
X167188095Y-79957676D01*
X167188095Y-79957676D02*
X167235714Y-80052914D01*
X167235714Y-80052914D02*
X167283333Y-80243390D01*
X167283333Y-80243390D02*
X167283333Y-80386247D01*
X167283333Y-80386247D02*
X167235714Y-80576723D01*
X167235714Y-80576723D02*
X167188095Y-80671961D01*
X167188095Y-80671961D02*
X167092857Y-80767200D01*
X167092857Y-80767200D02*
X166950000Y-80814819D01*
X166950000Y-80814819D02*
X166711905Y-80814819D01*
X167616667Y-79814819D02*
X168235714Y-79814819D01*
X168235714Y-79814819D02*
X167902381Y-80195771D01*
X167902381Y-80195771D02*
X168045238Y-80195771D01*
X168045238Y-80195771D02*
X168140476Y-80243390D01*
X168140476Y-80243390D02*
X168188095Y-80291009D01*
X168188095Y-80291009D02*
X168235714Y-80386247D01*
X168235714Y-80386247D02*
X168235714Y-80624342D01*
X168235714Y-80624342D02*
X168188095Y-80719580D01*
X168188095Y-80719580D02*
X168140476Y-80767200D01*
X168140476Y-80767200D02*
X168045238Y-80814819D01*
X168045238Y-80814819D02*
X167759524Y-80814819D01*
X167759524Y-80814819D02*
X167664286Y-80767200D01*
X167664286Y-80767200D02*
X167616667Y-80719580D01*
X163378095Y-81134819D02*
X163378095Y-80134819D01*
X163949523Y-81134819D02*
X163520952Y-80563390D01*
X163949523Y-80134819D02*
X163378095Y-80706247D01*
X189311905Y-80814819D02*
X189311905Y-79814819D01*
X189311905Y-79814819D02*
X189550000Y-79814819D01*
X189550000Y-79814819D02*
X189692857Y-79862438D01*
X189692857Y-79862438D02*
X189788095Y-79957676D01*
X189788095Y-79957676D02*
X189835714Y-80052914D01*
X189835714Y-80052914D02*
X189883333Y-80243390D01*
X189883333Y-80243390D02*
X189883333Y-80386247D01*
X189883333Y-80386247D02*
X189835714Y-80576723D01*
X189835714Y-80576723D02*
X189788095Y-80671961D01*
X189788095Y-80671961D02*
X189692857Y-80767200D01*
X189692857Y-80767200D02*
X189550000Y-80814819D01*
X189550000Y-80814819D02*
X189311905Y-80814819D01*
X190788095Y-79814819D02*
X190311905Y-79814819D01*
X190311905Y-79814819D02*
X190264286Y-80291009D01*
X190264286Y-80291009D02*
X190311905Y-80243390D01*
X190311905Y-80243390D02*
X190407143Y-80195771D01*
X190407143Y-80195771D02*
X190645238Y-80195771D01*
X190645238Y-80195771D02*
X190740476Y-80243390D01*
X190740476Y-80243390D02*
X190788095Y-80291009D01*
X190788095Y-80291009D02*
X190835714Y-80386247D01*
X190835714Y-80386247D02*
X190835714Y-80624342D01*
X190835714Y-80624342D02*
X190788095Y-80719580D01*
X190788095Y-80719580D02*
X190740476Y-80767200D01*
X190740476Y-80767200D02*
X190645238Y-80814819D01*
X190645238Y-80814819D02*
X190407143Y-80814819D01*
X190407143Y-80814819D02*
X190311905Y-80767200D01*
X190311905Y-80767200D02*
X190264286Y-80719580D01*
X185978095Y-81134819D02*
X185978095Y-80134819D01*
X186549523Y-81134819D02*
X186120952Y-80563390D01*
X186549523Y-80134819D02*
X185978095Y-80706247D01*
X168784819Y-64463333D02*
X169499104Y-64463333D01*
X169499104Y-64463333D02*
X169641961Y-64510952D01*
X169641961Y-64510952D02*
X169737200Y-64606190D01*
X169737200Y-64606190D02*
X169784819Y-64749047D01*
X169784819Y-64749047D02*
X169784819Y-64844285D01*
X169784819Y-63463333D02*
X169784819Y-64034761D01*
X169784819Y-63749047D02*
X168784819Y-63749047D01*
X168784819Y-63749047D02*
X168927676Y-63844285D01*
X168927676Y-63844285D02*
X169022914Y-63939523D01*
X169022914Y-63939523D02*
X169070533Y-64034761D01*
X182501428Y-63674819D02*
X182691904Y-63674819D01*
X182691904Y-63674819D02*
X182787142Y-63722438D01*
X182787142Y-63722438D02*
X182882380Y-63817676D01*
X182882380Y-63817676D02*
X182929999Y-64008152D01*
X182929999Y-64008152D02*
X182929999Y-64341485D01*
X182929999Y-64341485D02*
X182882380Y-64531961D01*
X182882380Y-64531961D02*
X182787142Y-64627200D01*
X182787142Y-64627200D02*
X182691904Y-64674819D01*
X182691904Y-64674819D02*
X182501428Y-64674819D01*
X182501428Y-64674819D02*
X182406190Y-64627200D01*
X182406190Y-64627200D02*
X182310952Y-64531961D01*
X182310952Y-64531961D02*
X182263333Y-64341485D01*
X182263333Y-64341485D02*
X182263333Y-64008152D01*
X182263333Y-64008152D02*
X182310952Y-63817676D01*
X182310952Y-63817676D02*
X182406190Y-63722438D01*
X182406190Y-63722438D02*
X182501428Y-63674819D01*
X183834761Y-64674819D02*
X183358571Y-64674819D01*
X183358571Y-64674819D02*
X183358571Y-63674819D01*
X184168095Y-64151009D02*
X184501428Y-64151009D01*
X184644285Y-64674819D02*
X184168095Y-64674819D01*
X184168095Y-64674819D02*
X184168095Y-63674819D01*
X184168095Y-63674819D02*
X184644285Y-63674819D01*
X185072857Y-64674819D02*
X185072857Y-63674819D01*
X185072857Y-63674819D02*
X185310952Y-63674819D01*
X185310952Y-63674819D02*
X185453809Y-63722438D01*
X185453809Y-63722438D02*
X185549047Y-63817676D01*
X185549047Y-63817676D02*
X185596666Y-63912914D01*
X185596666Y-63912914D02*
X185644285Y-64103390D01*
X185644285Y-64103390D02*
X185644285Y-64246247D01*
X185644285Y-64246247D02*
X185596666Y-64436723D01*
X185596666Y-64436723D02*
X185549047Y-64531961D01*
X185549047Y-64531961D02*
X185453809Y-64627200D01*
X185453809Y-64627200D02*
X185310952Y-64674819D01*
X185310952Y-64674819D02*
X185072857Y-64674819D01*
X186834762Y-64674819D02*
X186834762Y-63674819D01*
X186834762Y-63674819D02*
X187215714Y-63674819D01*
X187215714Y-63674819D02*
X187310952Y-63722438D01*
X187310952Y-63722438D02*
X187358571Y-63770057D01*
X187358571Y-63770057D02*
X187406190Y-63865295D01*
X187406190Y-63865295D02*
X187406190Y-64008152D01*
X187406190Y-64008152D02*
X187358571Y-64103390D01*
X187358571Y-64103390D02*
X187310952Y-64151009D01*
X187310952Y-64151009D02*
X187215714Y-64198628D01*
X187215714Y-64198628D02*
X186834762Y-64198628D01*
X188263333Y-64674819D02*
X188263333Y-64151009D01*
X188263333Y-64151009D02*
X188215714Y-64055771D01*
X188215714Y-64055771D02*
X188120476Y-64008152D01*
X188120476Y-64008152D02*
X187930000Y-64008152D01*
X187930000Y-64008152D02*
X187834762Y-64055771D01*
X188263333Y-64627200D02*
X188168095Y-64674819D01*
X188168095Y-64674819D02*
X187930000Y-64674819D01*
X187930000Y-64674819D02*
X187834762Y-64627200D01*
X187834762Y-64627200D02*
X187787143Y-64531961D01*
X187787143Y-64531961D02*
X187787143Y-64436723D01*
X187787143Y-64436723D02*
X187834762Y-64341485D01*
X187834762Y-64341485D02*
X187930000Y-64293866D01*
X187930000Y-64293866D02*
X188168095Y-64293866D01*
X188168095Y-64293866D02*
X188263333Y-64246247D01*
X188739524Y-64008152D02*
X188739524Y-64674819D01*
X188739524Y-64103390D02*
X188787143Y-64055771D01*
X188787143Y-64055771D02*
X188882381Y-64008152D01*
X188882381Y-64008152D02*
X189025238Y-64008152D01*
X189025238Y-64008152D02*
X189120476Y-64055771D01*
X189120476Y-64055771D02*
X189168095Y-64151009D01*
X189168095Y-64151009D02*
X189168095Y-64674819D01*
X190025238Y-64627200D02*
X189930000Y-64674819D01*
X189930000Y-64674819D02*
X189739524Y-64674819D01*
X189739524Y-64674819D02*
X189644286Y-64627200D01*
X189644286Y-64627200D02*
X189596667Y-64531961D01*
X189596667Y-64531961D02*
X189596667Y-64151009D01*
X189596667Y-64151009D02*
X189644286Y-64055771D01*
X189644286Y-64055771D02*
X189739524Y-64008152D01*
X189739524Y-64008152D02*
X189930000Y-64008152D01*
X189930000Y-64008152D02*
X190025238Y-64055771D01*
X190025238Y-64055771D02*
X190072857Y-64151009D01*
X190072857Y-64151009D02*
X190072857Y-64246247D01*
X190072857Y-64246247D02*
X189596667Y-64341485D01*
X190644286Y-64674819D02*
X190549048Y-64627200D01*
X190549048Y-64627200D02*
X190501429Y-64531961D01*
X190501429Y-64531961D02*
X190501429Y-63674819D01*
X201554878Y-60981428D02*
X201519164Y-61052857D01*
X201519164Y-61052857D02*
X201519164Y-61159999D01*
X201519164Y-61159999D02*
X201554878Y-61267142D01*
X201554878Y-61267142D02*
X201626307Y-61338571D01*
X201626307Y-61338571D02*
X201697735Y-61374285D01*
X201697735Y-61374285D02*
X201840592Y-61409999D01*
X201840592Y-61409999D02*
X201947735Y-61409999D01*
X201947735Y-61409999D02*
X202090592Y-61374285D01*
X202090592Y-61374285D02*
X202162021Y-61338571D01*
X202162021Y-61338571D02*
X202233450Y-61267142D01*
X202233450Y-61267142D02*
X202269164Y-61159999D01*
X202269164Y-61159999D02*
X202269164Y-61088571D01*
X202269164Y-61088571D02*
X202233450Y-60981428D01*
X202233450Y-60981428D02*
X202197735Y-60945714D01*
X202197735Y-60945714D02*
X201947735Y-60945714D01*
X201947735Y-60945714D02*
X201947735Y-61088571D01*
X202269164Y-60624285D02*
X201519164Y-60624285D01*
X201519164Y-60624285D02*
X202269164Y-60195714D01*
X202269164Y-60195714D02*
X201519164Y-60195714D01*
X202269164Y-59838571D02*
X201519164Y-59838571D01*
X201519164Y-59838571D02*
X201519164Y-59660000D01*
X201519164Y-59660000D02*
X201554878Y-59552857D01*
X201554878Y-59552857D02*
X201626307Y-59481428D01*
X201626307Y-59481428D02*
X201697735Y-59445714D01*
X201697735Y-59445714D02*
X201840592Y-59410000D01*
X201840592Y-59410000D02*
X201947735Y-59410000D01*
X201947735Y-59410000D02*
X202090592Y-59445714D01*
X202090592Y-59445714D02*
X202162021Y-59481428D01*
X202162021Y-59481428D02*
X202233450Y-59552857D01*
X202233450Y-59552857D02*
X202269164Y-59660000D01*
X202269164Y-59660000D02*
X202269164Y-59838571D01*
X201519164Y-63949999D02*
X202269164Y-63699999D01*
X202269164Y-63699999D02*
X201519164Y-63449999D01*
X202197735Y-62771428D02*
X202233450Y-62807142D01*
X202233450Y-62807142D02*
X202269164Y-62914285D01*
X202269164Y-62914285D02*
X202269164Y-62985713D01*
X202269164Y-62985713D02*
X202233450Y-63092856D01*
X202233450Y-63092856D02*
X202162021Y-63164285D01*
X202162021Y-63164285D02*
X202090592Y-63199999D01*
X202090592Y-63199999D02*
X201947735Y-63235713D01*
X201947735Y-63235713D02*
X201840592Y-63235713D01*
X201840592Y-63235713D02*
X201697735Y-63199999D01*
X201697735Y-63199999D02*
X201626307Y-63164285D01*
X201626307Y-63164285D02*
X201554878Y-63092856D01*
X201554878Y-63092856D02*
X201519164Y-62985713D01*
X201519164Y-62985713D02*
X201519164Y-62914285D01*
X201519164Y-62914285D02*
X201554878Y-62807142D01*
X201554878Y-62807142D02*
X201590592Y-62771428D01*
X202197735Y-62021428D02*
X202233450Y-62057142D01*
X202233450Y-62057142D02*
X202269164Y-62164285D01*
X202269164Y-62164285D02*
X202269164Y-62235713D01*
X202269164Y-62235713D02*
X202233450Y-62342856D01*
X202233450Y-62342856D02*
X202162021Y-62414285D01*
X202162021Y-62414285D02*
X202090592Y-62449999D01*
X202090592Y-62449999D02*
X201947735Y-62485713D01*
X201947735Y-62485713D02*
X201840592Y-62485713D01*
X201840592Y-62485713D02*
X201697735Y-62449999D01*
X201697735Y-62449999D02*
X201626307Y-62414285D01*
X201626307Y-62414285D02*
X201554878Y-62342856D01*
X201554878Y-62342856D02*
X201519164Y-62235713D01*
X201519164Y-62235713D02*
X201519164Y-62164285D01*
X201519164Y-62164285D02*
X201554878Y-62057142D01*
X201554878Y-62057142D02*
X201590592Y-62021428D01*
X202233450Y-66382856D02*
X202269164Y-66275714D01*
X202269164Y-66275714D02*
X202269164Y-66097142D01*
X202269164Y-66097142D02*
X202233450Y-66025714D01*
X202233450Y-66025714D02*
X202197735Y-65989999D01*
X202197735Y-65989999D02*
X202126307Y-65954285D01*
X202126307Y-65954285D02*
X202054878Y-65954285D01*
X202054878Y-65954285D02*
X201983450Y-65989999D01*
X201983450Y-65989999D02*
X201947735Y-66025714D01*
X201947735Y-66025714D02*
X201912021Y-66097142D01*
X201912021Y-66097142D02*
X201876307Y-66239999D01*
X201876307Y-66239999D02*
X201840592Y-66311428D01*
X201840592Y-66311428D02*
X201804878Y-66347142D01*
X201804878Y-66347142D02*
X201733450Y-66382856D01*
X201733450Y-66382856D02*
X201662021Y-66382856D01*
X201662021Y-66382856D02*
X201590592Y-66347142D01*
X201590592Y-66347142D02*
X201554878Y-66311428D01*
X201554878Y-66311428D02*
X201519164Y-66239999D01*
X201519164Y-66239999D02*
X201519164Y-66061428D01*
X201519164Y-66061428D02*
X201554878Y-65954285D01*
X202197735Y-65204285D02*
X202233450Y-65239999D01*
X202233450Y-65239999D02*
X202269164Y-65347142D01*
X202269164Y-65347142D02*
X202269164Y-65418570D01*
X202269164Y-65418570D02*
X202233450Y-65525713D01*
X202233450Y-65525713D02*
X202162021Y-65597142D01*
X202162021Y-65597142D02*
X202090592Y-65632856D01*
X202090592Y-65632856D02*
X201947735Y-65668570D01*
X201947735Y-65668570D02*
X201840592Y-65668570D01*
X201840592Y-65668570D02*
X201697735Y-65632856D01*
X201697735Y-65632856D02*
X201626307Y-65597142D01*
X201626307Y-65597142D02*
X201554878Y-65525713D01*
X201554878Y-65525713D02*
X201519164Y-65418570D01*
X201519164Y-65418570D02*
X201519164Y-65347142D01*
X201519164Y-65347142D02*
X201554878Y-65239999D01*
X201554878Y-65239999D02*
X201590592Y-65204285D01*
X202269164Y-64525713D02*
X202269164Y-64882856D01*
X202269164Y-64882856D02*
X201519164Y-64882856D01*
X202233450Y-68940713D02*
X202269164Y-68833571D01*
X202269164Y-68833571D02*
X202269164Y-68654999D01*
X202269164Y-68654999D02*
X202233450Y-68583571D01*
X202233450Y-68583571D02*
X202197735Y-68547856D01*
X202197735Y-68547856D02*
X202126307Y-68512142D01*
X202126307Y-68512142D02*
X202054878Y-68512142D01*
X202054878Y-68512142D02*
X201983450Y-68547856D01*
X201983450Y-68547856D02*
X201947735Y-68583571D01*
X201947735Y-68583571D02*
X201912021Y-68654999D01*
X201912021Y-68654999D02*
X201876307Y-68797856D01*
X201876307Y-68797856D02*
X201840592Y-68869285D01*
X201840592Y-68869285D02*
X201804878Y-68904999D01*
X201804878Y-68904999D02*
X201733450Y-68940713D01*
X201733450Y-68940713D02*
X201662021Y-68940713D01*
X201662021Y-68940713D02*
X201590592Y-68904999D01*
X201590592Y-68904999D02*
X201554878Y-68869285D01*
X201554878Y-68869285D02*
X201519164Y-68797856D01*
X201519164Y-68797856D02*
X201519164Y-68619285D01*
X201519164Y-68619285D02*
X201554878Y-68512142D01*
X202269164Y-68190713D02*
X201519164Y-68190713D01*
X201519164Y-68190713D02*
X201519164Y-68012142D01*
X201519164Y-68012142D02*
X201554878Y-67904999D01*
X201554878Y-67904999D02*
X201626307Y-67833570D01*
X201626307Y-67833570D02*
X201697735Y-67797856D01*
X201697735Y-67797856D02*
X201840592Y-67762142D01*
X201840592Y-67762142D02*
X201947735Y-67762142D01*
X201947735Y-67762142D02*
X202090592Y-67797856D01*
X202090592Y-67797856D02*
X202162021Y-67833570D01*
X202162021Y-67833570D02*
X202233450Y-67904999D01*
X202233450Y-67904999D02*
X202269164Y-68012142D01*
X202269164Y-68012142D02*
X202269164Y-68190713D01*
X202054878Y-67476427D02*
X202054878Y-67119285D01*
X202269164Y-67547856D02*
X201519164Y-67297856D01*
X201519164Y-67297856D02*
X202269164Y-67047856D01*
X207041905Y-85624819D02*
X207041905Y-84624819D01*
X207041905Y-84624819D02*
X207280000Y-84624819D01*
X207280000Y-84624819D02*
X207422857Y-84672438D01*
X207422857Y-84672438D02*
X207518095Y-84767676D01*
X207518095Y-84767676D02*
X207565714Y-84862914D01*
X207565714Y-84862914D02*
X207613333Y-85053390D01*
X207613333Y-85053390D02*
X207613333Y-85196247D01*
X207613333Y-85196247D02*
X207565714Y-85386723D01*
X207565714Y-85386723D02*
X207518095Y-85481961D01*
X207518095Y-85481961D02*
X207422857Y-85577200D01*
X207422857Y-85577200D02*
X207280000Y-85624819D01*
X207280000Y-85624819D02*
X207041905Y-85624819D01*
X207946667Y-84624819D02*
X208613333Y-84624819D01*
X208613333Y-84624819D02*
X208184762Y-85624819D01*
X203708095Y-85944819D02*
X203708095Y-84944819D01*
X204279523Y-85944819D02*
X203850952Y-85373390D01*
X204279523Y-84944819D02*
X203708095Y-85516247D01*
X206235714Y-76604819D02*
X206235714Y-75604819D01*
X206235714Y-75604819D02*
X206473809Y-75604819D01*
X206473809Y-75604819D02*
X206616666Y-75652438D01*
X206616666Y-75652438D02*
X206711904Y-75747676D01*
X206711904Y-75747676D02*
X206759523Y-75842914D01*
X206759523Y-75842914D02*
X206807142Y-76033390D01*
X206807142Y-76033390D02*
X206807142Y-76176247D01*
X206807142Y-76176247D02*
X206759523Y-76366723D01*
X206759523Y-76366723D02*
X206711904Y-76461961D01*
X206711904Y-76461961D02*
X206616666Y-76557200D01*
X206616666Y-76557200D02*
X206473809Y-76604819D01*
X206473809Y-76604819D02*
X206235714Y-76604819D01*
X207759523Y-76604819D02*
X207188095Y-76604819D01*
X207473809Y-76604819D02*
X207473809Y-75604819D01*
X207473809Y-75604819D02*
X207378571Y-75747676D01*
X207378571Y-75747676D02*
X207283333Y-75842914D01*
X207283333Y-75842914D02*
X207188095Y-75890533D01*
X208140476Y-75700057D02*
X208188095Y-75652438D01*
X208188095Y-75652438D02*
X208283333Y-75604819D01*
X208283333Y-75604819D02*
X208521428Y-75604819D01*
X208521428Y-75604819D02*
X208616666Y-75652438D01*
X208616666Y-75652438D02*
X208664285Y-75700057D01*
X208664285Y-75700057D02*
X208711904Y-75795295D01*
X208711904Y-75795295D02*
X208711904Y-75890533D01*
X208711904Y-75890533D02*
X208664285Y-76033390D01*
X208664285Y-76033390D02*
X208092857Y-76604819D01*
X208092857Y-76604819D02*
X208711904Y-76604819D01*
X203378095Y-76924819D02*
X203378095Y-75924819D01*
X203949523Y-76924819D02*
X203520952Y-76353390D01*
X203949523Y-75924819D02*
X203378095Y-76496247D01*
X186186667Y-113593200D02*
X186329524Y-113640819D01*
X186329524Y-113640819D02*
X186567619Y-113640819D01*
X186567619Y-113640819D02*
X186662857Y-113593200D01*
X186662857Y-113593200D02*
X186710476Y-113545580D01*
X186710476Y-113545580D02*
X186758095Y-113450342D01*
X186758095Y-113450342D02*
X186758095Y-113355104D01*
X186758095Y-113355104D02*
X186710476Y-113259866D01*
X186710476Y-113259866D02*
X186662857Y-113212247D01*
X186662857Y-113212247D02*
X186567619Y-113164628D01*
X186567619Y-113164628D02*
X186377143Y-113117009D01*
X186377143Y-113117009D02*
X186281905Y-113069390D01*
X186281905Y-113069390D02*
X186234286Y-113021771D01*
X186234286Y-113021771D02*
X186186667Y-112926533D01*
X186186667Y-112926533D02*
X186186667Y-112831295D01*
X186186667Y-112831295D02*
X186234286Y-112736057D01*
X186234286Y-112736057D02*
X186281905Y-112688438D01*
X186281905Y-112688438D02*
X186377143Y-112640819D01*
X186377143Y-112640819D02*
X186615238Y-112640819D01*
X186615238Y-112640819D02*
X186758095Y-112688438D01*
X187091429Y-112640819D02*
X187329524Y-113640819D01*
X187329524Y-113640819D02*
X187520000Y-112926533D01*
X187520000Y-112926533D02*
X187710476Y-113640819D01*
X187710476Y-113640819D02*
X187948572Y-112640819D01*
X188758095Y-112640819D02*
X188567619Y-112640819D01*
X188567619Y-112640819D02*
X188472381Y-112688438D01*
X188472381Y-112688438D02*
X188424762Y-112736057D01*
X188424762Y-112736057D02*
X188329524Y-112878914D01*
X188329524Y-112878914D02*
X188281905Y-113069390D01*
X188281905Y-113069390D02*
X188281905Y-113450342D01*
X188281905Y-113450342D02*
X188329524Y-113545580D01*
X188329524Y-113545580D02*
X188377143Y-113593200D01*
X188377143Y-113593200D02*
X188472381Y-113640819D01*
X188472381Y-113640819D02*
X188662857Y-113640819D01*
X188662857Y-113640819D02*
X188758095Y-113593200D01*
X188758095Y-113593200D02*
X188805714Y-113545580D01*
X188805714Y-113545580D02*
X188853333Y-113450342D01*
X188853333Y-113450342D02*
X188853333Y-113212247D01*
X188853333Y-113212247D02*
X188805714Y-113117009D01*
X188805714Y-113117009D02*
X188758095Y-113069390D01*
X188758095Y-113069390D02*
X188662857Y-113021771D01*
X188662857Y-113021771D02*
X188472381Y-113021771D01*
X188472381Y-113021771D02*
X188377143Y-113069390D01*
X188377143Y-113069390D02*
X188329524Y-113117009D01*
X188329524Y-113117009D02*
X188281905Y-113212247D01*
X172215714Y-76384819D02*
X172215714Y-75384819D01*
X172215714Y-75384819D02*
X172453809Y-75384819D01*
X172453809Y-75384819D02*
X172596666Y-75432438D01*
X172596666Y-75432438D02*
X172691904Y-75527676D01*
X172691904Y-75527676D02*
X172739523Y-75622914D01*
X172739523Y-75622914D02*
X172787142Y-75813390D01*
X172787142Y-75813390D02*
X172787142Y-75956247D01*
X172787142Y-75956247D02*
X172739523Y-76146723D01*
X172739523Y-76146723D02*
X172691904Y-76241961D01*
X172691904Y-76241961D02*
X172596666Y-76337200D01*
X172596666Y-76337200D02*
X172453809Y-76384819D01*
X172453809Y-76384819D02*
X172215714Y-76384819D01*
X173739523Y-76384819D02*
X173168095Y-76384819D01*
X173453809Y-76384819D02*
X173453809Y-75384819D01*
X173453809Y-75384819D02*
X173358571Y-75527676D01*
X173358571Y-75527676D02*
X173263333Y-75622914D01*
X173263333Y-75622914D02*
X173168095Y-75670533D01*
X174691904Y-76384819D02*
X174120476Y-76384819D01*
X174406190Y-76384819D02*
X174406190Y-75384819D01*
X174406190Y-75384819D02*
X174310952Y-75527676D01*
X174310952Y-75527676D02*
X174215714Y-75622914D01*
X174215714Y-75622914D02*
X174120476Y-75670533D01*
X169358095Y-76704819D02*
X169358095Y-75704819D01*
X169929523Y-76704819D02*
X169500952Y-76133390D01*
X169929523Y-75704819D02*
X169358095Y-76276247D01*
X223910476Y-94453200D02*
X224053333Y-94500819D01*
X224053333Y-94500819D02*
X224291428Y-94500819D01*
X224291428Y-94500819D02*
X224386666Y-94453200D01*
X224386666Y-94453200D02*
X224434285Y-94405580D01*
X224434285Y-94405580D02*
X224481904Y-94310342D01*
X224481904Y-94310342D02*
X224481904Y-94215104D01*
X224481904Y-94215104D02*
X224434285Y-94119866D01*
X224434285Y-94119866D02*
X224386666Y-94072247D01*
X224386666Y-94072247D02*
X224291428Y-94024628D01*
X224291428Y-94024628D02*
X224100952Y-93977009D01*
X224100952Y-93977009D02*
X224005714Y-93929390D01*
X224005714Y-93929390D02*
X223958095Y-93881771D01*
X223958095Y-93881771D02*
X223910476Y-93786533D01*
X223910476Y-93786533D02*
X223910476Y-93691295D01*
X223910476Y-93691295D02*
X223958095Y-93596057D01*
X223958095Y-93596057D02*
X224005714Y-93548438D01*
X224005714Y-93548438D02*
X224100952Y-93500819D01*
X224100952Y-93500819D02*
X224339047Y-93500819D01*
X224339047Y-93500819D02*
X224481904Y-93548438D01*
X224815238Y-93500819D02*
X225053333Y-94500819D01*
X225053333Y-94500819D02*
X225243809Y-93786533D01*
X225243809Y-93786533D02*
X225434285Y-94500819D01*
X225434285Y-94500819D02*
X225672381Y-93500819D01*
X226577142Y-94500819D02*
X226005714Y-94500819D01*
X226291428Y-94500819D02*
X226291428Y-93500819D01*
X226291428Y-93500819D02*
X226196190Y-93643676D01*
X226196190Y-93643676D02*
X226100952Y-93738914D01*
X226100952Y-93738914D02*
X226005714Y-93786533D01*
X226958095Y-93596057D02*
X227005714Y-93548438D01*
X227005714Y-93548438D02*
X227100952Y-93500819D01*
X227100952Y-93500819D02*
X227339047Y-93500819D01*
X227339047Y-93500819D02*
X227434285Y-93548438D01*
X227434285Y-93548438D02*
X227481904Y-93596057D01*
X227481904Y-93596057D02*
X227529523Y-93691295D01*
X227529523Y-93691295D02*
X227529523Y-93786533D01*
X227529523Y-93786533D02*
X227481904Y-93929390D01*
X227481904Y-93929390D02*
X226910476Y-94500819D01*
X226910476Y-94500819D02*
X227529523Y-94500819D01*
X167246667Y-94473200D02*
X167389524Y-94520819D01*
X167389524Y-94520819D02*
X167627619Y-94520819D01*
X167627619Y-94520819D02*
X167722857Y-94473200D01*
X167722857Y-94473200D02*
X167770476Y-94425580D01*
X167770476Y-94425580D02*
X167818095Y-94330342D01*
X167818095Y-94330342D02*
X167818095Y-94235104D01*
X167818095Y-94235104D02*
X167770476Y-94139866D01*
X167770476Y-94139866D02*
X167722857Y-94092247D01*
X167722857Y-94092247D02*
X167627619Y-94044628D01*
X167627619Y-94044628D02*
X167437143Y-93997009D01*
X167437143Y-93997009D02*
X167341905Y-93949390D01*
X167341905Y-93949390D02*
X167294286Y-93901771D01*
X167294286Y-93901771D02*
X167246667Y-93806533D01*
X167246667Y-93806533D02*
X167246667Y-93711295D01*
X167246667Y-93711295D02*
X167294286Y-93616057D01*
X167294286Y-93616057D02*
X167341905Y-93568438D01*
X167341905Y-93568438D02*
X167437143Y-93520819D01*
X167437143Y-93520819D02*
X167675238Y-93520819D01*
X167675238Y-93520819D02*
X167818095Y-93568438D01*
X168151429Y-93520819D02*
X168389524Y-94520819D01*
X168389524Y-94520819D02*
X168580000Y-93806533D01*
X168580000Y-93806533D02*
X168770476Y-94520819D01*
X168770476Y-94520819D02*
X169008572Y-93520819D01*
X169913333Y-94520819D02*
X169341905Y-94520819D01*
X169627619Y-94520819D02*
X169627619Y-93520819D01*
X169627619Y-93520819D02*
X169532381Y-93663676D01*
X169532381Y-93663676D02*
X169437143Y-93758914D01*
X169437143Y-93758914D02*
X169341905Y-93806533D01*
X205416667Y-94473200D02*
X205559524Y-94520819D01*
X205559524Y-94520819D02*
X205797619Y-94520819D01*
X205797619Y-94520819D02*
X205892857Y-94473200D01*
X205892857Y-94473200D02*
X205940476Y-94425580D01*
X205940476Y-94425580D02*
X205988095Y-94330342D01*
X205988095Y-94330342D02*
X205988095Y-94235104D01*
X205988095Y-94235104D02*
X205940476Y-94139866D01*
X205940476Y-94139866D02*
X205892857Y-94092247D01*
X205892857Y-94092247D02*
X205797619Y-94044628D01*
X205797619Y-94044628D02*
X205607143Y-93997009D01*
X205607143Y-93997009D02*
X205511905Y-93949390D01*
X205511905Y-93949390D02*
X205464286Y-93901771D01*
X205464286Y-93901771D02*
X205416667Y-93806533D01*
X205416667Y-93806533D02*
X205416667Y-93711295D01*
X205416667Y-93711295D02*
X205464286Y-93616057D01*
X205464286Y-93616057D02*
X205511905Y-93568438D01*
X205511905Y-93568438D02*
X205607143Y-93520819D01*
X205607143Y-93520819D02*
X205845238Y-93520819D01*
X205845238Y-93520819D02*
X205988095Y-93568438D01*
X206321429Y-93520819D02*
X206559524Y-94520819D01*
X206559524Y-94520819D02*
X206750000Y-93806533D01*
X206750000Y-93806533D02*
X206940476Y-94520819D01*
X206940476Y-94520819D02*
X207178572Y-93520819D01*
X207702381Y-93949390D02*
X207607143Y-93901771D01*
X207607143Y-93901771D02*
X207559524Y-93854152D01*
X207559524Y-93854152D02*
X207511905Y-93758914D01*
X207511905Y-93758914D02*
X207511905Y-93711295D01*
X207511905Y-93711295D02*
X207559524Y-93616057D01*
X207559524Y-93616057D02*
X207607143Y-93568438D01*
X207607143Y-93568438D02*
X207702381Y-93520819D01*
X207702381Y-93520819D02*
X207892857Y-93520819D01*
X207892857Y-93520819D02*
X207988095Y-93568438D01*
X207988095Y-93568438D02*
X208035714Y-93616057D01*
X208035714Y-93616057D02*
X208083333Y-93711295D01*
X208083333Y-93711295D02*
X208083333Y-93758914D01*
X208083333Y-93758914D02*
X208035714Y-93854152D01*
X208035714Y-93854152D02*
X207988095Y-93901771D01*
X207988095Y-93901771D02*
X207892857Y-93949390D01*
X207892857Y-93949390D02*
X207702381Y-93949390D01*
X207702381Y-93949390D02*
X207607143Y-93997009D01*
X207607143Y-93997009D02*
X207559524Y-94044628D01*
X207559524Y-94044628D02*
X207511905Y-94139866D01*
X207511905Y-94139866D02*
X207511905Y-94330342D01*
X207511905Y-94330342D02*
X207559524Y-94425580D01*
X207559524Y-94425580D02*
X207607143Y-94473200D01*
X207607143Y-94473200D02*
X207702381Y-94520819D01*
X207702381Y-94520819D02*
X207892857Y-94520819D01*
X207892857Y-94520819D02*
X207988095Y-94473200D01*
X207988095Y-94473200D02*
X208035714Y-94425580D01*
X208035714Y-94425580D02*
X208083333Y-94330342D01*
X208083333Y-94330342D02*
X208083333Y-94139866D01*
X208083333Y-94139866D02*
X208035714Y-94044628D01*
X208035714Y-94044628D02*
X207988095Y-93997009D01*
X207988095Y-93997009D02*
X207892857Y-93949390D01*
%TO.C,D2*%
D12*
X182000000Y-77940000D02*
X182650000Y-77940000D01*
X183250000Y-76820000D02*
X183250000Y-79060000D01*
X183370000Y-76820000D02*
X183370000Y-79060000D01*
X183490000Y-76820000D02*
X183490000Y-79060000D01*
X187540000Y-77940000D02*
X186890000Y-77940000D01*
X182650000Y-76820000D02*
X186890000Y-76820000D01*
X186890000Y-79060000D01*
X182650000Y-79060000D01*
X182650000Y-76820000D01*
%TO.C,SW10*%
X199505000Y-133115000D02*
X213475000Y-133115000D01*
X199505000Y-147085000D02*
X199505000Y-133115000D01*
X213475000Y-133115000D02*
X213475000Y-147085000D01*
X213475000Y-147085000D02*
X199505000Y-147085000D01*
%TO.C,SW3*%
X161475000Y-114065000D02*
X175445000Y-114065000D01*
X161475000Y-128035000D02*
X161475000Y-114065000D01*
X175445000Y-114065000D02*
X175445000Y-128035000D01*
X175445000Y-128035000D02*
X161475000Y-128035000D01*
%TO.C,SW5*%
X180655000Y-94965000D02*
X194625000Y-94965000D01*
X180655000Y-108935000D02*
X180655000Y-94965000D01*
X194625000Y-94965000D02*
X194625000Y-108935000D01*
X194625000Y-108935000D02*
X180655000Y-108935000D01*
%TO.C,SW7*%
X180395000Y-133125000D02*
X194365000Y-133125000D01*
X180395000Y-147095000D02*
X180395000Y-133125000D01*
X194365000Y-133125000D02*
X194365000Y-147095000D01*
X194365000Y-147095000D02*
X180395000Y-147095000D01*
%TO.C,D6*%
X198440000Y-82260000D02*
X199090000Y-82260000D01*
X199690000Y-81140000D02*
X199690000Y-83380000D01*
X199810000Y-81140000D02*
X199810000Y-83380000D01*
X199930000Y-81140000D02*
X199930000Y-83380000D01*
X203980000Y-82260000D02*
X203330000Y-82260000D01*
X199090000Y-81140000D02*
X203330000Y-81140000D01*
X203330000Y-83380000D01*
X199090000Y-83380000D01*
X199090000Y-81140000D01*
%TO.C,D9*%
X182020000Y-87290000D02*
X182670000Y-87290000D01*
X183270000Y-86170000D02*
X183270000Y-88410000D01*
X183390000Y-86170000D02*
X183390000Y-88410000D01*
X183510000Y-86170000D02*
X183510000Y-88410000D01*
X187560000Y-87290000D02*
X186910000Y-87290000D01*
X182670000Y-86170000D02*
X186910000Y-86170000D01*
X186910000Y-88410000D01*
X182670000Y-88410000D01*
X182670000Y-86170000D01*
%TO.C,D4*%
X176110000Y-82480000D02*
X176760000Y-82480000D01*
X177360000Y-81360000D02*
X177360000Y-83600000D01*
X177480000Y-81360000D02*
X177480000Y-83600000D01*
X177600000Y-81360000D02*
X177600000Y-83600000D01*
X181650000Y-82480000D02*
X181000000Y-82480000D01*
X176760000Y-81360000D02*
X181000000Y-81360000D01*
X181000000Y-83600000D01*
X176760000Y-83600000D01*
X176760000Y-81360000D01*
%TO.C,SW4*%
X161335000Y-133115000D02*
X175305000Y-133115000D01*
X161335000Y-147085000D02*
X161335000Y-133115000D01*
X175305000Y-133115000D02*
X175305000Y-147085000D01*
X175305000Y-147085000D02*
X161335000Y-147085000D01*
%TO.C,U1*%
D13*
X214097500Y-55295000D02*
X214097500Y-69265000D01*
X216002500Y-53390000D02*
X233147500Y-53390000D01*
X216002500Y-71170000D02*
X233147500Y-71170000D01*
X235052500Y-57785000D02*
X235962772Y-57788728D01*
D14*
X235052500Y-69265000D02*
X235052500Y-55295000D01*
D13*
X235052500Y-69265000D02*
X235052500Y-55295000D01*
X235962500Y-66784000D02*
X235052500Y-66784000D01*
X236462500Y-58288728D02*
X236462500Y-66284000D01*
X214097500Y-55295000D02*
G75*
G02*
X216002500Y-53390000I1905001J-1D01*
G01*
X216002500Y-71170000D02*
G75*
G02*
X214097500Y-69265000I1J1905001D01*
G01*
X233147500Y-53390000D02*
G75*
G02*
X235052500Y-55295000I0J-1905000D01*
G01*
X235052500Y-69265000D02*
G75*
G02*
X233147500Y-71170000I-1905000J0D01*
G01*
X235962772Y-57788728D02*
G75*
G02*
X236462472Y-58288728I-272J-499972D01*
G01*
X236462500Y-66284000D02*
G75*
G02*
X235962500Y-66784000I-500000J0D01*
G01*
D15*
X234183500Y-54473000D02*
G75*
G02*
X233679500Y-54473000I-252000J0D01*
G01*
X233679500Y-54473000D02*
G75*
G02*
X234183500Y-54473000I252000J0D01*
G01*
X235063500Y-53330000D02*
G75*
G02*
X234559500Y-53330000I-252000J0D01*
G01*
X234559500Y-53330000D02*
G75*
G02*
X235063500Y-53330000I252000J0D01*
G01*
%TO.C,SW11*%
D12*
X218855000Y-75825000D02*
X232825000Y-75825000D01*
X218855000Y-89795000D02*
X218855000Y-75825000D01*
X232825000Y-75825000D02*
X232825000Y-89795000D01*
X232825000Y-89795000D02*
X218855000Y-89795000D01*
%TO.C,D10*%
X170850000Y-87290000D02*
X171500000Y-87290000D01*
X172100000Y-86170000D02*
X172100000Y-88410000D01*
X172220000Y-86170000D02*
X172220000Y-88410000D01*
X172340000Y-86170000D02*
X172340000Y-88410000D01*
X176390000Y-87290000D02*
X175740000Y-87290000D01*
X171500000Y-86170000D02*
X175740000Y-86170000D01*
X175740000Y-88410000D01*
X171500000Y-88410000D01*
X171500000Y-86170000D01*
%TO.C,D8*%
X193190000Y-87290000D02*
X193840000Y-87290000D01*
X194440000Y-86170000D02*
X194440000Y-88410000D01*
X194560000Y-86170000D02*
X194560000Y-88410000D01*
X194680000Y-86170000D02*
X194680000Y-88410000D01*
X198730000Y-87290000D02*
X198080000Y-87290000D01*
X193840000Y-86170000D02*
X198080000Y-86170000D01*
X198080000Y-88410000D01*
X193840000Y-88410000D01*
X193840000Y-86170000D01*
%TO.C,D1*%
X193170000Y-78160000D02*
X193820000Y-78160000D01*
X194420000Y-77040000D02*
X194420000Y-79280000D01*
X194540000Y-77040000D02*
X194540000Y-79280000D01*
X194660000Y-77040000D02*
X194660000Y-79280000D01*
X198710000Y-78160000D02*
X198060000Y-78160000D01*
X193820000Y-77040000D02*
X198060000Y-77040000D01*
X198060000Y-79280000D01*
X193820000Y-79280000D01*
X193820000Y-77040000D01*
%TO.C,SW9*%
X199645000Y-114065000D02*
X213615000Y-114065000D01*
X199645000Y-128035000D02*
X199645000Y-114065000D01*
X213615000Y-114065000D02*
X213615000Y-128035000D01*
X213615000Y-128035000D02*
X199645000Y-128035000D01*
%TO.C,SW2*%
X218650000Y-136350000D02*
X219250000Y-136350000D01*
X218950000Y-136650000D02*
X218650000Y-136350000D01*
X219250000Y-136350000D02*
X218950000Y-136650000D01*
X220350000Y-134550000D02*
X220350000Y-146350000D01*
X224450000Y-134550000D02*
X220350000Y-134550000D01*
X224450000Y-146350000D02*
X220350000Y-146350000D01*
X225950000Y-140450000D02*
X226950000Y-140450000D01*
X226450000Y-139950000D02*
X226450000Y-140950000D01*
X228450000Y-134550000D02*
X232550000Y-134550000D01*
X232550000Y-134550000D02*
X232550000Y-136950000D01*
X232550000Y-139150000D02*
X232550000Y-141750000D01*
X232550000Y-143950000D02*
X232550000Y-146350000D01*
X232550000Y-146350000D02*
X228450000Y-146350000D01*
X229450000Y-140450000D02*
G75*
G02*
X223450000Y-140450000I-3000000J0D01*
G01*
X223450000Y-140450000D02*
G75*
G02*
X229450000Y-140450000I3000000J0D01*
G01*
%TO.C,SW13*%
X218595000Y-113985000D02*
X232565000Y-113985000D01*
X218595000Y-127955000D02*
X218595000Y-113985000D01*
X232565000Y-113985000D02*
X232565000Y-127955000D01*
X232565000Y-127955000D02*
X218595000Y-127955000D01*
%TO.C,D3*%
X164680000Y-82480000D02*
X165330000Y-82480000D01*
X165930000Y-81360000D02*
X165930000Y-83600000D01*
X166050000Y-81360000D02*
X166050000Y-83600000D01*
X166170000Y-81360000D02*
X166170000Y-83600000D01*
X170220000Y-82480000D02*
X169570000Y-82480000D01*
X165330000Y-81360000D02*
X169570000Y-81360000D01*
X169570000Y-83600000D01*
X165330000Y-83600000D01*
X165330000Y-81360000D01*
%TO.C,D5*%
X187280000Y-82480000D02*
X187930000Y-82480000D01*
X188530000Y-81360000D02*
X188530000Y-83600000D01*
X188650000Y-81360000D02*
X188650000Y-83600000D01*
X188770000Y-81360000D02*
X188770000Y-83600000D01*
X192820000Y-82480000D02*
X192170000Y-82480000D01*
X187930000Y-81360000D02*
X192170000Y-81360000D01*
X192170000Y-83600000D01*
X187930000Y-83600000D01*
X187930000Y-81360000D01*
%TO.C,J1*%
D16*
X167430000Y-58220000D02*
X167430000Y-70220000D01*
X167430000Y-70220000D02*
X205430000Y-70220000D01*
X170930000Y-58220000D02*
X170930000Y-70220000D01*
X200430000Y-58220000D02*
X200430000Y-70220000D01*
X205430000Y-58220000D02*
X167430000Y-58220000D01*
X205430000Y-70220000D02*
X205430000Y-58220000D01*
%TO.C,D7*%
D12*
X205010000Y-87290000D02*
X205660000Y-87290000D01*
X206260000Y-86170000D02*
X206260000Y-88410000D01*
X206380000Y-86170000D02*
X206380000Y-88410000D01*
X206500000Y-86170000D02*
X206500000Y-88410000D01*
X210550000Y-87290000D02*
X209900000Y-87290000D01*
X205660000Y-86170000D02*
X209900000Y-86170000D01*
X209900000Y-88410000D01*
X205660000Y-88410000D01*
X205660000Y-86170000D01*
%TO.C,D12*%
X204680000Y-78270000D02*
X205330000Y-78270000D01*
X205930000Y-77150000D02*
X205930000Y-79390000D01*
X206050000Y-77150000D02*
X206050000Y-79390000D01*
X206170000Y-77150000D02*
X206170000Y-79390000D01*
X210220000Y-78270000D02*
X209570000Y-78270000D01*
X205330000Y-77150000D02*
X209570000Y-77150000D01*
X209570000Y-79390000D01*
X205330000Y-79390000D01*
X205330000Y-77150000D01*
%TO.C,SW6*%
X180535000Y-114075000D02*
X194505000Y-114075000D01*
X180535000Y-128045000D02*
X180535000Y-114075000D01*
X194505000Y-114075000D02*
X194505000Y-128045000D01*
X194505000Y-128045000D02*
X180535000Y-128045000D01*
%TO.C,D11*%
X170660000Y-78050000D02*
X171310000Y-78050000D01*
X171910000Y-76930000D02*
X171910000Y-79170000D01*
X172030000Y-76930000D02*
X172030000Y-79170000D01*
X172150000Y-76930000D02*
X172150000Y-79170000D01*
X176200000Y-78050000D02*
X175550000Y-78050000D01*
X171310000Y-76930000D02*
X175550000Y-76930000D01*
X175550000Y-79170000D01*
X171310000Y-79170000D01*
X171310000Y-76930000D01*
%TO.C,SW12*%
X218735000Y-94935000D02*
X232705000Y-94935000D01*
X218735000Y-108905000D02*
X218735000Y-94935000D01*
X232705000Y-94935000D02*
X232705000Y-108905000D01*
X232705000Y-108905000D02*
X218735000Y-108905000D01*
%TO.C,SW1*%
X161595000Y-94955000D02*
X175565000Y-94955000D01*
X161595000Y-108925000D02*
X161595000Y-94955000D01*
X175565000Y-94955000D02*
X175565000Y-108925000D01*
X175565000Y-108925000D02*
X161595000Y-108925000D01*
%TO.C,SW8*%
X199765000Y-94955000D02*
X213735000Y-94955000D01*
X199765000Y-108925000D02*
X199765000Y-94955000D01*
X213735000Y-94955000D02*
X213735000Y-108925000D01*
X213735000Y-108925000D02*
X199765000Y-108925000D01*
%TD*%
M02*
