M48
; DRILL file KiCad 10.0.1 date 2026-08-09T10:55:54
; FORMAT={-:-/ absolute / metric / decimal}
; #@! TF.CreationDate,2026-08-09T10:55:54+10:00
; #@! TF.GenerationSoftware,Kicad,Pcbnew,10.0.1
; #@! TF.FileFunction,Plated,1,2,PTH
FMAT,2
METRIC
; #@! TA.AperFunction,Plated,PTH,ViaDrill
T1C0.300
; #@! TA.AperFunction,Plated,PTH,ComponentDrill
T2C0.800
; #@! TA.AperFunction,Plated,PTH,ComponentDrill
T3C0.889
; #@! TA.AperFunction,Plated,PTH,ComponentDrill
T4C1.000
; #@! TA.AperFunction,Plated,PTH,ComponentDrill
T5C1.500
%
G90
G05
T1
X179.733Y-88.85
X193.951Y-111.759
X195.455Y-89.069
X214.091Y-115.89
T2
X163.64Y-82.48
X169.62Y-78.05
X169.81Y-87.29
X171.26Y-82.48
X175.07Y-82.48
X177.24Y-78.05
X177.43Y-87.29
X180.96Y-77.94
X180.98Y-87.29
X182.69Y-82.48
X186.24Y-82.48
X188.58Y-77.94
X188.6Y-87.29
X192.13Y-78.16
X192.15Y-87.29
X193.86Y-82.48
X197.4Y-82.26
X199.75Y-78.16
X199.77Y-87.29
X203.64Y-78.27
X203.97Y-87.29
X205.02Y-82.26
X211.26Y-78.27
X211.59Y-87.29
T3
X216.891Y-54.66
X216.891Y-69.9
X219.431Y-54.66
X219.431Y-69.9
X221.971Y-54.66
X221.971Y-69.9
X224.511Y-54.66
X224.511Y-69.9
X227.051Y-54.66
X227.051Y-69.9
X229.591Y-54.66
X229.591Y-69.9
X232.131Y-54.66
X232.131Y-69.9
T4
X203.93Y-60.41
X203.93Y-62.95
X203.93Y-65.49
X203.93Y-68.03
X218.95Y-137.95
X218.95Y-140.45
X218.95Y-142.95
X233.45Y-137.95
X233.45Y-142.95
T5
X164.51Y-137.56
X164.65Y-118.51
X164.77Y-99.4
X170.86Y-135.02
X171.0Y-115.97
X171.12Y-96.86
X183.57Y-137.57
X183.71Y-118.52
X183.83Y-99.41
X189.92Y-135.03
X190.06Y-115.98
X190.18Y-96.87
X202.68Y-137.56
X202.82Y-118.51
X202.94Y-99.4
X209.03Y-135.02
X209.17Y-115.97
X209.29Y-96.86
X221.77Y-118.43
X221.91Y-99.38
X222.03Y-80.27
X228.12Y-115.89
X228.26Y-96.84
X228.38Y-77.73
T5
G00X225.8Y-134.85
M15
G01X227.1Y-134.85
M16
G05
G00X225.8Y-146.05
M15
G01X227.1Y-146.05
M16
G05
M30
